<?xml version="1.0" encoding="utf-8"?>
<!-- Generator: Adobe Illustrator 22.0.1, SVG Export Plug-In . SVG Version: 6.00 Build 0)  -->
<svg version="1.1" id="Layer_1" xmlns="http://www.w3.org/2000/svg" xmlns:xlink="http://www.w3.org/1999/xlink" x="0px" y="0px"
	 viewBox="0 0 340.4 73.7" enable-background="new 0 0 340.4 73.7" xml:space="preserve">
<g>
	<g id="IV_02">
		<g>
			<path fill="#FFFFFF" d="M31.7,41c-0.5-0.2-1-0.3-1.5-0.3c-1.4,0-1.9,1.5-2.5,2.7l-5.5,11.6l0.1,0.1c1.5-1.2,3.7-2.7,6.1-2.7
				c1.4,0,3,0.8,3,2.5c0,0.8-0.3,1.4-0.6,2.2l-1.6,3.3c-0.3,0.6-0.6,1.2-0.6,1.8c0,0.3,0.2,0.6,0.7,0.6c0.4,0,0.5-0.2,0.8-0.4
				l0.5,0.7c-1.1,1-1.6,1.1-2.5,1.1c-0.5,0-1.1-0.4-1.5-0.4c-0.8,0-1.5,0.4-2.3,0.4c-0.4,0-0.7-0.2-1-0.4l0.3-0.9
				c1.6,0,2.1-0.4,2.8-2l2-4.5c0.2-0.5,0.4-1.1,0.4-1.5c0-0.8-0.6-1.2-1.3-1.2c-1.9,0-5.1,2.4-6.5,3.8l-1.7,3.6
				c-0.2,0.4-0.4,1-0.4,1.3c0,0.3,0.2,0.6,0.8,0.6c0.3,0,0.6-0.1,0.9-0.3l0.4,0.8c-0.6,0.3-1.4,0.6-1.9,0.6c-0.8,0-1.6-0.3-2.5-0.3
				c-0.8,0-1.3,0.3-2,0.3c-0.3,0-0.7-0.1-0.9-0.2L13.5,63c2.2-0.3,2.7-1,4.1-4l6.8-14.1c1.4-3,3.3-5.5,5.8-5.5
				c0.6,0,1.2,0.3,1.8,0.7L31.7,41z"/>
			<path fill="#FFFFFF" d="M37.8,59.6c-0.8,0-1.4-0.1-2-0.2c0.2,1.4,1.1,3.3,3.3,3.3c1.7,0,2.9-0.8,3.9-1.6l0.6,0.7
				c-1.1,1-2.6,2.2-5.1,2.2c-2.6,0-5.1-1.7-5.1-4.3c0-4.9,5.7-7.4,9.2-7.4c1.9,0,3,0.8,3,2.4C45.5,56.7,42.5,59.6,37.8,59.6z
				 M41.2,53.5c-3,0-4.7,2.5-5.3,4.8c0.5,0.1,0.8,0.2,1.6,0.2c2.7,0,5.3-1.6,5.3-3.5C42.8,54,42.3,53.5,41.2,53.5z"/>
			<path fill="#FFFFFF" d="M78.7,51.9c-1.1,3.5-4.1,9.5-4.1,10c0,0.4,0.2,0.8,0.8,0.8c0.4,0,0.8-0.2,1.2-0.4l0.6,0.8
				c-0.8,0.5-1.2,0.9-2.3,0.9c-1,0-1.5-0.4-2.3-0.4c-0.8,0-1.4,0.2-2,0.4L70,63.4c2.8-2.8,3.6-5.1,5.2-9l-3.5-0.2
				c-0.5,0-1-0.1-1.3-0.1c-0.3,0-0.6,0.4-1,1c-3.5,4.8-7.3,9-12.3,9c-3.8,0-5.3-2.7-5.9-4.4l1-0.5c0.8,1.7,2.1,3.6,5.1,3.6
				c5.3,0,12-11.9,14.6-15.2c3.3-4.3,5.2-5.9,10.4-7.7l0.6,0.8C80.5,43.6,80.2,47,78.7,51.9z M80.8,41.4c-3.8,1.8-6.2,5.7-9.8,11.4
				l4.6,0.2C77.2,48.7,78,45.6,80.8,41.4L80.8,41.4z"/>
			<path fill="#FFFFFF" d="M90,56.3c-0.6,0-1.1-0.5-1.1-0.9c0-0.4,0.3-0.6,0.3-1c0-0.2-0.1-0.5-0.6-0.5c-4.7,0-7.7,7.7-7.7,8.1
				c0,0.4,0.2,0.9,0.6,0.9c0.5,0,0.9-0.4,1.2-0.6l0.5,0.8c-0.3,0.4-1.2,1-2.1,1c-0.7,0-1.2-0.3-2.1-0.3c-1,0-1.4,0.3-2.4,0.3
				c-0.4,0-0.7-0.2-1-0.4l0.4-0.8c1.6,0,2-0.4,3.1-2.5l2.2-4.2c0.2-0.3,0.4-0.8,0.4-1c0-0.2,0-0.4-0.3-0.4c-0.1,0-0.4,0.1-0.8,0.2
				l-0.1-1l4.1-1.3c0.2-0.1,0.3-0.1,0.5-0.1c0.1,0,0.1,0.1,0.1,0.2c0,0.3-0.2,1-0.4,1.4l0.1,0.1c1.1-0.8,2.7-1.9,4.5-1.9
				c1.6,0,2.3,0.9,2.3,2C91.7,55.4,90.9,56.3,90,56.3z"/>
			<path fill="#FFFFFF" d="M97.5,52.4h1.6l-0.5,1.2h-1.5c-1.6,3.7-2.5,5.4-5.9,8.8c0.5,0,1-0.3,1.3-0.3c0.3,0,0.9,0.2,1.2,0.2
				c0.4,0,0.7-0.1,1.1-0.2l0.4,0.7c-1.2,1-1.6,1.2-2.4,1.2c-0.8,0-1.6-0.3-2.2-0.3c-0.4,0-0.8,0.2-1.2,0.3l-0.5-0.7
				c3.1-3.8,3.9-6,5.5-9.6h-1.4l0.5-1.2c1.2,0,1.6-0.4,2.1-1.2c1.5-3,3.1-6,5.1-7.6l0.7,0.6C99.6,46.6,99.1,48.3,97.5,52.4z"/>
			<path fill="#FFFFFF" d="M109.8,64c-3.1,0-5-2-5-4.5c0-4,3.8-7.2,7.4-7.2c2.5,0,4.8,1.8,4.8,4.5C117,60.4,113.6,64,109.8,64z
				 M112.3,53.5c-2.8,0-5.3,4.1-5.3,6.9c0,1.4,0.9,2.4,2.3,2.4c2.8,0,5.4-3.8,5.4-7C114.8,54.5,113.7,53.5,112.3,53.5z"/>
			<path fill="#FFFFFF" d="M132.5,42.1c-1.1,0-0.6-1.5-1.6-1.5c-2.5,0-4.7,7.2-6.8,12.1c0.5-0.2,1-0.4,1.5-0.4
				c0.8,0,1.5,0.5,1.5,1.2c0,0.4-0.5,0.9-1,0.9c-0.7,0-0.8-0.6-1.4-0.6c-1.4,0-1.9,2.8-4,6.8c-3.4,6.4-7.9,12.3-12.7,13.1l-0.2-0.9
				c4.1-1.5,7-5.1,9.4-9.9c3.3-6.4,5.4-12.9,7.9-17.6c1.8-3.5,4-5.7,6.3-5.7c1,0,2.2,0.6,2.2,1.6C133.4,41.6,133,42.1,132.5,42.1z"
				/>
			<path fill="#FFFFFF" d="M161.5,56.3c-0.6,0-1.1-0.5-1.1-0.9c0-0.4,0.3-0.6,0.3-1c0-0.2-0.1-0.5-0.6-0.5c-4.7,0-7.7,7.7-7.7,8.1
				c0,0.4,0.2,0.9,0.6,0.9c0.5,0,0.9-0.4,1.2-0.6l0.5,0.8c-0.3,0.4-1.2,1-2.1,1c-0.7,0-1.2-0.3-2.1-0.3c-1,0-1.4,0.3-2.4,0.3
				c-0.4,0-0.7-0.2-1-0.4l0.4-0.8c1.6,0,2-0.4,3.1-2.5l2.2-4.2c0.2-0.3,0.4-0.8,0.4-1c0-0.2,0-0.4-0.3-0.4c-0.1,0-0.4,0.1-0.8,0.2
				l-0.1-1l4.1-1.3c0.2-0.1,0.3-0.1,0.5-0.1c0.1,0,0.1,0.1,0.1,0.2c0,0.3-0.2,1-0.4,1.4l0.1,0.1c1.1-0.8,2.7-1.9,4.5-1.9
				c1.6,0,2.3,0.9,2.3,2C163.2,55.4,162.4,56.3,161.5,56.3z"/>
			<path fill="#FFFFFF" d="M173.2,58.8c-0.8,2-1.1,2.8-1.1,3.4c0,0.2,0.3,0.4,0.6,0.4c0.3,0,0.7-0.6,1-0.9l0.8,0.4
				c-0.3,0.7-1.2,1.9-2.2,1.9c-0.4,0-0.8-0.2-1.4-0.2c-0.3,0-0.7,0.2-1.1,0.2c-0.3,0-0.4-0.4-0.4-0.7c0-0.3,0.1-0.7,0.2-1
				c-1,0.9-2.4,1.7-3.8,1.7c-2.3,0-3.7-1.8-3.7-3.6c0-5.4,6.8-8.2,11.7-8.2c1.2,0,2.3,0,2.3,0.6C176,53,174.6,55.5,173.2,58.8z
				 M171.9,53.6c-2.6,0-7.3,3.1-7.3,6.5c0,0.7,0.4,2.1,2.2,2.1c1.1,0,2.3-0.8,3-1.5c0.1-0.1,0.4-0.6,0.5-0.9
				c0.6-2.1,1.9-4.3,2.9-6.2H171.9z"/>
			<path fill="#FFFFFF" d="M180.1,64c-2.4,0-4.6-1.2-4.6-3.8c0-2.9,2.8-4.6,2.8-5.1c0-0.1-0.1-0.1-0.4-0.1c-0.2,0-0.4,0.1-0.8,0.2
				l-0.3-0.8l4.3-1.9c0.2-0.1,0.4-0.2,0.4-0.2c0.2,0,0.4,0.2,0.4,0.4c0,0.5-0.7,1.4-1.7,2.8c-1.5,2.1-2.5,3.9-2.5,5.5
				c0,1.1,1,1.9,2.2,1.9c2.7,0,5.4-3.7,5.4-7.2c0-0.9-0.3-1.8-0.6-2.5l1-0.8c0.5,0.6,1.3,2.2,1.3,3.7C187.2,60.2,183.4,64,180.1,64z
				"/>
			<path fill="#FFFFFF" d="M192.7,59.6c-0.8,0-1.4-0.1-2-0.2c0.2,1.4,1.1,3.3,3.3,3.3c1.7,0,2.9-0.8,3.9-1.6l0.6,0.7
				c-1.1,1-2.6,2.2-5.1,2.2c-2.6,0-5.1-1.7-5.1-4.3c0-4.9,5.7-7.4,9.2-7.4c1.9,0,3,0.8,3,2.4C200.4,56.7,197.5,59.6,192.7,59.6z
				 M196.1,53.5c-3,0-4.7,2.5-5.3,4.8c0.5,0.1,0.8,0.2,1.6,0.2c2.7,0,5.3-1.6,5.3-3.5C197.8,54,197.2,53.5,196.1,53.5z"/>
			<path fill="#FFFFFF" d="M216.3,41c-0.4-0.2-0.9-0.4-1.3-0.4c-1.4,0-2.4,1.8-3.9,5l-7,15c-0.4,0.8-0.6,1.3-0.6,1.7
				c0,0.4,0.3,0.6,0.7,0.6c0.2,0,0.4,0,0.7-0.1l0.2,0.9c-0.4,0.1-0.8,0.3-1.4,0.3c-1,0-1.3-0.3-2-0.3c-0.7,0-1.6,0.3-2.3,0.3
				c-0.3,0-0.8-0.1-1.2-0.3l0.4-0.9c0.2,0.1,0.4,0.1,0.6,0.1c0.9,0,1.6-1,2.3-2.4l6.9-14.1c2-4.2,3.9-7,6.5-7c0.9,0,1.3,0.3,2,0.6
				L216.3,41z"/>
			<path fill="#FFFFFF" d="M210.7,62.2c0,0.3,0.2,0.6,0.5,0.6c0.3,0,0.6-0.2,1-0.3l0.5,0.8c-1,0.6-1.3,0.8-2,0.8
				c-0.6,0-1.5-0.4-2-0.4c-0.3,0-1.1,0.4-1.6,0.4c-0.6,0-1.3-0.4-1.7-0.8l0.4-0.8c0.2,0.1,0.5,0.3,0.7,0.3c0.6,0,1.2-0.2,2.4-2.6
				l2-4.3c0.2-0.4,0.3-0.8,0.3-1c0-0.2-0.1-0.3-0.5-0.3H210l-0.1-0.8l4.9-1.5l0.4,0.3C212.5,58,210.7,61.4,210.7,62.2z M216,49.4
				c-0.9,0-1.6-0.7-1.6-1.6c0-0.9,0.7-1.6,1.6-1.6s1.6,0.7,1.6,1.6C217.6,48.7,216.9,49.4,216,49.4z"/>
			<path fill="#FFFFFF" d="M223.5,62.5c0.4,0,0.7-0.2,1.2-0.2c0.4,0,0.7,0.1,1,0.1s0.5-0.1,0.8-0.2l0.4,0.6
				c-0.6,0.6-1.4,1.2-2.2,1.2c-0.8,0-1.5-0.3-2.2-0.3c-0.6,0-0.9,0.1-1.2,0.3l-0.3-0.6c1.7-1.8,4.6-5.1,4.6-7.7
				c0-0.6-0.5-1.6-1.8-1.6c-3.3,0-6.9,7.8-6.9,8.3c0,0.3,0.4,0.4,0.7,0.4c0.2,0,0.5-0.2,0.8-0.2l0.4,0.8c-0.8,0.5-1.3,0.7-2.1,0.7
				c-0.6,0-1.2-0.2-1.8-0.2c-0.7,0-1.1,0.2-1.9,0.2c-0.2,0-0.6,0-0.8-0.1l0.2-0.9c1.3,0,1.6-0.5,2.5-1.9c1.8-2.9,2.9-5.2,2.9-5.7
				c0-0.4-0.2-0.6-0.6-0.6c-0.2,0-0.4,0-0.6,0.1l-0.2-0.9l4.7-1.4c0.1,0.2,0.2,0.3,0.2,0.5c0,0.2-0.2,1-0.4,1.3l0.1,0.1
				c1.2-1.2,2.5-2.2,4.5-2.2c1.3,0,2.7,0.8,2.7,2.9C228,57.5,224.5,61.4,223.5,62.5z"/>
			<path fill="#FFFFFF" d="M235.4,67.6c-1.6,3.1-4.4,6-8,6c-1.5,0-2.7-0.5-3.3-1l0.6-0.8c0.8,0.3,1.6,0.6,2.4,0.6c4.3,0,7-7,7.7-9.3
				c-0.9,0.5-1.6,0.9-2.8,0.9c-2.2,0-3.8-1.8-3.8-3.7c0-3.6,3.7-8.1,12.6-8.1c0.5,0,1.5,0.1,2.2,0.4v0.7
				C238,58.5,238.3,62.1,235.4,67.6z M239.6,53.5c-3.7,0-8.7,3.3-8.7,7.2c0,1,0.7,1.9,1.8,1.9c1.2,0,2.3-0.6,2.9-1.4
				c1.6-3.9,2.1-4.9,5.1-7.7H239.6z"/>
			<path fill="#FFFFFF" d="M251.8,62.2c0,0.3,0.2,0.6,0.5,0.6c0.3,0,0.6-0.2,1-0.3l0.5,0.8c-1,0.6-1.3,0.8-2,0.8
				c-0.6,0-1.5-0.4-2-0.4c-0.3,0-1.1,0.4-1.6,0.4c-0.6,0-1.3-0.4-1.7-0.8l0.4-0.8c0.2,0.1,0.5,0.3,0.7,0.3c0.6,0,1.2-0.2,2.4-2.6
				l2-4.3c0.2-0.4,0.3-0.8,0.3-1c0-0.2-0.1-0.3-0.5-0.3h-0.8l-0.1-0.8l4.9-1.5l0.4,0.3C253.6,58,251.8,61.4,251.8,62.2z M257.1,49.4
				c-0.9,0-1.6-0.7-1.6-1.6c0-0.9,0.7-1.6,1.6-1.6c0.9,0,1.6,0.7,1.6,1.6C258.7,48.7,258,49.4,257.1,49.4z"/>
			<path fill="#FFFFFF" d="M265,62.5c0.4,0,0.7-0.2,1.2-0.2c0.4,0,0.7,0.1,1,0.1c0.2,0,0.5-0.1,0.8-0.2l0.4,0.6
				c-0.6,0.6-1.4,1.2-2.2,1.2c-0.8,0-1.5-0.3-2.2-0.3c-0.6,0-0.9,0.1-1.2,0.3l-0.3-0.6c1.7-1.8,4.6-5.1,4.6-7.7
				c0-0.6-0.5-1.6-1.8-1.6c-3.3,0-6.9,7.8-6.9,8.3c0,0.3,0.4,0.4,0.7,0.4c0.2,0,0.5-0.2,0.8-0.2l0.4,0.8c-0.8,0.5-1.3,0.7-2.1,0.7
				c-0.6,0-1.2-0.2-1.8-0.2c-0.7,0-1.1,0.2-1.9,0.2c-0.2,0-0.6,0-0.8-0.1l0.2-0.9c1.3,0,1.6-0.5,2.5-1.9c1.8-2.9,2.9-5.2,2.9-5.7
				c0-0.4-0.2-0.6-0.6-0.6c-0.2,0-0.4,0-0.6,0.1l-0.2-0.9l4.7-1.4c0.1,0.2,0.2,0.3,0.2,0.5c0,0.2-0.2,1-0.4,1.3l0.1,0.1
				c1.2-1.2,2.5-2.2,4.5-2.2c1.3,0,2.7,0.8,2.7,2.9C269.5,57.5,266,61.4,265,62.5z"/>
			<path fill="#FFFFFF" d="M295.6,45.2c-1.2,0-1.8-1-2.2-1.5l0.3-0.4c0.2,0.1,0.4,0.1,0.6,0.1c0.4,0,0.9-0.4,0.9-0.9
				c0-0.8-1.6-1.8-3.3-1.8c-2.6,0-3.7,1.6-3.7,2.9c0,2.5,3.2,4.3,5.6,6.7c1.5,1.6,2.9,3.4,2.9,5.3c0,4.8-4.9,8.4-10.5,8.4
				c-6.2,0-10.2-3.6-10.2-7.5c0-2.6,1.9-4.9,5.2-4.9c1.6,0,2.4,0.4,3.4,1l-0.4,0.9c-0.7-0.3-1.5-0.5-2.2-0.5c-2.3,0-3.5,2.2-3.5,4
				c0,3.7,3.8,5.7,7.7,5.7c5.1,0,7.9-2.6,7.9-6.3c0-3-3.9-6.1-5.6-8.2c-1.1-1.4-2.1-2.9-2.1-4.5c0-2.8,2.6-4.4,5.6-4.4
				c2.7,0,5.4,2,5.4,3.7C297.4,44.5,296.6,45.2,295.6,45.2z"/>
			<path fill="#FFFFFF" d="M305.3,52.4h1.6l-0.5,1.2h-1.5c-1.6,3.7-2.5,5.4-5.9,8.8c0.5,0,1-0.3,1.3-0.3c0.3,0,0.9,0.2,1.2,0.2
				c0.4,0,0.7-0.1,1.1-0.2l0.4,0.7c-1.2,1-1.6,1.2-2.4,1.2c-0.8,0-1.6-0.3-2.2-0.3c-0.4,0-0.8,0.2-1.2,0.3l-0.5-0.7
				c3.1-3.8,3.9-6,5.5-9.6h-1.4l0.5-1.2c1.2,0,1.6-0.4,2-1.2c1.5-3,3.1-6,5.1-7.6l0.7,0.6C307.4,46.6,306.9,48.3,305.3,52.4z"/>
			<path fill="#FFFFFF" d="M316.1,61.1c-2.4,4.5-6.1,12.5-11.5,12.5c-1.5,0-2.4-0.4-3.8-1.2l0.6-0.8c1,0.4,2,0.8,3,0.8
				c3.9,0,6.8-7,8.8-10.5l-0.1-0.1c-0.7,0.6-2.6,2.1-4.1,2.1c-1.6,0-2.4-1.4-2.4-2.5c0-1.4,2.7-5.5,2.7-6.3c0-0.2-0.2-0.4-0.4-0.4
				c-0.2,0-0.4,0.1-0.6,0.1l-0.2-0.9l4.4-1.4c0.3-0.1,0.6-0.2,0.7-0.2c0.2,0,0.3,0,0.3,0.2c0,0.4-1,1.4-2.9,5.2
				c-1.1,2.3-1.5,3.5-1.5,3.9c0,0.6,0.5,0.9,0.8,0.9c2.8,0,7.7-7,9.7-10.3l1,0.3C320,53.9,318.2,57.2,316.1,61.1z"/>
			<path fill="#FFFFFF" d="M335.4,41c-0.4-0.2-0.9-0.4-1.3-0.4c-1.4,0-2.4,1.8-3.9,5l-7,15c-0.4,0.8-0.6,1.3-0.6,1.7
				c0,0.4,0.3,0.6,0.7,0.6c0.2,0,0.4,0,0.7-0.1l0.2,0.9c-0.4,0.1-0.8,0.3-1.4,0.3c-1,0-1.3-0.3-2-0.3c-0.7,0-1.6,0.3-2.3,0.3
				c-0.3,0-0.8-0.1-1.2-0.3l0.4-0.9c0.2,0.1,0.4,0.1,0.6,0.1c0.9,0,1.6-1,2.3-2.4l6.9-14.1c2.1-4.2,3.9-7,6.5-7c0.9,0,1.3,0.3,2,0.6
				L335.4,41z"/>
			<path fill="#FFFFFF" d="M332.7,59.6c-0.8,0-1.4-0.1-2-0.2c0.2,1.4,1.1,3.3,3.3,3.3c1.7,0,2.9-0.8,3.9-1.6l0.6,0.7
				c-1.1,1-2.6,2.2-5.1,2.2c-2.6,0-5.1-1.7-5.1-4.3c0-4.9,5.7-7.4,9.2-7.4c1.9,0,3,0.8,3,2.4C340.4,56.7,337.4,59.6,332.7,59.6z
				 M336.1,53.5c-3,0-4.7,2.5-5.3,4.8c0.5,0.1,0.8,0.2,1.6,0.2c2.7,0,5.3-1.6,5.3-3.5C337.7,54,337.2,53.5,336.1,53.5z"/>
			<path fill="#FFFFFF" d="M139.2,43.4c0,0,0.7,0.1,1.1-0.2c0.6-0.7,1.3-1.2,2.2-1.6c0.9-0.4,2-0.5,3.4-0.5h1.4l-6.5,17.2
				c-0.6,1.7-1.1,2.9-1.5,3.4c-0.2,0.6-0.4,1-0.7,1.2c-0.5,0.3-1.5,0.3-2.5,0.3h-0.5l-0.3,0.7H146l0.3-0.7h-0.8c-1,0-2.2,0-2.5-0.3
				c-0.4-0.3-0.1-0.7,0.1-1.2c0.1-0.5,0.5-1.8,1.2-3.9l6.2-16.7h1.9c1.7,0,2.7,0.2,3.1,0.5c0.5,0.4,0.6,0.7,0.8,1.5
				c0.2,0.4,0.8,0.4,0.8,0.4l1.8-3.9h-18.4L139.2,43.4L139.2,43.4z"/>
			<path fill="#FFFFFF" d="M3.7,43.4c0,0,0.7,0.1,1.1-0.2c0.6-0.7,1.3-1.2,2.2-1.6c0.9-0.4,2-0.5,3.4-0.5h1.4L5.4,58.3
				c-0.6,1.7-1.1,2.9-1.5,3.4c-0.2,0.6-0.4,1-0.7,1.2c-0.5,0.3-1.5,0.3-2.5,0.3H0.3L0,63.8h10.5l0.3-0.7H10c-1,0-2.2,0-2.5-0.3
				c-0.4-0.3-0.1-0.7,0.1-1.2c0.1-0.5,0.5-1.8,1.2-3.9L15,41.1h1.9c1.7,0,2.7,0.2,3.1,0.5c0.5,0.4,0.6,0.7,0.8,1.5
				c0.2,0.4,0.8,0.4,0.8,0.4l1.8-3.9H4.9L3.7,43.4L3.7,43.4z"/>
		</g>
		<path fill="#FFFFFF" d="M4.9,24.5h6.4V0.4H4.9V24.5L4.9,24.5z M15.2,24.5h5.9L20.9,8H21l8.4,16.5h8V0.4h-5.9l0.1,16.4h-0.1
			L23.4,0.4h-8.2V24.5L15.2,24.5z M40.4,23.9c2.1,0.7,4.9,1,7.2,1c5.3,0,10.6-1.7,10.6-7.9c0-8.7-11.4-6.1-11.4-10
			c0-2.1,2.7-2.2,4.3-2.2c1.8,0,3.7,0.3,5.3,1.1l0.4-5C55.3,0.3,53,0,50.7,0c-4.8,0-10.5,1.6-10.5,7.4c0,8.8,11.4,5.9,11.4,10.4
			c0,1.9-1.9,2.3-4,2.3c-2.7,0-5-0.7-6.6-1.6L40.4,23.9L40.4,23.9z M61.3,24.5h6.4V0.4h-6.4V24.5L61.3,24.5z M93.7,10.4h-10V15h3.8
			v4.8c-0.6,0.3-1.4,0.4-2.3,0.4c-4.7,0-8-2.9-8-7.6c0-5.6,4.3-7.8,9.5-7.8c1.5,0,3.9,0.4,5.9,1.6l0.5-5.2C90.7,0.2,87.4,0,85.8,0
			C77,0,70.6,3.5,70.6,12.6c0,9.1,7.4,12.4,13.8,12.4c2.2,0,5.2-0.1,9.3-1.1V10.4L93.7,10.4z M97.3,24.5h6.4V14.2h7.6v10.3h6.4V0.4
			h-6.4v9.2h-7.6V0.4h-6.4V24.5L97.3,24.5z M125.3,24.5h6.4V5.2h5.9V0.4h-18.3v4.8h5.9V24.5L125.3,24.5z M155,24.5h7.9l8.2-24.1
			h-6.6l-5.4,18.9h-0.1l-5.4-18.9H147L155,24.5L155,24.5z M168.2,24.5h6.5l1.9-5.1h9l1.8,5.1h7l-9.3-24.1h-7.9L168.2,24.5
			L168.2,24.5z M184.1,14.8h-6l3.1-9.4h0.1L184.1,14.8L184.1,14.8z M215.1,18.9c-1.8,0.7-3.9,1.2-6,1.2c-4.7,0-8-2.9-8-7.6
			c0-4.5,3-7.8,7.5-7.8c2.2,0,4.2,0.6,6.3,1.7l0.5-5.2C213,0.6,210.6,0,208.2,0c-7.9,0-13.8,4.2-13.8,12.6c0,9.1,7.4,12.4,13.8,12.4
			c3.3,0,5.3-0.5,7.1-1L215.1,18.9L215.1,18.9z M217.4,24.5h6.5l1.9-5.1h9l1.8,5.1h7l-9.3-24.1h-7.9L217.4,24.5L217.4,24.5z
			 M233.3,14.8h-6l3.1-9.4h0.1L233.3,14.8L233.3,14.8z M247,24.5h6.4V5.2h5.9V0.4H241v4.8h5.9V24.5L247,24.5z M261.3,24.5h6.4V0.4
			h-6.4V24.5L261.3,24.5z M270.6,12.5c0,7.7,4.2,12.5,12.1,12.5s12.1-4.8,12.1-12.5c0-7.7-4.1-12.5-12.1-12.5S270.6,4.7,270.6,12.5
			L270.6,12.5z M277.2,12.5c0-4.2,1.6-7.7,5.5-7.7s5.5,3.5,5.5,7.7c0,4-1.6,7.7-5.5,7.7S277.2,16.4,277.2,12.5L277.2,12.5z
			 M297.4,24.5h5.9L303.1,8h0.1l8.4,16.5h8V0.4h-5.9l0.1,16.4h-0.1l-8.1-16.4h-8.2V24.5L297.4,24.5z M322.6,23.9
			c2.1,0.7,4.9,1,7.2,1c5.4,0,10.6-1.7,10.6-7.9c0-8.7-11.4-6.1-11.4-10c0-2.1,2.7-2.2,4.3-2.2c1.8,0,3.7,0.3,5.3,1.1l0.4-5
			c-1.6-0.6-3.9-0.9-6.2-0.9c-4.8,0-10.5,1.6-10.5,7.4c0,8.8,11.4,5.9,11.4,10.4c0,1.9-1.9,2.3-4,2.3c-2.7,0-5-0.7-6.6-1.6
			L322.6,23.9L322.6,23.9z"/>
	</g>
</g>
</svg>
