<?xml version="1.0" encoding="utf-8"?>
<!-- Generator: Adobe Illustrator 22.0.1, SVG Export Plug-In . SVG Version: 6.00 Build 0)  -->
<svg version="1.1" id="Layer_1" xmlns="http://www.w3.org/2000/svg" xmlns:xlink="http://www.w3.org/1999/xlink" x="0px" y="0px"
	 viewBox="0 0 283.3 105.6" enable-background="new 0 0 283.3 105.6" xml:space="preserve">
<g>
	<g>
		<path fill="#FFFFFF" d="M42.8,102.1C19.2,102.1,0,82.8,0,59.2c0-9.8,3.4-19.4,9.6-27.1L9.8,32c0.2-0.2,16-17.3,33.3-32l5.2,6.1
			C31.9,19.9,17,36,15.7,37.3C10.8,43.5,8,51.3,8,59.2c0,19.2,15.6,34.8,34.8,34.8c19.2,0,34.8-15.6,34.8-34.8
			c0-10.6-4.6-19.2-16-29.4l5.3-6c9.2,8.3,18.7,19,18.7,35.3C85.7,82.8,66.5,102.1,42.8,102.1z"/>
	</g>
	<g>
		<path fill="#FFFFFF" d="M42.7,84.9c-14.3,0-25.9-11.6-25.9-25.9c0-6.9,2.9-13.4,8.4-19C26,39.1,45,20.2,54.9,11.8l4.9,5.8
			c-9.6,8.2-29.1,27.5-29.3,27.7c-4,4.1-6.2,8.8-6.2,13.6c0,10.1,8.2,18.3,18.3,18.3C52.8,77.3,61,69,61,58.9
			c0-6-4.1-11.1-10.6-17.5l5.3-5.5c6.3,6.1,13,13.4,13,22.9C68.6,73.2,57,84.9,42.7,84.9z"/>
	</g>
	<path fill="#FFFFFF" d="M53,58.6c0,5.6-4.6,10.2-10.2,10.2c-5.6,0-10.2-4.6-10.2-10.2c0-5.6,4.6-10.2,10.2-10.2
		C48.4,48.4,53,52.9,53,58.6z"/>
	<g>
		<path fill="#FFFFFF" d="M114,25.6c-0.1,0.5-0.4,0.6-0.9,0.6h-5.4v16.9c0,0.6-0.1,0.7-0.6,0.7h-2.6c-0.5,0-0.6-0.1-0.6-0.7v-17
			h-5.6c-0.5,0-0.7-0.2-0.7-0.7v-1.8c0-0.4,0.2-0.6,0.7-0.6h15.2c0.8,0,1,0.2,0.9,0.8L114,25.6z"/>
		<path fill="#FFFFFF" d="M132.6,43.9h-2.7c-0.5,0-0.9-0.1-1.2-0.6l-4.3-7H122v6.9c0,0.5-0.2,0.8-0.7,0.8h-2.5
			c-0.5,0-0.7-0.2-0.7-0.8V24c0-0.7,0.2-0.9,0.8-0.9h4.4c2.6,0,5.4,0.4,7,2.2c1,1.1,1.4,2.6,1.4,4.2c0,2.8-1.5,4.9-3.9,6l4.9,7.6
			c0.1,0.1,0.2,0.3,0.2,0.4C133,43.8,132.8,43.9,132.6,43.9z M123.5,26.1H122v7.3h1.9c2.4,0,4-1.3,4-3.7
			C127.9,27,126.1,26.1,123.5,26.1z"/>
		<path fill="#FFFFFF" d="M149.9,43.2c0,0.5-0.2,0.7-0.7,0.7H138c-0.6,0-0.8-0.1-0.8-0.8V23.9c0-0.5,0.2-0.8,0.7-0.8h11.3
			c0.6,0,0.7,0.3,0.6,0.7l-0.2,1.8c-0.1,0.5-0.4,0.6-1,0.6h-7.5v5.4h6.9c0.6,0,0.8,0.2,0.8,0.7V34c0,0.5-0.2,0.7-0.7,0.7h-7v6h8
			c0.5,0,0.8,0.2,0.8,0.7V43.2z"/>
		<path fill="#FFFFFF" d="M156.5,43.9h-2.7c-0.3,0-0.4-0.1-0.4-0.4c0-0.1,0-0.2,0.1-0.3l7.3-19.4c0.1-0.4,0.4-0.6,0.8-0.6h2.4
			c0.5,0,0.7,0.2,0.8,0.5l7.3,19.3c0.1,0.1,0.1,0.3,0.1,0.4c0,0.3-0.2,0.5-0.5,0.5H169c-0.6,0-0.8-0.2-1-0.7l-1.6-4.4h-7.6l-1.6,4.5
			C157.2,43.6,157,43.9,156.5,43.9z M165.4,35.8l-2.1-6.3c-0.3-0.8-0.5-1.5-0.6-1.9h-0.1c-0.2,0.5-0.3,1.1-0.6,2l-2.1,6.3H165.4z"/>
		<path fill="#FFFFFF" d="M190.3,41.6c-1.9,1.6-4.5,2.3-7.4,2.3h-5.7c-0.6,0-0.9-0.1-0.9-0.8V24c0-0.6,0.2-0.9,0.9-0.9h4.3
			c3.4,0,5.8,0.4,7.8,1.5c2.7,1.6,4.3,4.5,4.3,8.9C193.5,37.2,192.3,39.9,190.3,41.6z M187,27.6c-1.2-0.9-2.8-1.2-4.7-1.2h-2.2v14.2
			h2.3c2.1,0,3.8-0.3,5.1-1.6c1.2-1.2,1.9-3,1.9-5.5C189.4,30.8,188.6,28.8,187,27.6z"/>
		<path fill="#FFFFFF" d="M204.7,35h-3.2v8.3c0,0.4-0.2,0.5-0.5,0.5h-1.1c-0.3,0-0.5-0.2-0.5-0.5V23.8c0-0.4,0.2-0.5,0.5-0.5h4.2
			c4.4,0,7.1,1.7,7.1,5.9c0,3-2,4.9-4.4,5.6l4.9,8.6c0.2,0.3,0.2,0.5-0.2,0.5h-1.3c-0.4,0-0.6-0.1-0.8-0.5L204.7,35z M203.6,24.9
			h-2.2v8.5h2.6c2.8,0,4.9-1.5,4.9-4.3C208.9,26,207,24.9,203.6,24.9z"/>
		<path fill="#FFFFFF" d="M223.2,43.5c0,0.3,0,0.4-0.3,0.4h-5.9c-0.3,0-0.4-0.1-0.4-0.4v-0.8c0-0.2,0-0.3,0.4-0.3h1.9V24.7h-2
			c-0.3,0-0.4,0-0.4-0.3v-0.8c0-0.3,0.1-0.4,0.3-0.4h6c0.4,0,0.4,0.1,0.4,0.3v0.8c0,0.4-0.1,0.4-0.4,0.4h-1.9v17.6h1.9
			c0.3,0,0.4,0.1,0.4,0.3V43.5z"/>
		<path fill="#FFFFFF" d="M242.9,41.7c0,0.7,0,0.8-0.6,1.1c-1.4,0.8-3.6,1.4-5.4,1.4c-6.7,0-9.6-4.4-9.6-10.6c0-6,3.6-10.6,10-10.6
			c1.3,0,3.2,0.3,4.7,0.9c0.4,0.1,0.4,0.2,0.3,0.5l-0.2,0.8c-0.1,0.4-0.3,0.4-0.6,0.2c-1.2-0.5-3-0.8-4.1-0.8
			c-5.3,0-7.7,4.2-7.7,8.9c0,4.4,1.9,9.1,7.1,9.1c1.4,0,2.8-0.2,4.1-0.9v-7.9h-3.4c-0.4,0-0.5,0-0.5-0.5v-0.8c0-0.3,0.1-0.4,0.4-0.4
			h5.1c0.4,0,0.5,0.1,0.5,0.5V41.7z"/>
		<path fill="#FFFFFF" d="M263.7,43.3c0,0.4-0.1,0.5-0.5,0.5h-1.1c-0.3,0-0.5-0.2-0.5-0.5v-9.6h-10.4v9.6c0,0.4-0.2,0.5-0.5,0.5
			h-1.1c-0.3,0-0.5-0.2-0.5-0.5V23.8c0-0.4,0.2-0.5,0.5-0.5h1.1c0.3,0,0.5,0.2,0.5,0.5v8.3h10.4v-8.3c0-0.4,0.2-0.5,0.5-0.5h1.1
			c0.3,0,0.5,0.2,0.5,0.5V43.3z"/>
		<path fill="#FFFFFF" d="M283.3,23.6l-0.2,0.9c-0.1,0.4-0.3,0.4-0.6,0.4h-5.8v18.4c0,0.4-0.2,0.5-0.5,0.5h-1.1
			c-0.3,0-0.5-0.2-0.5-0.5V24.9h-5.9c-0.3,0-0.4,0-0.4-0.3v-0.9c0-0.3,0.1-0.4,0.3-0.4h14.2C283.2,23.3,283.3,23.4,283.3,23.6z"/>
		<path fill="#FFFFFF" d="M104.8,56.7h-4.2v3.5h3.8c0.2,0,0.3,0.1,0.3,0.3v0.6c0,0.2-0.1,0.3-0.3,0.3h-3.8v4.9
			c0,0.3-0.1,0.3-0.3,0.3h-0.8c-0.3,0-0.3,0-0.3-0.4V55.9c0-0.2,0.1-0.3,0.3-0.3h5.6c0.2,0,0.3,0.1,0.3,0.3l-0.1,0.6
			C105.2,56.7,105,56.7,104.8,56.7z"/>
		<path fill="#FFFFFF" d="M111.4,66.8c-2.9,0-4.5-2.1-4.5-5.6c0-3.5,1.9-5.7,4.7-5.7c2.9,0,4.6,2.3,4.6,5.6
			C116.2,64.7,114.1,66.8,111.4,66.8z M111.6,56.6c-1.8,0-3.1,1.8-3.1,4.5c0,2.8,1.1,4.5,3,4.5c1.8,0,3.1-1.7,3.1-4.5
			C114.6,58.3,113.5,56.6,111.6,56.6z"/>
		<path fill="#FFFFFF" d="M127.3,61.8c0,2.9-1.2,5-4.4,5c-3.5,0-4.4-2-4.4-5.1v-5.8c0-0.2,0.1-0.3,0.3-0.3h0.9
			c0.2,0,0.3,0.1,0.3,0.3v5.7c0,2.1,0.3,4,2.9,4c2.6,0,2.9-1.9,2.9-4v-5.6c0-0.2,0.1-0.3,0.3-0.3h0.9c0.2,0,0.3,0.1,0.3,0.3V61.8z"
			/>
		<path fill="#FFFFFF" d="M138.9,66.3c0,0.3-0.1,0.3-0.3,0.3h-0.7c-0.2,0-0.3-0.1-0.5-0.3l-5.8-8.1h0v8.1c0,0.2-0.1,0.3-0.3,0.3
			h-0.7c-0.2,0-0.3-0.1-0.3-0.3V55.9c0-0.2,0.1-0.3,0.3-0.3h0.6c0.2,0,0.3,0,0.4,0.2l5.9,8.3h0v-8.2c0-0.3,0.1-0.3,0.3-0.3h0.8
			c0.2,0,0.3,0.1,0.3,0.3V66.3z"/>
		<path fill="#FFFFFF" d="M149,65.4c-0.9,0.8-2.3,1.2-3.9,1.2h-2.8c-0.3,0-0.4-0.1-0.4-0.4V56c0-0.3,0.1-0.4,0.5-0.4h2
			c2,0,3.1,0.2,4.1,0.8c1.4,0.8,2.2,2.5,2.2,4.8C150.6,63,150,64.5,149,65.4z M147.7,57.5c-0.8-0.6-1.7-0.8-2.8-0.8h-1.5v8.6h1.4
			c1.4,0,2.4-0.1,3.2-0.9c0.8-0.8,1.2-2,1.2-3.4C149,59.6,148.6,58.3,147.7,57.5z"/>
		<path fill="#FFFFFF" d="M159.4,66.3l-1.1-3h-4.1l-1.1,3c-0.1,0.2-0.1,0.3-0.4,0.3h-0.9c-0.2,0-0.2-0.2-0.1-0.3l4-10.5
			c0-0.1,0.1-0.2,0.3-0.2h0.8c0.1,0,0.2,0.1,0.3,0.2l4,10.5c0.1,0.2,0.1,0.3-0.2,0.3h-1C159.5,66.6,159.5,66.6,159.4,66.3z
			 M157.9,62.2l-1.3-3.7c-0.2-0.6-0.3-0.9-0.4-1.1h0c-0.1,0.3-0.2,0.6-0.4,1.2l-1.3,3.6H157.9z"/>
		<path fill="#FFFFFF" d="M165.6,66.3c0,0.2-0.1,0.3-0.3,0.3h-0.9c-0.2,0-0.3-0.1-0.3-0.3v-9.5h-3.1c-0.2,0-0.3-0.1-0.3-0.3v-0.7
			c0-0.2,0.1-0.2,0.2-0.2h7.8c0.2,0,0.3,0.1,0.3,0.3l-0.1,0.7c0,0.2-0.2,0.3-0.4,0.3h-3V66.3z"/>
		<path fill="#FFFFFF" d="M174.9,56.3c0,0.2-0.1,0.3-0.3,0.3h-1v9h1c0.2,0,0.3,0.1,0.3,0.2v0.5c0,0.2,0,0.3-0.2,0.3h-3.4
			c-0.2,0-0.2-0.1-0.2-0.2v-0.5c0-0.2,0-0.2,0.2-0.2h1v-9h-1c-0.2,0-0.2,0-0.2-0.2v-0.5c0-0.2,0.1-0.2,0.2-0.2h3.5
			c0.2,0,0.3,0.1,0.3,0.2V56.3z"/>
		<path fill="#FFFFFF" d="M181.3,66.8c-2.9,0-4.5-2.1-4.5-5.6c0-3.5,1.9-5.7,4.7-5.7c2.9,0,4.6,2.3,4.6,5.6
			C186,64.7,184,66.8,181.3,66.8z M181.4,56.6c-1.8,0-3.1,1.8-3.1,4.5c0,2.8,1.1,4.5,3,4.5c1.8,0,3.1-1.7,3.1-4.5
			C184.4,58.3,183.4,56.6,181.4,56.6z"/>
		<path fill="#FFFFFF" d="M197.1,66.3c0,0.3-0.1,0.3-0.3,0.3h-0.7c-0.2,0-0.3-0.1-0.5-0.3l-5.8-8.1h0v8.1c0,0.2-0.1,0.3-0.3,0.3
			h-0.7c-0.2,0-0.3-0.1-0.3-0.3V55.9c0-0.2,0.1-0.3,0.3-0.3h0.6c0.2,0,0.3,0,0.4,0.2l5.9,8.3h0v-8.2c0-0.3,0.1-0.3,0.3-0.3h0.8
			c0.2,0,0.3,0.1,0.3,0.3V66.3z"/>
	</g>
	<g>
		<path fill="#FFFFFF" d="M104.5,102c0,0.2-0.1,0.3-0.3,0.3h-0.9c-0.2,0-0.3-0.1-0.3-0.3v-8.9h-2.9c-0.2,0-0.2-0.1-0.2-0.2v-0.6
			c0-0.2,0.1-0.2,0.2-0.2h7.3c0.2,0,0.3,0.1,0.2,0.2l-0.1,0.6c0,0.2-0.2,0.2-0.4,0.2h-2.8V102z"/>
		<path fill="#FFFFFF" d="M110.1,95.3l0,0.5c0.4-0.5,0.9-0.9,1.7-0.9c0.1,0,0.3,0,0.4,0c0.1,0,0.1,0.2,0.1,0.3l-0.1,0.7
			c0,0.1-0.1,0.1-0.2,0.1c-0.1,0-0.2,0-0.5,0c-0.5,0-1.1,0.3-1.5,0.9v5.1c0,0.2-0.1,0.3-0.3,0.3h-0.7c-0.2,0-0.3-0.1-0.3-0.3v-6.6
			c0-0.2,0.1-0.3,0.3-0.3h0.6C110,95.1,110.1,95.1,110.1,95.3z"/>
		<path fill="#FFFFFF" d="M120.4,98.5c0,0.3-0.1,0.4-0.4,0.4h-4.6c0,1.4,0.9,2.5,2.4,2.5c0.6,0,1.3-0.1,1.8-0.3
			c0.1,0,0.3-0.1,0.3,0.1l0.2,0.6c0,0.1,0,0.2-0.2,0.3c-0.6,0.3-1.6,0.4-2.3,0.4c-2.3,0-3.5-1.5-3.5-3.8c0-2.1,1.3-3.8,3.5-3.8
			c0.9,0,1.5,0.3,2,0.8c0.6,0.6,0.9,1.5,0.9,2.5V98.5z M119.2,98v-0.2c0-1-0.6-1.9-1.7-1.9c-1.2,0-2,1-2.1,2.1H119.2z"/>
		<path fill="#FFFFFF" d="M129.7,102.1c0,0.1-0.1,0.2-0.2,0.2h-0.6c-0.7,0-1-0.5-1-1.1h0c-0.3,0.7-1.3,1.3-2.3,1.3
			c-2.1,0-3-1.8-3-3.6c0-2.5,1.5-3.9,3.2-3.9c0.8,0,1.6,0.3,2,0.9l0-0.5c0-0.2,0.1-0.3,0.3-0.3h0.7c0.2,0,0.3,0.1,0.3,0.3v5.2
			c0,0.3,0,0.6,0.1,0.7c0.1,0.1,0.1,0.1,0.3,0.1h0.1c0.1,0,0.2,0,0.2,0.2V102.1z M127.8,97c-0.4-0.7-1.1-1.1-1.8-1.1
			c-1.2,0-2,1-2,2.8c0,1.6,0.8,2.7,1.8,2.7c1,0,1.7-0.8,2-1.5V97z"/>
		<path fill="#FFFFFF" d="M138.3,102c0,0.2-0.1,0.3-0.2,0.3h-0.6c-0.2,0-0.3-0.1-0.3-0.3l0-0.5c-0.5,0.6-1.3,1-2.2,1
			c-2.2,0-3.1-1.8-3.1-3.7c0-2.2,1.3-3.8,3.3-3.8c0.7,0,1.5,0.3,1.9,0.8v-3.7c0-0.2,0-0.3,0.2-0.3c0.8-0.1,0.8-0.1,0.8-0.1
			c0.1,0,0.2,0.1,0.2,0.3V102z M137,97c-0.3-0.6-1-1-1.8-1c-1.3,0-2.1,1.1-2.1,2.8c0,1.6,0.7,2.8,2,2.8c0.7,0,1.5-0.4,1.9-1V97z"/>
		<path fill="#FFFFFF" d="M144.4,98.1h-1.4v3.9c0,0.2-0.1,0.3-0.3,0.3h-0.8c-0.2,0-0.3-0.1-0.3-0.3v-9.7c0-0.2,0.1-0.3,0.3-0.3h2.2
			c1.4,0,2.5,0.3,3.2,1.1c0.4,0.5,0.6,1.2,0.6,1.9c0,1.4-0.9,2.5-2.1,2.9l0,0l2.4,4.1c0.1,0.1,0.1,0.3-0.1,0.3h-0.9
			c-0.2,0-0.4-0.1-0.5-0.3L144.4,98.1z M143.9,93h-1v4h1.2c1.3,0,2.3-0.7,2.3-2C146.4,93.5,145.4,93,143.9,93z"/>
		<path fill="#FFFFFF" d="M151.4,94c-0.4,0-0.8-0.3-0.8-0.7c0-0.4,0.4-0.7,0.8-0.7c0.4,0,0.8,0.3,0.8,0.7
			C152.2,93.7,151.8,94,151.4,94z M152.1,102c0,0.2-0.1,0.3-0.3,0.3h-0.7c-0.2,0-0.3-0.1-0.3-0.3v-6.6c0-0.2,0.1-0.3,0.3-0.3h0.7
			c0.2,0,0.3,0.1,0.3,0.3V102z"/>
		<path fill="#FFFFFF" d="M157.9,105.6c-0.7,0-1.5-0.2-2.1-0.5c-0.1-0.1-0.2-0.1-0.2-0.2c0,0,0-0.1,0-0.1l0.2-0.5
			c0-0.1,0.1-0.2,0.2-0.2c0,0,0.1,0,0.1,0c0.5,0.2,1.2,0.5,1.7,0.5c1.7,0,2.1-0.9,2.1-2.4v-0.7c-0.5,0.5-1.4,0.9-2.1,0.9
			c-2.1,0-3.1-1.6-3.1-3.6c0-2,1.1-3.8,3.3-3.8c0.7,0,1.5,0.3,2,0.9l0-0.5c0-0.2,0.1-0.3,0.3-0.3h0.7c0.2,0,0.3,0.1,0.3,0.3v6.6
			C161.3,104.2,160.3,105.6,157.9,105.6z M160,97c-0.3-0.6-1.1-1-1.8-1c-1.5,0-2.1,1.3-2.1,2.7c0,1.3,0.5,2.7,2,2.7
			c0.7,0,1.6-0.4,1.9-0.9V97z"/>
		<path fill="#FFFFFF" d="M170.4,102c0,0.2-0.1,0.3-0.2,0.3h-0.8c-0.2,0-0.3-0.1-0.3-0.3v-4.2c0-1.1-0.3-1.8-1.5-1.8
			c-0.7,0-1.6,0.4-2.1,0.9v5.2c0,0.2-0.1,0.3-0.3,0.3h-0.8c-0.2,0-0.2-0.1-0.2-0.3v-10c0-0.2,0.1-0.3,0.3-0.3
			c0.6-0.1,0.7-0.1,0.8-0.1c0.1,0,0.2,0.1,0.2,0.3v3.9c0.7-0.6,1.6-0.9,2.5-0.9c1.7,0,2.4,1,2.4,2.7V102z"/>
		<path fill="#FFFFFF" d="M176,101.5c0.3,0,0.7-0.1,0.9-0.2c0.1,0,0.2,0,0.3,0.1l0.1,0.5c0,0.1,0,0.2-0.2,0.3
			c-0.3,0.1-0.9,0.3-1.4,0.3c-0.6,0-1.3-0.2-1.6-0.6c-0.4-0.5-0.5-1.1-0.5-2V96h-0.8c-0.2,0-0.2,0-0.2-0.2v-0.5
			c0-0.1,0.1-0.2,0.2-0.2h0.9v-1.7c0-0.2,0.1-0.3,0.3-0.3l0.7-0.1c0,0,0,0,0.1,0c0.1,0,0.2,0.1,0.2,0.3v1.8h1.8c0.1,0,0.2,0,0.2,0.2
			v0.5c0,0.1-0.1,0.2-0.2,0.2h-1.8v4c0,0.5,0,0.9,0.3,1.1C175.4,101.3,175.6,101.5,176,101.5z"/>
		<path fill="#FFFFFF" d="M180.5,102.5c-0.5,0-0.9-0.3-0.9-0.8c0-0.5,0.4-0.8,0.9-0.8c0.5,0,0.9,0.3,0.9,0.8
			C181.4,102.1,180.9,102.5,180.5,102.5z"/>
		<path fill="#FFFFFF" d="M186.9,102.5c-2.3,0-3.4-1.6-3.4-3.8c0-2.1,1.2-3.8,3.5-3.8c2.3,0,3.4,1.6,3.4,3.8
			C190.4,100.8,189.2,102.5,186.9,102.5z M187,95.9c-1.6,0-2.1,1.4-2.1,2.7c0,1.4,0.5,2.8,2.1,2.8c1.6,0,2.1-1.4,2.1-2.8
			C189.1,97.3,188.6,95.9,187,95.9z"/>
		<path fill="#FFFFFF" d="M194.3,95.3l0,0.5c0.4-0.5,0.9-0.9,1.7-0.9c0.1,0,0.3,0,0.4,0c0.1,0,0.1,0.2,0.1,0.3l-0.1,0.7
			c0,0.1-0.1,0.1-0.2,0.1c-0.1,0-0.2,0-0.5,0c-0.5,0-1.1,0.3-1.5,0.9v5.1c0,0.2-0.1,0.3-0.3,0.3h-0.7c-0.2,0-0.3-0.1-0.3-0.3v-6.6
			c0-0.2,0.1-0.3,0.3-0.3h0.6C194.2,95.1,194.3,95.1,194.3,95.3z"/>
		<path fill="#FFFFFF" d="M201.4,105.6c-0.7,0-1.5-0.2-2.1-0.5c-0.1-0.1-0.2-0.1-0.2-0.2c0,0,0-0.1,0-0.1l0.2-0.5
			c0-0.1,0.1-0.2,0.2-0.2c0,0,0.1,0,0.1,0c0.5,0.2,1.2,0.5,1.7,0.5c1.7,0,2.1-0.9,2.1-2.4v-0.7c-0.5,0.5-1.4,0.9-2.1,0.9
			c-2.1,0-3.1-1.6-3.1-3.6c0-2,1.1-3.8,3.3-3.8c0.7,0,1.5,0.3,2,0.9l0-0.5c0-0.2,0.1-0.3,0.3-0.3h0.7c0.2,0,0.3,0.1,0.3,0.3v6.6
			C204.8,104.2,203.8,105.6,201.4,105.6z M203.5,97c-0.3-0.6-1.1-1-1.8-1c-1.5,0-2.1,1.3-2.1,2.7c0,1.3,0.5,2.7,2,2.7
			c0.7,0,1.6-0.4,1.9-0.9V97z"/>
	</g>
	<g>
		<rect x="99.7" y="79.1" fill="#FFFFFF" width="25.5" height="2.4"/>
	</g>
</g>
</svg>
