<?xml version="1.0" encoding="utf-8"?>
<!-- Generator: Adobe Illustrator 22.0.1, SVG Export Plug-In . SVG Version: 6.00 Build 0)  -->
<svg version="1.1" id="Layer_1" xmlns="http://www.w3.org/2000/svg" xmlns:xlink="http://www.w3.org/1999/xlink" x="0px" y="0px"
	 viewBox="0 0 448.5 541.1" enable-background="new 0 0 448.5 541.1" xml:space="preserve">
<g>
	<path fill="#FFFFFF" d="M435,504.2c0-4.8,0-5.7-0.1-6.8c-0.1-1.1-0.3-1.6-1.4-1.8c-0.3-0.1-0.8-0.1-1.2-0.1c-0.4,0-0.5-0.1-0.5-0.3
		c0-0.2,0.2-0.3,0.7-0.3c0.9,0,1.8,0,2.6,0c0.8,0,1.6,0.1,2,0.1c1,0,7.4,0,8,0c0.6-0.1,1.1-0.1,1.4-0.2c0.2,0,0.4-0.1,0.5-0.1
		c0.2,0,0.2,0.1,0.2,0.3c0,0.2-0.2,0.6-0.3,2.1c0,0.3-0.1,1.7-0.2,2.1c0,0.2-0.1,0.4-0.3,0.4c-0.2,0-0.3-0.2-0.3-0.4
		c0-0.2,0-0.8-0.2-1.1c-0.2-0.6-0.5-1-2.1-1.1c-0.5-0.1-3.9-0.1-4.5-0.1c-0.2,0-0.2,0.1-0.2,0.3v8.1c0,0.2,0,0.4,0.2,0.4
		c0.7,0,4.4,0,5.1-0.1c0.8-0.1,1.2-0.2,1.5-0.5c0.2-0.3,0.4-0.4,0.5-0.4c0.1,0,0.2,0.1,0.2,0.3c0,0.2-0.1,0.7-0.3,2.3
		c0,0.6-0.1,1.9-0.1,2.1c0,0.3,0,0.6-0.3,0.6c-0.2,0-0.3-0.1-0.3-0.3c0-0.3,0-0.7-0.1-1.1c-0.2-0.6-0.6-1.1-1.8-1.2
		c-0.6-0.1-3.8-0.1-4.5-0.1c-0.2,0-0.2,0.1-0.2,0.3v2.5c0,1.1,0,4,0,4.9c0.1,2.2,0.6,2.7,3.8,2.7c0.8,0,2.2,0,3-0.4
		c0.8-0.4,1.2-1.1,1.4-2.4c0.1-0.4,0.1-0.5,0.4-0.5c0.3,0,0.3,0.3,0.3,0.6c0,0.7-0.3,2.9-0.4,3.5c-0.2,0.8-0.5,0.8-1.7,0.8
		c-2.4,0-4.1-0.1-5.5-0.1c-1.4-0.1-2.4-0.1-3.3-0.1c-0.4,0-1.1,0-1.8,0c-0.7,0-1.6,0.1-2.2,0.1c-0.4,0-0.6-0.1-0.6-0.3
		c0-0.2,0.1-0.3,0.5-0.3c0.5,0,0.9-0.1,1.1-0.1c0.6-0.1,0.8-0.8,0.9-1.8c0.2-1.3,0.2-3.9,0.2-6.8V504.2z"/>
	<path fill="#FFFFFF" d="M8.6,507.7c0,3.4,0,5.8,0.1,6.4c0,0.8,0.1,2.1,0.3,2.4c0.4,0.6,1.7,1.3,4.2,1.3c3.3,0,5.4-0.6,7.3-2.3
		c2-1.8,2.7-4.7,2.7-7.9c0-4-1.7-6.7-3.1-8c-2.9-2.8-6.6-3.2-9.1-3.2c-0.6,0-1.8,0.1-2.1,0.2c-0.3,0.1-0.4,0.3-0.4,0.6
		c0,1.1,0,3.9,0,6.4V507.7z M4.6,504.2c0-4.8,0-5.7-0.1-6.8c-0.1-1.1-0.3-1.6-1.4-1.8c-0.3-0.1-0.8-0.1-1.2-0.1
		c-0.4,0-0.5-0.1-0.5-0.3c0-0.2,0.2-0.3,0.7-0.3c1.7,0,3.7,0.1,4.6,0.1c1,0,3-0.1,4.9-0.1c4,0,9.3,0,12.8,3.6
		c1.6,1.7,3.1,4.3,3.1,8.1c0,4-1.7,7.1-3.5,8.9c-1.5,1.5-4.8,3.8-10.7,3.8c-1.1,0-2.5-0.1-3.7-0.2c-1.2-0.1-2.3-0.2-3.1-0.2
		c-0.4,0-1.1,0-1.8,0c-0.7,0-1.6,0.1-2.2,0.1c-0.4,0-0.6-0.1-0.6-0.3c0-0.2,0.1-0.3,0.5-0.3c0.5,0,0.9-0.1,1.1-0.1
		c0.6-0.1,0.8-0.8,0.9-1.8c0.2-1.3,0.2-3.9,0.2-6.8V504.2z"/>
	<path fill="#FFFFFF" d="M44.3,506.8c0,0.4,0.1,0.5,0.3,0.6c0.7,0.2,1.6,0.3,2.4,0.3c1.3,0,1.7-0.1,2.3-0.5c1-0.7,1.9-2.2,1.9-4.8
		c0-4.5-3-5.8-4.9-5.8c-0.8,0-1.4,0-1.7,0.1c-0.2,0.1-0.3,0.2-0.3,0.4V506.8z M40.5,504.2c0-4.8,0-5.7-0.1-6.8
		c-0.1-1.1-0.3-1.6-1.4-1.8c-0.3-0.1-0.8-0.1-1.2-0.1c-0.4,0-0.5-0.1-0.5-0.3c0-0.2,0.2-0.3,0.7-0.3c1.7,0,3.7,0.1,4.4,0.1
		c1.1,0,3.5-0.1,4.5-0.1c2,0,4.1,0.2,5.9,1.4c0.9,0.6,2.2,2.2,2.2,4.4c0,2.4-1,4.5-4.2,7.1c2.8,3.6,5,6.4,6.9,8.4
		c1.8,1.9,3.1,2.1,3.6,2.2c0.4,0.1,0.6,0.1,0.9,0.1s0.4,0.1,0.4,0.3c0,0.3-0.2,0.3-0.6,0.3h-3c-1.8,0-2.6-0.2-3.4-0.6
		c-1.4-0.7-2.6-2.2-4.4-4.7c-1.3-1.8-2.7-3.9-3.2-4.4c-0.2-0.2-0.4-0.2-0.6-0.2l-2.8-0.1c-0.2,0-0.3,0.1-0.3,0.3v0.4
		c0,3,0,5.5,0.2,6.8c0.1,0.9,0.3,1.6,1.2,1.8c0.5,0.1,1.2,0.1,1.6,0.1c0.3,0,0.4,0.1,0.4,0.3c0,0.2-0.2,0.3-0.6,0.3
		c-1.9,0-4.2-0.1-4.7-0.1c-0.6,0-2.6,0.1-3.9,0.1c-0.4,0-0.6-0.1-0.6-0.3c0-0.2,0.1-0.3,0.5-0.3c0.5,0,0.9-0.1,1.1-0.1
		c0.6-0.1,0.8-0.8,0.9-1.8c0.2-1.3,0.2-3.9,0.2-6.8V504.2z"/>
	<path fill="#FFFFFF" d="M70.6,504.2c0-4.8,0-5.7-0.1-6.8c-0.1-1.1-0.4-1.6-1.1-1.8c-0.4-0.1-0.8-0.1-1.1-0.1
		c-0.3,0-0.5-0.1-0.5-0.3c0-0.2,0.3-0.3,0.8-0.3c1.2,0,3.2,0.1,4.1,0.1c0.8,0,2.7-0.1,3.9-0.1c0.4,0,0.7,0.1,0.7,0.3
		c0,0.3-0.2,0.3-0.5,0.3s-0.6,0-1,0.1c-0.9,0.2-1.1,0.7-1.2,1.8c-0.1,1-0.1,1.9-0.1,6.8v5.6c0,3.1,0,5.6,0.1,7
		c0.1,0.9,0.3,1.4,1.3,1.6c0.4,0.1,1.1,0.1,1.6,0.1c0.4,0,0.5,0.1,0.5,0.3c0,0.2-0.3,0.3-0.6,0.3c-2.1,0-4.1-0.1-5-0.1
		c-0.7,0-2.7,0.1-4,0.1c-0.4,0-0.6-0.1-0.6-0.3c0-0.2,0.1-0.3,0.5-0.3c0.5,0,0.9-0.1,1.1-0.1c0.6-0.1,0.8-0.7,0.9-1.6
		c0.2-1.3,0.2-3.9,0.2-7V504.2z"/>
	<path fill="#FFFFFF" d="M88.2,498.1c-0.7-1.8-1.3-2.1-2.4-2.4c-0.5-0.1-1-0.1-1.2-0.1c-0.3,0-0.4-0.1-0.4-0.3
		c0-0.3,0.4-0.3,0.8-0.3c1.7,0,3.5,0.1,4.6,0.1c0.8,0,2.3-0.1,3.9-0.1c0.4,0,0.7,0.1,0.7,0.3c0,0.2-0.2,0.3-0.5,0.3
		c-0.5,0-1,0-1.2,0.2c-0.2,0.2-0.3,0.4-0.3,0.7c0,0.4,0.3,1.3,0.7,2.5l5.5,14.5h0.1c1.4-3.5,5.5-13.8,6.3-15.9
		c0.2-0.4,0.3-0.9,0.3-1.2c0-0.3-0.1-0.5-0.4-0.6c-0.4-0.1-0.9-0.2-1.3-0.2c-0.3,0-0.5,0-0.5-0.3c0-0.3,0.3-0.3,0.9-0.3
		c1.6,0,2.9,0.1,3.3,0.1c0.5,0,2-0.1,3-0.1c0.4,0,0.7,0.1,0.7,0.3c0,0.2-0.2,0.3-0.5,0.3c-0.3,0-1,0-1.6,0.4
		c-0.4,0.3-0.9,0.8-1.8,2.9c-1.2,3-2.1,4.7-3.8,8.6c-2,4.7-3.5,8.1-4.2,9.7c-0.8,1.8-1,2.4-1.5,2.4c-0.4,0-0.6-0.4-1.2-1.9
		L88.2,498.1z"/>
	<path fill="#FFFFFF" d="M120.2,504.2c0-4.8,0-5.7-0.1-6.8c-0.1-1.1-0.3-1.6-1.4-1.8c-0.3-0.1-0.8-0.1-1.2-0.1
		c-0.4,0-0.5-0.1-0.5-0.3c0-0.2,0.2-0.3,0.7-0.3c0.9,0,1.8,0,2.6,0c0.8,0,1.6,0.1,2,0.1c1,0,7.4,0,8,0c0.6-0.1,1.1-0.1,1.4-0.2
		c0.2,0,0.4-0.1,0.5-0.1c0.2,0,0.2,0.1,0.2,0.3c0,0.2-0.2,0.6-0.3,2.1c0,0.3-0.1,1.7-0.2,2.1c0,0.2-0.1,0.4-0.3,0.4
		c-0.2,0-0.3-0.2-0.3-0.4c0-0.2,0-0.8-0.2-1.1c-0.2-0.6-0.5-1-2.1-1.1c-0.5-0.1-3.9-0.1-4.5-0.1c-0.2,0-0.2,0.1-0.2,0.3v8.1
		c0,0.2,0,0.4,0.2,0.4c0.7,0,4.4,0,5.1-0.1c0.8-0.1,1.2-0.2,1.5-0.5c0.2-0.3,0.4-0.4,0.5-0.4c0.1,0,0.2,0.1,0.2,0.3
		c0,0.2-0.1,0.7-0.3,2.3c0,0.6-0.1,1.9-0.1,2.1c0,0.3,0,0.6-0.3,0.6c-0.2,0-0.3-0.1-0.3-0.3c0-0.3,0-0.7-0.1-1.1
		c-0.2-0.6-0.6-1.1-1.8-1.2c-0.6-0.1-3.8-0.1-4.5-0.1c-0.2,0-0.2,0.1-0.2,0.3v2.5c0,1.1,0,4,0,4.9c0.1,2.2,0.6,2.7,3.8,2.7
		c0.8,0,2.2,0,3-0.4c0.8-0.4,1.2-1.1,1.4-2.4c0.1-0.4,0.1-0.5,0.4-0.5c0.3,0,0.3,0.3,0.3,0.6c0,0.7-0.3,2.9-0.4,3.5
		c-0.2,0.8-0.5,0.8-1.7,0.8c-2.4,0-4.1-0.1-5.5-0.1c-1.4-0.1-2.4-0.1-3.3-0.1c-0.4,0-1.1,0-1.8,0c-0.7,0-1.6,0.1-2.2,0.1
		c-0.4,0-0.6-0.1-0.6-0.3c0-0.2,0.1-0.3,0.5-0.3c0.5,0,0.9-0.1,1.1-0.1c0.6-0.1,0.8-0.8,0.9-1.8c0.2-1.3,0.2-3.9,0.2-6.8V504.2z"/>
	<path fill="#FFFFFF" d="M148.2,514.8c0.1,2.5,0.5,3.3,1.1,3.5c0.5,0.2,1.1,0.2,1.7,0.2c0.4,0,0.5,0.1,0.5,0.3
		c0,0.3-0.3,0.3-0.7,0.3c-2.1,0-3.3-0.1-4-0.1c-0.3,0-1.8,0.1-3.4,0.1c-0.4,0-0.7,0-0.7-0.3c0-0.2,0.2-0.3,0.5-0.3
		c0.4,0,1,0,1.4-0.2c0.8-0.3,1-1.2,1-4l0.3-18.9c0-0.6,0.1-1.1,0.4-1.1c0.4,0,0.6,0.4,1.2,1c0.4,0.4,5.2,5.6,9.9,10.2
		c2.2,2.2,6.5,6.8,7,7.3h0.2l-0.3-14.3c0-1.9-0.3-2.5-1.1-2.9c-0.5-0.2-1.2-0.2-1.7-0.2c-0.4,0-0.5-0.1-0.5-0.3
		c0-0.3,0.4-0.3,0.8-0.3c1.7,0,3.2,0.1,3.9,0.1c0.4,0,1.6-0.1,3.1-0.1c0.4,0,0.7,0,0.7,0.3c0,0.2-0.2,0.3-0.6,0.3
		c-0.3,0-0.6,0-1,0.1c-0.9,0.3-1.1,0.9-1.2,2.7l-0.4,20.1c0,0.7-0.1,1-0.4,1c-0.4,0-0.7-0.4-1.1-0.7c-2-1.9-6.1-6.1-9.4-9.4
		c-3.5-3.4-7-7.4-7.6-8h-0.1L148.2,514.8z"/>
	<path fill="#FFFFFF" d="M206.4,507.3c-0.7-0.5-1.4-0.7-2.6-0.8c-0.6,0-0.9,0-1.4,0c-0.1,0-0.2,0.1-0.2,0.2v7.6
		c0,2.1,0.1,2.6,1.1,3.1c0.9,0.4,1.6,0.4,2.3,0.4c1.4,0,3.9-0.8,3.9-4.1C209.5,511.7,208.8,509,206.4,507.3 M202.1,504.8
		c0,0.3,0.1,0.3,0.2,0.3c0.3,0.1,0.8,0.1,1.5,0.1c1.1,0,1.8-0.1,2.3-0.6c0.8-0.7,1.3-1.8,1.3-3.4c0-2.1-1.2-4.9-4-4.9
		c-0.4,0-0.7,0-1.1,0.1c-0.2,0.1-0.3,0.2-0.3,0.5V504.8z M198.3,504.2c0-4.8,0-5.7-0.1-6.8c-0.1-1.1-0.3-1.6-1.4-1.8
		c-0.3-0.1-0.8-0.1-1.2-0.1c-0.4,0-0.5-0.1-0.5-0.3c0-0.2,0.2-0.3,0.7-0.3c1.7,0,3.7,0.1,4.3,0.1c1.6,0,2.8-0.1,3.9-0.1
		c5.8,0,6.8,3.1,6.8,4.8c0,2.6-1.5,4.2-3.3,5.6c2.6,0.9,5.8,3.2,5.8,6.9c0,3.4-2.6,7-8.5,7c-0.4,0-1.3-0.1-2.2-0.1
		c-1-0.1-1.9-0.1-2.4-0.1c-0.4,0-1.1,0-1.8,0c-0.7,0-1.6,0.1-2.2,0.1c-0.4,0-0.6-0.1-0.6-0.3c0-0.2,0.1-0.3,0.5-0.3
		c0.5,0,0.9-0.1,1.1-0.1c0.6-0.1,0.8-0.8,0.9-1.8c0.2-1.3,0.2-3.9,0.2-6.8V504.2z"/>
	<path fill="#FFFFFF" d="M230.8,510.8c0-1.7-0.3-2.4-0.7-3.3c-0.2-0.5-4.5-7.5-5.6-9.2c-0.8-1.2-1.6-2-2.2-2.3
		c-0.4-0.2-1-0.4-1.3-0.4c-0.3,0-0.5-0.1-0.5-0.3c0-0.2,0.2-0.3,0.6-0.3c0.6,0,3,0.1,4,0.1c0.7,0,2-0.1,3.4-0.1
		c0.3,0,0.5,0.1,0.5,0.3c0,0.2-0.2,0.2-0.7,0.4c-0.3,0.1-0.4,0.3-0.4,0.6c0,0.3,0.2,0.6,0.4,1.1c0.4,1,4.9,8.6,5.4,9.5
		c0.3-0.8,4.3-7.8,4.8-8.8c0.3-0.7,0.4-1.2,0.4-1.7c0-0.3-0.1-0.7-0.7-0.8c-0.3-0.1-0.6-0.1-0.6-0.3c0-0.2,0.2-0.3,0.5-0.3
		c1.1,0,2.1,0.1,3,0.1c0.7,0,2.8-0.1,3.4-0.1c0.4,0,0.6,0.1,0.6,0.3c0,0.2-0.3,0.3-0.6,0.3c-0.3,0-0.9,0.1-1.4,0.4
		c-0.7,0.3-1,0.7-1.7,1.6c-1.1,1.3-5.5,8.8-6.1,10.1c-0.5,1.1-0.5,2.1-0.5,3.2v2.6c0,0.5,0,1.8,0.1,3.2c0.1,0.9,0.4,1.6,1.3,1.8
		c0.4,0.1,1.1,0.1,1.6,0.1c0.4,0,0.5,0.1,0.5,0.3c0,0.2-0.3,0.3-0.7,0.3c-2,0-4-0.1-4.9-0.1c-0.8,0-2.8,0.1-4,0.1
		c-0.4,0-0.7-0.1-0.7-0.3c0-0.2,0.2-0.3,0.5-0.3c0.4,0,0.8-0.1,1.1-0.1c0.6-0.1,0.9-0.8,1-1.8c0.1-1.3,0.1-2.7,0.1-3.2V510.8z"/>
	<path fill="#FFFFFF" d="M269.2,518.7c-0.5-0.2-0.6-0.4-0.6-1.1c0-1.8,0.1-3.7,0.2-4.2c0-0.5,0.1-0.8,0.4-0.8c0.3,0,0.3,0.3,0.3,0.5
		c0,0.4,0.1,1.1,0.3,1.6c0.7,2.4,2.6,3.2,4.6,3.2c2.9,0,4.3-1.9,4.3-3.6c0-1.6-0.5-3-3.1-5.1l-1.5-1.1c-3.5-2.7-4.7-5-4.7-7.6
		c0-3.5,2.9-6,7.4-6c2.1,0,3.4,0.3,4.2,0.5c0.3,0.1,0.4,0.2,0.4,0.4c0,0.4-0.1,1.3-0.1,3.8c0,0.7-0.1,1-0.4,1
		c-0.2,0-0.3-0.2-0.3-0.6c0-0.3-0.2-1.3-0.8-2.1c-0.5-0.6-1.4-1.6-3.5-1.6c-2.4,0-3.8,1.4-3.8,3.3c0,1.5,0.7,2.6,3.4,4.6l0.9,0.7
		c3.9,2.9,5.2,5.1,5.2,8.1c0,1.9-0.7,4-3,5.6c-1.6,1-3.4,1.3-5.1,1.3C272,519.5,270.5,519.3,269.2,518.7"/>
	<path fill="#FFFFFF" d="M295.9,504.2c0-4.8,0-5.7-0.1-6.8c-0.1-1.1-0.3-1.6-1.4-1.8c-0.3-0.1-0.8-0.1-1.2-0.1
		c-0.4,0-0.5-0.1-0.5-0.3c0-0.2,0.2-0.3,0.7-0.3c0.9,0,1.8,0,2.6,0c0.8,0,1.6,0.1,2,0.1c1,0,7.4,0,8,0c0.6-0.1,1.1-0.1,1.4-0.2
		c0.2,0,0.4-0.1,0.5-0.1c0.2,0,0.2,0.1,0.2,0.3c0,0.2-0.2,0.6-0.3,2.1c0,0.3-0.1,1.7-0.2,2.1c0,0.2-0.1,0.4-0.3,0.4
		c-0.2,0-0.3-0.2-0.3-0.4c0-0.2,0-0.8-0.2-1.1c-0.2-0.6-0.5-1-2.1-1.1c-0.5-0.1-3.9-0.1-4.5-0.1c-0.2,0-0.2,0.1-0.2,0.3v8.1
		c0,0.2,0,0.4,0.2,0.4c0.7,0,4.4,0,5.1-0.1c0.8-0.1,1.2-0.2,1.5-0.5c0.2-0.3,0.4-0.4,0.5-0.4c0.1,0,0.2,0.1,0.2,0.3
		c0,0.2-0.1,0.7-0.3,2.3c0,0.6-0.1,1.9-0.1,2.1c0,0.3,0,0.6-0.3,0.6c-0.2,0-0.3-0.1-0.3-0.3c0-0.3,0-0.7-0.1-1.1
		c-0.2-0.6-0.6-1.1-1.8-1.2c-0.6-0.1-3.8-0.1-4.5-0.1c-0.2,0-0.2,0.1-0.2,0.3v2.5c0,1.1,0,4,0,4.9c0.1,2.2,0.6,2.7,3.8,2.7
		c0.8,0,2.2,0,3-0.4c0.8-0.4,1.2-1.1,1.4-2.4c0.1-0.4,0.1-0.5,0.4-0.5c0.3,0,0.3,0.3,0.3,0.6c0,0.7-0.3,2.9-0.4,3.5
		c-0.2,0.8-0.5,0.8-1.7,0.8c-2.4,0-4.1-0.1-5.5-0.1c-1.4-0.1-2.4-0.1-3.3-0.1c-0.4,0-1.1,0-1.8,0c-0.7,0-1.6,0.1-2.2,0.1
		c-0.4,0-0.6-0.1-0.6-0.3c0-0.2,0.1-0.3,0.5-0.3c0.5,0,0.9-0.1,1.1-0.1c0.6-0.1,0.8-0.8,0.9-1.8c0.2-1.3,0.2-3.9,0.2-6.8V504.2z"/>
	<path fill="#FFFFFF" d="M326.1,506.8c0,0.4,0.1,0.5,0.3,0.6c0.7,0.2,1.6,0.3,2.4,0.3c1.3,0,1.7-0.1,2.3-0.5c1-0.7,1.9-2.2,1.9-4.8
		c0-4.5-3-5.8-4.9-5.8c-0.8,0-1.4,0-1.7,0.1c-0.2,0.1-0.3,0.2-0.3,0.4V506.8z M322.4,504.2c0-4.8,0-5.7-0.1-6.8
		c-0.1-1.1-0.3-1.6-1.4-1.8c-0.3-0.1-0.8-0.1-1.2-0.1c-0.4,0-0.5-0.1-0.5-0.3c0-0.2,0.2-0.3,0.7-0.3c1.7,0,3.7,0.1,4.4,0.1
		c1.1,0,3.5-0.1,4.5-0.1c2,0,4.1,0.2,5.9,1.4c0.9,0.6,2.2,2.2,2.2,4.4c0,2.4-1,4.5-4.2,7.1c2.8,3.6,5,6.4,6.9,8.4
		c1.8,1.9,3.1,2.1,3.6,2.2c0.4,0.1,0.6,0.1,0.9,0.1c0.3,0,0.4,0.1,0.4,0.3c0,0.3-0.2,0.3-0.6,0.3h-3c-1.8,0-2.6-0.2-3.4-0.6
		c-1.4-0.7-2.6-2.2-4.4-4.7c-1.3-1.8-2.7-3.9-3.2-4.4c-0.2-0.2-0.4-0.2-0.6-0.2l-2.8-0.1c-0.2,0-0.3,0.1-0.3,0.3v0.4
		c0,3,0,5.5,0.2,6.8c0.1,0.9,0.3,1.6,1.2,1.8c0.5,0.1,1.2,0.1,1.6,0.1c0.3,0,0.4,0.1,0.4,0.3c0,0.2-0.2,0.3-0.6,0.3
		c-1.8,0-4.2-0.1-4.7-0.1c-0.6,0-2.6,0.1-3.9,0.1c-0.4,0-0.6-0.1-0.6-0.3c0-0.2,0.1-0.3,0.5-0.3c0.5,0,0.9-0.1,1.1-0.1
		c0.6-0.1,0.8-0.8,0.9-1.8c0.2-1.3,0.2-3.9,0.2-6.8V504.2z"/>
	<path fill="#FFFFFF" d="M349.9,498.1c-0.7-1.8-1.3-2.1-2.4-2.4c-0.5-0.1-1-0.1-1.2-0.1c-0.3,0-0.4-0.1-0.4-0.3
		c0-0.3,0.4-0.3,0.8-0.3c1.7,0,3.5,0.1,4.6,0.1c0.8,0,2.3-0.1,3.9-0.1c0.4,0,0.7,0.1,0.7,0.3c0,0.2-0.2,0.3-0.5,0.3
		c-0.5,0-1,0-1.2,0.2c-0.2,0.2-0.3,0.4-0.3,0.7c0,0.4,0.3,1.3,0.7,2.5l5.5,14.5h0.1c1.4-3.5,5.5-13.8,6.3-15.9
		c0.2-0.4,0.3-0.9,0.3-1.2c0-0.3-0.1-0.5-0.4-0.6c-0.4-0.1-0.9-0.2-1.3-0.2c-0.3,0-0.5,0-0.5-0.3c0-0.3,0.3-0.3,0.9-0.3
		c1.6,0,2.9,0.1,3.3,0.1c0.5,0,2-0.1,3-0.1c0.4,0,0.7,0.1,0.7,0.3c0,0.2-0.2,0.3-0.5,0.3c-0.3,0-1,0-1.6,0.4
		c-0.4,0.3-0.9,0.8-1.8,2.9c-1.2,3-2.1,4.7-3.8,8.6c-2,4.7-3.5,8.1-4.2,9.7c-0.8,1.8-1,2.4-1.5,2.4c-0.4,0-0.6-0.4-1.2-1.9
		L349.9,498.1z"/>
	<path fill="#FFFFFF" d="M382.3,504.2c0-4.8,0-5.7-0.1-6.8c-0.1-1.1-0.4-1.6-1.1-1.8c-0.4-0.1-0.8-0.1-1.1-0.1
		c-0.3,0-0.5-0.1-0.5-0.3c0-0.2,0.3-0.3,0.8-0.3c1.2,0,3.2,0.1,4.1,0.1c0.8,0,2.7-0.1,3.9-0.1c0.4,0,0.7,0.1,0.7,0.3
		c0,0.3-0.2,0.3-0.5,0.3c-0.3,0-0.6,0-1,0.1c-0.9,0.2-1.1,0.7-1.2,1.8c-0.1,1-0.1,1.9-0.1,6.8v5.6c0,3.1,0,5.6,0.1,7
		c0.1,0.9,0.3,1.4,1.3,1.6c0.4,0.1,1.1,0.1,1.6,0.1c0.4,0,0.5,0.1,0.5,0.3c0,0.2-0.3,0.3-0.6,0.3c-2.1,0-4.1-0.1-5-0.1
		c-0.7,0-2.7,0.1-4,0.1c-0.4,0-0.6-0.1-0.6-0.3c0-0.2,0.1-0.3,0.5-0.3c0.5,0,0.9-0.1,1.1-0.1c0.6-0.1,0.8-0.7,0.9-1.6
		c0.2-1.3,0.2-3.9,0.2-7V504.2z"/>
	<path fill="#FFFFFF" d="M403.6,516.1c-3.1-2.7-4-6.3-4-9.4c0-2.2,0.7-5.9,3.7-8.7c2.3-2.1,5.3-3.4,10.1-3.4c2,0,3.2,0.1,4.6,0.3
		c1.2,0.2,2.2,0.4,3.2,0.5c0.4,0,0.5,0.2,0.5,0.4c0,0.3-0.1,0.6-0.2,1.8c-0.1,1.1,0,2.8-0.1,3.4c0,0.5-0.1,0.7-0.4,0.7
		c-0.3,0-0.3-0.3-0.3-0.7c0-1-0.4-2.1-1.2-2.9c-1-1.1-3.5-2-6.5-2c-2.8,0-4.6,0.7-6,2c-2.3,2.1-2.9,5.2-2.9,8.3
		c0,7.6,5.8,11.4,10,11.4c2.8,0,4.6-0.3,5.8-1.8c0.5-0.6,1-1.5,1.1-2.1c0.1-0.5,0.2-0.6,0.4-0.6c0.2,0,0.3,0.2,0.3,0.5
		c0,0.4-0.4,3.2-0.7,4.2c-0.2,0.5-0.3,0.7-0.8,0.9c-1.3,0.5-3.7,0.7-5.7,0.7C410.1,519.5,406.5,518.6,403.6,516.1"/>
	<line fill="#FFFFFF" stroke="#FDFDFE" stroke-width="1.449" x1="0" y1="473.3" x2="448.4" y2="473.3"/>
	<line fill="#FFFFFF" stroke="#FDFDFE" stroke-width="1.449" x1="0" y1="540.4" x2="448.4" y2="540.4"/>
</g>
<g>
	<path fill="#FFFFFF" d="M8.8,442.3c-0.2,0-0.2,0-0.3,0.2l-1.6,3.9c-0.3,0.7-0.4,1.4-0.4,1.8c0,0.5,0.3,0.8,1.2,0.8h0.4
		c0.4,0,0.4,0.1,0.4,0.3c0,0.2-0.2,0.3-0.5,0.3c-1,0-2.4-0.1-3.4-0.1c-0.3,0-1.9,0.1-3.5,0.1c-0.4,0-0.6-0.1-0.6-0.3
		c0-0.2,0.1-0.3,0.3-0.3c0.3,0,0.6,0,0.9,0c1.4-0.2,1.9-1.1,2.5-2.6l7.9-18.4c0.3-0.8,0.6-1.2,0.9-1.2c0.4,0,0.6,0.3,0.9,0.9
		c0.7,1.6,5.8,13.6,7.7,18.1c1.2,2.7,2,3,2.6,3.1c0.4,0.1,0.8,0.1,1.1,0.1c0.3,0,0.4,0.1,0.4,0.3c0,0.2-0.2,0.3-1.3,0.3
		c-1.1,0-3.3,0-5.8-0.1c-0.6,0-0.9,0-0.9-0.2c0-0.2,0.1-0.3,0.4-0.3c0.2,0,0.4-0.3,0.3-0.7l-2.3-5.9c-0.1-0.2-0.2-0.2-0.3-0.2H8.8z
		 M15.3,440.6c0.1,0,0.2-0.1,0.1-0.2l-2.9-7.4c0-0.1-0.1-0.3-0.1-0.3c-0.1,0-0.1,0.2-0.2,0.3l-2.9,7.4c-0.1,0.1,0,0.2,0.1,0.2H15.3z
		"/>
	<path fill="#FFFFFF" d="M52.7,441.2c0,2.8,0,4.9,0.2,6.1c0.1,0.9,0.3,1.4,1.2,1.6c0.4,0.1,1.1,0.1,1.5,0.1c0.4,0,0.5,0.2,0.5,0.3
		c0,0.2-0.2,0.3-0.7,0.3c-1.9,0-4.1-0.1-4.9-0.1c-0.8,0-2.7,0.1-3.9,0.1c-0.4,0-0.6-0.1-0.6-0.3c0-0.1,0.1-0.3,0.4-0.3
		c0.4,0,0.8,0,1.1-0.1c0.6-0.1,0.8-0.7,0.9-1.6c0.1-1.2,0.1-3.4,0.1-6.2V436c0-4.4,0-5.3,0-6.2c-0.1-1-0.3-1.3-1.3-1.6
		c-0.2-0.1-0.8-0.1-1.2-0.1c-0.3,0-0.5-0.1-0.5-0.3c0-0.2,0.2-0.3,0.7-0.3c1.6,0,3.5,0.1,4.3,0.1c1.2,0,7.9,0,8.6,0
		c0.6,0,0.9-0.1,1.2-0.1c0.2,0,0.3-0.2,0.5-0.2c0.1,0,0.2,0.1,0.2,0.3c0,0.2-0.1,0.6-0.2,1.3c0,0.3-0.1,2-0.1,2.4
		c0,0.2-0.1,0.6-0.3,0.6c-0.2,0-0.4-0.1-0.4-0.5c0-0.2,0-0.7-0.2-1.1c-0.2-0.4-0.8-0.9-1.9-0.9l-5-0.1c-0.2,0-0.3,0.1-0.3,0.4v7.1
		c0,0.2,0,0.3,0.2,0.3l4.2,0c0.5,0,0.9,0,1.4,0c0.6,0,1-0.1,1.3-0.5c0.2-0.2,0.2-0.3,0.4-0.3c0.1,0,0.2,0.1,0.2,0.3
		c0,0.2-0.1,1-0.2,1.9c-0.1,0.6-0.1,1.9-0.1,2.1c0,0.2,0,0.7-0.3,0.7c-0.2,0-0.3-0.2-0.3-0.4c0-0.2-0.1-0.6-0.2-0.9
		c-0.1-0.4-0.5-1-1.4-1.1c-0.8-0.1-4.3-0.1-4.9-0.1c-0.1,0-0.2,0-0.2,0.2V441.2z"/>
	<path fill="#FFFFFF" d="M74.1,442.3c-0.2,0-0.2,0-0.3,0.2l-1.6,3.9c-0.3,0.7-0.4,1.4-0.4,1.8c0,0.5,0.3,0.8,1.2,0.8h0.4
		c0.4,0,0.4,0.1,0.4,0.3c0,0.2-0.2,0.3-0.5,0.3c-1,0-2.4-0.1-3.4-0.1c-0.3,0-1.9,0.1-3.5,0.1c-0.4,0-0.6-0.1-0.6-0.3
		c0-0.2,0.1-0.3,0.3-0.3c0.3,0,0.6,0,0.9,0c1.4-0.2,1.9-1.1,2.5-2.6l7.9-18.4c0.3-0.8,0.6-1.2,0.9-1.2c0.4,0,0.6,0.3,0.9,0.9
		c0.7,1.6,5.8,13.6,7.7,18.1c1.2,2.7,2,3,2.6,3.1c0.4,0.1,0.8,0.1,1.1,0.1c0.3,0,0.4,0.1,0.4,0.3c0,0.2-0.2,0.3-1.3,0.3
		c-1.1,0-3.3,0-5.8-0.1c-0.6,0-0.9,0-0.9-0.2c0-0.2,0.1-0.3,0.4-0.3c0.2,0,0.4-0.3,0.3-0.7l-2.3-5.9c-0.1-0.2-0.2-0.2-0.3-0.2H74.1z
		 M80.5,440.6c0.1,0,0.2-0.1,0.1-0.2l-2.9-7.4c0-0.1-0.1-0.3-0.1-0.3c-0.1,0-0.1,0.2-0.2,0.3l-2.9,7.4c-0.1,0.1,0,0.2,0.1,0.2H80.5z
		"/>
	<path fill="#FFFFFF" d="M100.2,427.6c0.1-0.5,0.3-0.8,0.6-0.8c0.3,0,0.5,0.1,0.9,0.9l8.1,16.3l8.1-16.5c0.2-0.5,0.5-0.7,0.8-0.7
		c0.2,0,0.6,0.3,0.7,0.9l2.8,18.1c0.3,1.8,0.6,2.6,1.5,2.9c0.9,0.2,1.3,0.3,1.7,0.3c0.3,0,0.5,0.1,0.5,0.3c0,0.2-0.3,0.3-0.8,0.3
		c-0.8,0-5.1-0.1-6.3-0.2c-0.7,0-0.9-0.2-0.9-0.3c0-0.1,0.1-0.2,0.3-0.3c0.2-0.1,0.2-0.4,0.1-1.2l-1.7-12.7h-0.1l-6.5,13.1
		c-0.7,1.4-0.9,1.7-1.2,1.7c-0.4,0-0.7-0.6-1.2-1.5c-0.7-1.3-3.1-5.8-3.5-6.6c-0.2-0.6-2-4.2-3-6.3h-0.1l-1.4,11.4
		c-0.1,0.5-0.1,0.9-0.1,1.4c0,0.6,0.4,0.8,0.9,0.9c0.5,0.1,0.8,0.1,1.1,0.1c0.3,0,0.5,0.1,0.5,0.3c0,0.3-0.3,0.3-0.7,0.3
		c-1.3,0-2.7-0.1-3.2-0.1c-0.6,0-2,0.1-3,0.1c-0.3,0-0.6-0.1-0.6-0.3c0-0.1,0.2-0.3,0.5-0.3c0.2,0,0.4,0,0.9-0.1
		c0.8-0.1,1.1-1.3,1.2-2.2L100.2,427.6z"/>
	<path fill="#FFFFFF" d="M135.4,436c0-4.4,0-5.3,0-6.2c-0.1-1-0.4-1.3-1-1.6c-0.3-0.1-0.7-0.1-1.1-0.1c-0.3,0-0.5-0.1-0.5-0.3
		c0-0.2,0.2-0.2,0.7-0.2c1.1,0,3.2,0.1,4.1,0.1c0.8,0,2.7-0.1,3.9-0.1c0.4,0,0.6,0.1,0.6,0.2c0,0.3-0.2,0.3-0.5,0.3s-0.6,0-0.9,0.1
		c-0.8,0.1-1.1,0.6-1.1,1.6c-0.1,0.9-0.1,1.8-0.1,6.2v5.2c0,2.8,0,5.2,0.1,6.4c0.1,0.8,0.3,1.2,1.2,1.4c0.4,0.1,1.1,0.1,1.6,0.1
		c0.3,0,0.5,0.2,0.5,0.3c0,0.2-0.2,0.3-0.6,0.3c-2,0-4.1-0.1-4.9-0.1c-0.7,0-2.8,0.1-4,0.1c-0.4,0-0.6-0.1-0.6-0.3
		c0-0.1,0.1-0.3,0.5-0.3c0.4,0,0.8,0,1.1-0.1c0.6-0.1,0.8-0.6,0.9-1.4c0.1-1.2,0.1-3.5,0.1-6.4V436z"/>
	<path fill="#FFFFFF" d="M158,441.1c0,3.8,0,5.6,0.7,6.2c0.5,0.4,1.7,0.6,4,0.6c1.6,0,2.8,0,3.5-0.8c0.4-0.4,0.7-1.2,0.8-1.8
		c0-0.3,0.1-0.4,0.3-0.4c0.2,0,0.3,0.3,0.3,0.7c0,0.3-0.2,2.5-0.4,3.4c-0.2,0.7-0.3,0.8-1.9,0.8c-2.2,0-3.9,0-5.4-0.1
		c-1.5,0-2.8-0.1-4-0.1c-0.3,0-1,0-1.7,0c-0.7,0-1.5,0.1-2.1,0.1c-0.4,0-0.6-0.1-0.6-0.3c0-0.1,0.1-0.3,0.5-0.3c0.4,0,0.8,0,1.1-0.1
		c0.6-0.1,0.8-0.7,0.9-1.6c0.1-1.2,0.1-3.5,0.1-6.2V436c0-4.4,0-5.3,0-6.2c-0.1-1-0.3-1.3-1.3-1.6c-0.2-0.1-0.6-0.1-1-0.1
		c-0.3,0-0.5-0.1-0.5-0.3c0-0.2,0.2-0.3,0.7-0.3c1.4,0,3.3,0.1,4.2,0.1c0.7,0,3.2-0.1,4.4-0.1c0.4,0,0.7,0.1,0.7,0.3
		c0,0.2-0.2,0.3-0.6,0.3c-0.3,0-0.8,0-1.2,0.1c-0.8,0.1-1.1,0.6-1.1,1.6c-0.1,0.9-0.1,1.8-0.1,6.2V441.1z"/>
	<path fill="#FFFFFF" d="M180.8,442c0-1.6-0.3-2.2-0.7-3.1c-0.2-0.4-4.3-6.9-5.4-8.4c-0.8-1.1-1.4-1.8-2-2.1
		c-0.4-0.2-0.9-0.4-1.3-0.4c-0.2,0-0.4-0.1-0.4-0.3c0-0.2,0.2-0.3,0.6-0.3c0.5,0,2.8,0.1,3.8,0.1c0.7,0,2.1-0.1,3.4-0.1
		c0.3,0,0.4,0.1,0.4,0.3c0,0.2-0.2,0.2-0.7,0.4c-0.2,0.1-0.4,0.2-0.4,0.4s0.1,0.6,0.4,1c0.6,0.9,4.5,7.8,5,8.6
		c0.4-0.7,4.1-7,4.5-7.9c0.3-0.7,0.4-1.2,0.4-1.6c0-0.3-0.1-0.6-0.7-0.7c-0.3-0.1-0.6-0.1-0.6-0.3c0-0.2,0.2-0.3,0.5-0.3
		c1,0,2.1,0.1,3,0.1c0.7,0,2.7-0.1,3.2-0.1c0.3,0,0.6,0.1,0.6,0.2c0,0.2-0.2,0.3-0.6,0.3c-0.3,0-0.9,0.1-1.3,0.3
		c-0.7,0.3-0.9,0.6-1.6,1.4c-1,1.2-5.3,8.1-5.9,9.4c-0.4,1.1-0.4,2-0.4,2.9v2.3c0,0.5,0,1.7,0.1,2.9c0.1,0.9,0.3,1.4,1.2,1.6
		c0.4,0.1,1.1,0.1,1.5,0.1c0.3,0,0.5,0.2,0.5,0.3c0,0.2-0.2,0.3-0.7,0.3c-1.9,0-3.9-0.1-4.8-0.1c-0.8,0-2.8,0.1-3.9,0.1
		c-0.4,0-0.7-0.1-0.7-0.3c0-0.1,0.1-0.3,0.5-0.3c0.4,0,0.8,0,1.1-0.1c0.6-0.1,0.9-0.7,0.9-1.6c0.1-1.2,0.1-2.4,0.1-2.9V442z"/>
	<path fill="#FFFFFF" d="M214,438.5c0-5,3.5-11.5,12.7-11.5c7.6,0,12.4,4.2,12.4,11s-4.9,12-12.7,12C217.6,450,214,443.7,214,438.5z
		 M234.6,439.1c0-6.5-3.9-10.5-8.8-10.5c-3.4,0-7.3,1.8-7.3,9c0,6,3.4,10.8,9.2,10.8C229.8,448.4,234.6,447.4,234.6,439.1z"/>
	<path fill="#FFFFFF" d="M254.4,441.2c0,2.8,0,4.9,0.2,6.1c0.1,0.9,0.3,1.4,1.2,1.6c0.4,0.1,1.1,0.1,1.5,0.1c0.4,0,0.5,0.2,0.5,0.3
		c0,0.2-0.2,0.3-0.7,0.3c-1.9,0-4.1-0.1-4.9-0.1c-0.8,0-2.7,0.1-3.9,0.1c-0.4,0-0.6-0.1-0.6-0.3c0-0.1,0.1-0.3,0.4-0.3
		c0.4,0,0.8,0,1.1-0.1c0.6-0.1,0.8-0.7,0.9-1.6c0.1-1.2,0.1-3.4,0.1-6.2V436c0-4.4,0-5.3,0-6.2c-0.1-1-0.3-1.3-1.3-1.6
		c-0.2-0.1-0.8-0.1-1.2-0.1c-0.3,0-0.5-0.1-0.5-0.3c0-0.2,0.2-0.3,0.7-0.3c1.6,0,3.5,0.1,4.3,0.1c1.2,0,7.9,0,8.6,0
		c0.6,0,0.9-0.1,1.2-0.1c0.2,0,0.3-0.2,0.5-0.2c0.1,0,0.2,0.1,0.2,0.3c0,0.2-0.1,0.6-0.2,1.3c0,0.3-0.1,2-0.1,2.4
		c0,0.2-0.1,0.6-0.3,0.6c-0.2,0-0.4-0.1-0.4-0.5c0-0.2,0-0.7-0.2-1.1c-0.2-0.4-0.8-0.9-1.9-0.9l-5-0.1c-0.2,0-0.3,0.1-0.3,0.4v7.1
		c0,0.2,0,0.3,0.2,0.3l4.2,0c0.5,0,0.9,0,1.4,0c0.6,0,1-0.1,1.3-0.5c0.2-0.2,0.2-0.3,0.4-0.3c0.1,0,0.2,0.1,0.2,0.3
		c0,0.2-0.1,1-0.2,1.9c-0.1,0.6-0.1,1.9-0.1,2.1c0,0.2,0,0.7-0.3,0.7c-0.2,0-0.3-0.2-0.3-0.4c0-0.2-0.1-0.6-0.2-0.9
		c-0.1-0.4-0.5-1-1.4-1.1c-0.8-0.1-4.3-0.1-4.9-0.1c-0.1,0-0.2,0-0.2,0.2V441.2z"/>
	<path fill="#FFFFFF" d="M289.3,436c0-4.4,0-5.3,0-6.2c-0.1-1-0.3-1.3-1.3-1.6c-0.2-0.1-0.8-0.1-1.2-0.1c-0.3,0-0.5-0.1-0.5-0.3
		c0-0.2,0.2-0.3,0.7-0.3c1.6,0,3.5,0.1,4.1,0.1c1.5,0,3.5-0.1,4.5-0.1c5.5,0,6.4,2.8,6.4,4.4c0,2.3-1.7,4-3.4,5.1
		c2.5,0.8,5.6,2.9,5.6,6.3c0,3.1-2.5,6.4-8.1,6.4c-0.3,0-1.4,0-2.4-0.1c-1,0-2.1-0.1-2.6-0.1c-0.3,0-1,0-1.7,0
		c-0.7,0-1.5,0.1-2.1,0.1c-0.4,0-0.6-0.1-0.6-0.3c0-0.1,0.1-0.3,0.5-0.3c0.4,0,0.8,0,1.1-0.1c0.6-0.1,0.8-0.7,0.9-1.6
		c0.1-1.2,0.1-3.5,0.1-6.2V436z M293.2,436.4c0,0.2,0.1,0.3,0.2,0.3c0.3,0.1,0.7,0.1,1.4,0.1c1,0,1.9-0.1,2.4-0.5
		c0.8-0.6,1.4-1.7,1.4-3.1c0-2-1.2-4.4-3.8-4.4c-0.4,0-1,0-1.3,0.1c-0.2,0-0.3,0.2-0.3,0.5V436.4z M293.2,445c0,1.9,0.1,2.5,1.1,2.9
		c0.8,0.3,1.5,0.3,2.2,0.3c1.6,0,3.7-0.9,3.7-4.1c0-1.3-0.6-3.7-2.9-5.2c-0.6-0.4-1.4-0.8-2.6-0.8h-1.3c-0.1,0-0.2,0-0.2,0.2V445z"
		/>
	<path fill="#FFFFFF" d="M315.9,436c0-4.4,0-5.3,0-6.2c-0.1-1-0.3-1.3-1.3-1.6c-0.2-0.1-0.8-0.1-1.2-0.1c-0.3,0-0.5-0.1-0.5-0.3
		c0-0.2,0.2-0.3,0.7-0.3c1.6,0,3.5,0.1,4.1,0.1c1,0,3.8-0.1,4.7-0.1c1.9,0,4.1,0.2,5.8,1.2c0.9,0.6,2.1,2.1,2.1,4
		c0,2.2-1.2,4.1-4.2,6.5c2.7,3.3,4.8,6,6.7,7.8c1.7,1.7,2.8,1.8,3.2,1.9c0.3,0.1,0.5,0.1,0.7,0.1s0.4,0.2,0.4,0.3
		c0,0.2-0.2,0.3-0.6,0.3h-2.9c-1.7,0-2.5-0.2-3.3-0.6c-1.3-0.7-2.4-2-4.1-4.3c-1.2-1.6-2.5-3.5-2.9-4c-0.2-0.2-0.3-0.2-0.6-0.2
		l-2.7-0.1c-0.1,0-0.2,0.1-0.2,0.2v0.4c0,2.7,0,5,0.2,6.2c0.1,0.9,0.2,1.4,1.2,1.6c0.4,0.1,1.1,0.1,1.5,0.1c0.2,0,0.4,0.2,0.4,0.3
		c0,0.2-0.2,0.3-0.6,0.3c-1.8,0-4.3-0.1-4.7-0.1c-0.6,0-2.5,0.1-3.7,0.1c-0.4,0-0.6-0.1-0.6-0.3c0-0.1,0.1-0.3,0.5-0.3
		c0.4,0,0.8,0,1.1-0.1c0.6-0.1,0.8-0.7,0.9-1.6c0.1-1.2,0.1-3.5,0.1-6.2V436z M319.8,438.2c0,0.3,0.1,0.4,0.3,0.5
		c0.7,0.2,1.6,0.3,2.3,0.3c1.2,0,1.6-0.1,2.1-0.5c0.9-0.7,2-1.9,2-4.3c0-4.1-2.8-5.2-4.6-5.2c-0.8,0-1.5,0-1.8,0.1
		c-0.2,0.1-0.3,0.2-0.3,0.4V438.2z"/>
	<path fill="#FFFFFF" d="M345.4,442.3c-0.2,0-0.2,0-0.3,0.2l-1.6,3.9c-0.3,0.7-0.4,1.4-0.4,1.8c0,0.5,0.3,0.8,1.2,0.8h0.4
		c0.4,0,0.4,0.1,0.4,0.3c0,0.2-0.2,0.3-0.5,0.3c-1,0-2.4-0.1-3.4-0.1c-0.3,0-1.9,0.1-3.5,0.1c-0.4,0-0.6-0.1-0.6-0.3
		c0-0.2,0.1-0.3,0.3-0.3c0.3,0,0.6,0,0.9,0c1.4-0.2,1.9-1.1,2.5-2.6l7.9-18.4c0.3-0.8,0.6-1.2,0.9-1.2c0.4,0,0.6,0.3,0.9,0.9
		c0.7,1.6,5.8,13.6,7.7,18.1c1.2,2.7,2,3,2.6,3.1c0.4,0.1,0.8,0.1,1.1,0.1c0.3,0,0.4,0.1,0.4,0.3c0,0.2-0.2,0.3-1.3,0.3
		c-1.1,0-3.3,0-5.8-0.1c-0.6,0-0.9,0-0.9-0.2c0-0.2,0.1-0.3,0.4-0.3c0.2,0,0.4-0.3,0.3-0.7l-2.3-5.9c-0.1-0.2-0.2-0.2-0.3-0.2H345.4
		z M351.9,440.6c0.1,0,0.2-0.1,0.1-0.2l-2.9-7.4c0-0.1-0.1-0.3-0.1-0.3c-0.1,0-0.1,0.2-0.2,0.3l-2.9,7.4c-0.1,0.1,0,0.2,0.1,0.2
		H351.9z"/>
	<path fill="#FFFFFF" d="M372.3,445.6c0.1,2.3,0.4,3,1,3.2c0.5,0.2,1.1,0.2,1.6,0.2c0.3,0,0.5,0.1,0.5,0.3c0,0.2-0.3,0.3-0.7,0.3
		c-2,0-3.4-0.1-3.9-0.1c-0.3,0-1.7,0.1-3.3,0.1c-0.4,0-0.7,0-0.7-0.3c0-0.2,0.2-0.3,0.5-0.3c0.4,0,1,0,1.4-0.1
		c0.8-0.2,0.9-1,0.9-3.5l0.3-17.4c0-0.6,0.2-1,0.5-1c0.4,0,0.8,0.4,1.3,1c0.4,0.4,4.9,5,9.3,9.3c2.1,2,6.1,6.2,6.5,6.6h0.1l-0.3-13
		c0-1.8-0.3-2.3-1-2.6c-0.4-0.2-1.2-0.2-1.6-0.2c-0.4,0-0.5-0.1-0.5-0.3c0-0.2,0.3-0.3,0.8-0.3c1.6,0,3.2,0.1,3.9,0.1
		c0.3,0,1.5-0.1,3-0.1c0.4,0,0.7,0,0.7,0.3c0,0.2-0.2,0.3-0.5,0.3c-0.3,0-0.6,0-0.9,0.1c-0.8,0.2-1.1,0.8-1.1,2.4l-0.3,18.5
		c0,0.7-0.2,0.9-0.5,0.9c-0.5,0-0.9-0.3-1.2-0.6c-1.9-1.8-5.7-5.4-8.9-8.4c-3.3-3.2-6.5-6.7-7.1-7.2h-0.1L372.3,445.6z"/>
	<path fill="#FFFFFF" d="M403.9,436c0-4.4,0-5.3,0-6.2c-0.1-1-0.3-1.3-1.3-1.6c-0.2-0.1-0.8-0.1-1.2-0.1c-0.3,0-0.5-0.1-0.5-0.3
		c0-0.2,0.2-0.3,0.7-0.3c1.6,0,3.5,0.1,4.4,0.1c0.9,0,3.1-0.1,4.9-0.1c3.8,0,8.9,0,12.2,3.3c1.5,1.5,2.9,4,2.9,7.4
		c0,3.7-1.6,6.5-3.3,8.2c-1.4,1.4-4.6,3.4-10.2,3.4c-1.1,0-2.4-0.1-3.6-0.2c-1.2-0.1-2.3-0.2-3.1-0.2c-0.3,0-1,0-1.7,0
		c-0.7,0-1.5,0.1-2.1,0.1c-0.4,0-0.6-0.1-0.6-0.3c0-0.1,0.1-0.3,0.5-0.3c0.4,0,0.8,0,1.1-0.1c0.6-0.1,0.8-0.7,0.9-1.6
		c0.1-1.2,0.1-3.5,0.1-6.2V436z M408,439.2c0,3.1,0,5.3,0.1,5.9c0,0.7,0.1,1.8,0.3,2.1c0.4,0.6,1.6,1.2,4,1.2c2.8,0,4.8-0.5,6.6-2
		c2-1.6,2.6-4.2,2.6-7.3c0-3.7-1.5-6.1-2.8-7.3c-2.8-2.5-6.1-2.8-8.5-2.8c-0.6,0-1.6,0.1-1.9,0.2c-0.3,0.1-0.4,0.2-0.4,0.6
		c0,1,0,3.4,0,5.7V439.2z"/>
	<path fill="#FFFFFF" d="M435.4,449.3c-0.5-0.2-0.6-0.3-0.6-1c0-1.6,0.1-3.4,0.2-3.9c0-0.4,0.1-0.8,0.4-0.8c0.3,0,0.3,0.3,0.3,0.5
		c0,0.4,0.1,1,0.3,1.5c0.7,2.2,2.9,2.9,4.8,2.9c2.6,0,4.2-1.7,4.2-3.7c0-1.3-0.3-2.5-3-4.1l-1.8-1c-3.6-2.1-4.8-4.1-4.8-6.6
		c0-3.6,3.4-5.9,7.6-5.9c2,0,3.5,0.3,4.3,0.5c0.3,0.1,0.4,0.2,0.4,0.4c0,0.4-0.1,1.2-0.1,3.5c0,0.6-0.1,0.9-0.4,0.9
		c-0.2,0-0.3-0.2-0.3-0.5c0-0.3-0.1-1.2-0.8-1.9c-0.4-0.6-1.4-1.4-3.4-1.4c-2.2,0-4.1,1.1-4.1,3.1c0,1.3,0.5,2.3,3.2,3.9l1.2,0.7
		c4,2.2,5.2,4.4,5.2,7.1c0,2.2-0.8,3.9-3,5.5c-1.4,1-3.4,1.2-5.1,1.2C438.6,450,436.7,449.8,435.4,449.3z"/>
</g>
<g>
	<g>
		<path fill="none" stroke="#FFFFFF" stroke-width="2.5" stroke-miterlimit="10" d="M242.8,55.4c0.1,0,0.3,0.1,0.4,0.1
			C243.1,55.5,242.9,55.5,242.8,55.4 M240.4,55L240.4,55L240.4,55C240.4,55,240.4,55,240.4,55 M239.8,55c0.2,0,0.4,0,0.6,0.1l0,0
			l-0.3,0C240,55,239.9,55,239.8,55 M239.4,54.9C239.4,54.9,239.4,54.9,239.4,54.9c-0.2,0-0.5-0.1-0.8-0.1l0,0
			C238.9,54.8,239.2,54.9,239.4,54.9 M321.5,94.8l-0.4-0.5c-2.2-2.1-4.3-3.9-6.2-5.6c-0.3-0.2-0.6-0.5-0.9-0.7
			c2.6,2.1,4,3.4,7.1,6.3l0.7,0.7C321.7,94.9,321.7,94.8,321.5,94.8 M356.2,148.1c0,0.1,0.1,0.2,0.1,0.2l0-0.1L356.2,148.1
			 M355.1,145.1c0.4,1,0.8,2,1.1,2.9l-0.1-0.2c-0.1-0.2-0.1-0.4-0.2-0.6l-0.1-0.2l-0.1-0.2l0-0.1
			C355.5,146.3,355.3,145.7,355.1,145.1 M347.8,129.1L347.8,129.1c-1.9-3.5-2.8-5.2-4.6-7.9c1.4,2.2,2.7,4.5,4,6.8
			C347.4,128.4,347.6,128.8,347.8,129.1 M335.9,110.9L335.9,110.9c0-0.1-0.1-0.1-0.1-0.2L335.9,110.9 M321.6,94.8
			c0.3,0.3,0.6,0.6,0.9,0.8c-0.2-0.2-0.4-0.4-0.6-0.7C321.7,94.9,321.7,94.8,321.6,94.8L321.6,94.8 M364.1,194.4c0,0.1,0,0.1,0,0.2
			C364.1,194.5,364.1,194.4,364.1,194.4 M364.1,193.8c0,0.2,0,0.3,0,0.5C364.1,194.1,364.1,193.9,364.1,193.8
			C364.1,193.8,364.1,193.8,364.1,193.8 M364.1,193.7c0,0.1,0,0.2,0,0.2C364.1,193.9,364.1,193.8,364.1,193.7
			C364.1,193.8,364.1,193.7,364.1,193.7C364.1,193.7,364.1,193.7,364.1,193.7 M362.7,173.9c0.4,2.4,0.6,4,0.8,6.6
			C363.2,178.2,363,176,362.7,173.9 M208.3,96.1c0-0.2,0-0.4,0.1-0.6c0-0.4,0-0.8,0-1.1l-1.2-0.2l-1.3,0.6l0.3,1.6c0.5,0,1,0,1.6,0
			L208.3,96.1 M203.9,93.8L203.9,93.8l0-0.7c-0.2,0.1-0.4,0.3-0.6,0.4c-0.1,0.1-0.1,0.1-0.5,0.1c-0.2,0-0.4,0.1-1.2,0.5
			c-0.2,0.1-0.4,0.2-0.6,0.3c0.2,0.2,0.3,0.4,0.6,0.5c0,0,0.2,0.1,0.7-0.1c0.4-0.1,1-0.5,1.1-0.6C203.5,94.3,203.5,94.3,203.9,93.8
			 M213.5,70.6l1.2-0.3l-1-0.9l-1.8-0.1c-0.4,0-0.8,0-1.2,0l-0.1,1l0.1,0.8l2,0.1L213.5,70.6 M237.8,54.7L237.8,54.7l0.3,0
			c-0.6-0.1-1.2-0.2-1.7-0.2l-0.4-0.1l0.3,0l0.1,0c0.7,0.1,1.4,0.2,2.1,0.3l-0.1,0l0,0l0,0c0.5,0.1,1.1,0.1,1.6,0.2l0.8,0.1
			c0.3,0,0.6,0.1,0.8,0.1h0l0,0l0,0h0l0,0h0l0,0c0.2,0,0.5,0.1,0.7,0.1l0.5,0.1l0.3,0c-0.3-0.1-1.6-0.3-3-0.5l0.2,0l-0.9-0.1
			c-0.3,0-0.6-0.1-0.8-0.1l0.1,0L237.8,54.7 M241.6,55.2c-0.3,0-0.6-0.1-0.9-0.1c-0.5-0.1-0.9-0.1-1.4-0.2l-0.2,0
			c0.6,0.1,1.1,0.1,1.7,0.3l-0.1,0c0.2,0,0.4,0.1,0.6,0.1v0l-0.3,0c0.4,0.1,0.9,0.1,1.3,0.2c-0.2,0-0.4-0.1-0.6-0.1l0.1,0
			c0.5,0.1,1.1,0.2,1.7,0.3c-0.4-0.1-0.8-0.1-1.2-0.2l0.1,0l-0.1,0c0.4,0.1,0.8,0.1,1.2,0.2c0.3,0.1,0.6,0.1,0.9,0.2
			c0.3,0.1,0.5,0.1,0.8,0.1c0.2,0,0.4,0.1,0.5,0.1c-0.4-0.1-1.2-0.2-2.3-0.4c-0.1,0-0.3,0-0.4-0.1l-0.2,0l0.1,0l0,0
			C242.4,55.4,242,55.3,241.6,55.2 M247.2,56.6c-0.1,0-1.1-0.2-1.2-0.2c0.1,0,0.2,0.1,0.4,0.1l0,0c-0.7-0.1-1.4-0.2-2.1-0.4
			c0.6,0.1,1.2,0.2,1.8,0.4c-0.1,0-0.2,0-0.4-0.1l-1.1-0.2l-0.2,0c-0.2,0-0.3-0.1-0.5-0.1c0.2,0,0.4,0.1,0.6,0.1v0l-0.2,0l0,0
			c1.6,0.3,2.1,0.4,2.6,0.5c-0.7-0.1-1.3-0.2-1.9-0.4c-0.4-0.1-0.4-0.1-0.6,0c0.5,0.1,1.7,0.4,2.2,0.4l0,0c0.1,0,0.3,0,0.4,0.1
			l-0.3-0.1c0.3,0,0.5,0.1,1.1,0.2l-0.1,0.1c0.4,0.1,0.7,0.1,1.1,0.2c0.3,0,0.6,0.1,0.9,0.2l0.1,0l-0.1,0c0.4,0,0.6,0.3,1,0.2
			c-0.4-0.2-0.8-0.1-1.2-0.3c0.2,0,0.3,0.1,0.5,0.1C249.7,57.2,249.7,57.2,247.2,56.6 M249.7,57.5l-0.2-0.1L249.7,57.5L249.7,57.5
			 M258.9,59.5l-0.5-0.1c-0.7-0.2-0.8-0.2-0.9-0.2l0.1,0c-0.2,0-0.2,0-1.6-0.4l0,0.1c-1-0.3-2.1-0.5-3.1-0.7c0,0-1.5-0.3-1.8-0.3
			c0.1,0.1,0.1,0.1,0.4,0.1c-0.2,0-0.4-0.1-0.5-0.1c-0.4-0.1-0.8-0.2-1.2-0.3c-1.1,0.2-2-0.4-3-0.5l0,0c0.5,0.1,0.9,0.2,1.4,0.3
			c0.2,0,0.3,0.1,0.5,0.1c2,0.4,2,0.4,2.3,0.6c-0.1,0-0.1,0-1.3-0.3c-0.2,0-0.3-0.1-0.5-0.1c-0.2,0-0.3-0.1-0.5-0.1
			c-0.2,0-0.3-0.1-0.5-0.1c-0.8-0.2-0.8-0.2-1-0.2c0.5,0.1,1,0.2,1.5,0.4v0c-0.3-0.1-0.5-0.1-0.8-0.2c-0.4-0.1-0.8-0.2-1.2-0.3
			c0.1,0,0.2,0.1,0.9,0.2l-0.1,0.1c2,0.7,4.2,1,6.3,1.5c-0.7-0.2-1.5-0.4-2.2-0.5c0.4,0.1,2.9,0.8,3.2,0.8c-0.1-0.1-0.1-0.1-1.5-0.4
			c0.6,0,1.2,0.3,1.7,0.4l0.1,0c-0.2-0.1-1.4-0.5-1.9-0.6c-0.3-0.1-0.5-0.1-0.8-0.2l-0.1,0c0.6,0.1,0.6,0.1,1.8,0.4l0.1,0l-0.7-0.2
			l0.4,0.1c0.4,0.1,0.8,0.2,1.2,0.3c0.1,0,0.3,0.1,0.4,0.1l-0.1,0l0,0l-0.2,0c0.1,0.1,0.1,0.1,0.4,0.1c0.1,0.1,0.1,0.1,0.8,0.3
			c0.3,0.1,0.7,0.2,1,0.3l-0.2-0.1l0,0l0.3,0c-0.1-0.1-0.1-0.1-0.9-0.4l-0.1,0c0.2,0,1.9,0.6,1.9,0.6l0,0c-0.2,0-0.2,0-0.3,0
			c1.6,0.7,3.4,0.9,5,1.4l-0.1-0.1c0,0-3-1-4.1-1.4c-0.8-0.3-1.5-0.5-2.3-0.7c-0.1-0.1-0.2-0.1-2.9-0.8l0.1-0.1
			c3.2,0.8,3.2,0.8,5.9,1.6l0,0c-0.4-0.2-0.8-0.3-1.2-0.4c0.2,0,0.2,0,1.7,0.5l0,0c-0.2-0.1-0.2-0.1-1.1-0.3l0-0.1L258.9,59.5
			 M321.8,96.1L322,96l-0.1-0.1v0c0,0-0.1-0.1-0.3-0.2l-0.3-0.3l0,0l0,0l0,0C321.2,95.4,321.2,95.6,321.8,96.1 M288.9,71.5
			c-0.6-0.3-1.2-0.7-1.9-1l0,0l0.1,0.1l0,0l0.2,0.1C287.9,71,288.4,71.3,288.9,71.5L288.9,71.5 M300.5,77.9l-7.9-4.9l0,0
			c-0.3-0.1-0.5-0.3-0.8-0.4l0.1,0.1c0.3,0.2,0.7,0.4,1,0.6l0.1,0.1c-0.4-0.2-0.8-0.5-1.2-0.7c-0.2-0.1-0.2-0.1-0.3-0.2
			c-0.4-0.2-0.9-0.5-1.3-0.7l0.1,0.1c0.2,0.1,0.4,0.2,0.6,0.3c-0.3-0.1-0.5-0.3-0.8-0.3c-0.2-0.1-0.4-0.2-0.5-0.3l-0.9-0.5
			c-0.6-0.3-1.1-0.5-1.7-0.8l0,0c0.4,0.2,0.8,0.4,1.3,0.7c-0.2-0.1-0.4-0.2-0.7-0.3c-0.2-0.1-0.5-0.2-0.7-0.4
			c-0.2-0.1-0.4-0.2-0.5-0.2l0,0.1c1.1,0.5,1.1,0.5,1.7,0.9c0.1,0.1,0.3,0.1,0.4,0.2l0.4,0.2l0,0c-1-0.5-1.3-0.7-1.8-0.9l0,0
			l-1.1-0.5l-0.1,0l0.1,0c0.7,0.4,2.1,1.2,2.1,1.2l0,0c-0.1-0.1-0.4-0.1-1.1-0.6c-0.2-0.1-0.2,0-0.2,0c0.6,0.5,1.8,1.1,2.2,1.2
			c0.4,0.2,0.7,0.4,1,0.5l0,0c-0.2-0.1-0.4-0.1-0.6-0.2l-0.1,0c1.6,0.9,1.7,1,2,1.2c-0.9-0.5-0.9-0.5-2.8-1.3
			c0.2,0.2,0.5,0.3,0.8,0.5c0.6,0.3,1.9,1,2.7,1.6c-0.2,0-0.2,0-1.3-0.7c0.4,0.3,1.3,0.9,1.3,1c0.4,0.2,0.8,0.3,1.1,0.6
			c0.1,0.1,0.3,0.2,0.4,0.2l0.3,0.2c-0.2-0.1-0.2-0.1-2.4-1.2c0.5,0.3,0.9,0.6,1.3,0.8l0.2,0.1l-0.2-0.1c0.3,0.4,0.8,0.6,1.3,0.9
			l-0.1,0.1c0.2,0.2,0.4,0.3,0.6,0.5l0.1,0.1c0.3,0.2,0.3,0.2,0.7,0.5l-0.1,0l0.4,0.3l0.2,0c-0.6-0.7-0.6-0.7-0.6-0.7l-0.3-0.2
			l-0.1-0.1l-0.1-0.2l0-0.2c0.3,0.1,0.3,0.1,0.9,0.5c0.2,0.6,7.4,6.1,7.4,6.1l-0.3-0.2c0.5,0.6,0.9,1.3,1.6,1.8
			C304,84,304,84,304.1,84c0.2,0.2,0.2,0.2,2.7,3c-0.1,0-0.3,0-0.4-0.1c-0.2,0-0.2,0-0.3,0l0.6,0.5c0.3,0.2,0.5,0.4,0.8,0.6l0,0.2
			l-0.1,0.1h0l0,0h0l0,0v0h0h0c0,0.1,0,0.1,1.5,2.2l-0.2,0.1c0.6,1.4,2,2,3,3.1l-0.1,0.1l0.3,0.3c0.2,0.2,0.4,0.4,0.6,0.6l0.3-0.1
			c1.7-0.2,1.1,2.4,2.8,2.4c0.7,0.7,0.7,0.7,0.8,0.9c0.7,0,1.3-0.2,1.8-0.3c-0.2-0.3-0.4-0.6-0.7-0.9l0.2-0.1l-0.1-0.2
			c-0.2-0.2-0.4-0.4-0.7-0.7c0.1,0,0.5,0.1,2,1.6c0.9-0.3,1.5-0.5,2-0.8c-1.2-1.6-1.2-1.6-1.8-2.2c-0.1-0.1-0.2-0.2-0.3-0.3
			c-0.8-0.8-1.9-1.2-2.7-2c-1-0.9-1.9-1.7-2.8-2.5c0,0-3.7-4.2-10-8.9l0.1-0.1l0,0v0v0h0l0,0l0,0l0,0c0.4,0.2,0.8,0.5,1.2,0.8
			c-0.2-0.1-0.3-0.3-0.5-0.4c0.3,0.1,0.4,0.2,1.3,0.8c0.5,0.3,0.9,0.6,1.3,0.9l0,0.1c1.6,1.1,1.9,1.4,2.7,2.1l-0.2,0
			c0.9,0.9,0.9,0.9,6.5,5.7l0.4,0.3c0.7,0.6,1.6,1.3,3.3,2.5l0.1,0c-0.2-0.2-0.4-0.5-0.6-0.7l0.2,0.1c-0.1-0.2-0.4-0.4-0.5-0.6
			l-0.1-0.2l0-0.2l-0.3-0.3l-0.1-0.1c0.2,0.2,0.5,0.4,0.7,0.6l0,0l0.3,0.3c0.8,0.7,1.5,1.5,2.3,2.3c-0.2-0.1-0.2-0.1-0.6-0.5
			c0.1,0.2,0.2,0.5,0.4,0.7l-0.2-0.1c0.3,0.4,0.5,0.6,1.2,1.3c0.3-0.2,0.3-0.6-0.1-0.9l-0.7-0.7c-10.8-9.5-11-9.7-17.2-14.1
			l-2.2-1.5l0,0c-0.8-0.6-0.8-0.6-2.6-1.7C299.5,77.3,300.4,77.9,300.5,77.9L300.5,77.9 M318.2,97.6L318.2,97.6
			c-0.5,0.1-1.1,0.3-1.8,0.4l0,0l0.2,0.3c0.1,0.1,0.3,0.2,0.4,0.3l0.2,0.2l0.1,0l0.1,0l0.1,0l0,0l0.2,0.2c0.2,0.2,0.4,0.3,0.6,0.5
			l0-0.2l0.1,0l0.1,0c0.1,0,0.1,0.2,0.3,0.1c0.1,0,0-0.3,0-0.3l-0.1-0.1c-0.1-0.1-0.1-0.2-0.1-0.2c0.1,0,0.1,0,0.1-0.2
			C318.8,98.4,318.8,98.4,318.2,97.6 M321,96.7c-0.5,0.2-1.2,0.5-2,0.7c0.4,0.4,0.9,0.7,1.3,1.1l0.2,0.2c0.9,1,0.9,1,1.2,1.3
			c0.9,0.7,0.9,0.7,1,0.8l0.3,0.3l0.3,0.3c0.4,0.5,0.4,0.5,1.6,1.4c0.5,0.4,0.7,0.9,1.1,1.3l0.1,0.2c0.2,0.2,0.4,0.5,0.6,0.7
			c0.2-0.1,0.4-0.1,0.5-0.2c-1.1-1.3-1.1-1.3-1.2-1.6l0,0l0.1,0c0.1,0,0.2,0.2,0.4,0.2c-0.1-0.2-0.4-0.3-0.4-0.7l0,0
			c-0.3-0.4-0.6-0.7-0.9-1l0.2-0.1c-0.3-0.3-0.5-0.6-0.8-0.8l-0.1,0.1l0,0.1l0,0c-0.2-0.1-0.3-0.3-0.5-0.4c-0.9-1.2-0.9-1.2-2-2.3
			C321.5,97.4,321.1,96.9,321,96.7 M335.8,110.7c-4-4.8-9.6-11.1-14-15.7c0.3,0.3,0.4,0.7,0.1,1l-0.1,0.1l0.1,0.1v0l0,0v0l0,0h0v0
			l0,0c0.6,0.5,0.9,1.3,1.6,1.6c-0.1-0.3-0.1-0.3-0.7-0.9c0.5,0.2,0.5,0.2,3.4,3.3l0,0.1c-0.2-0.1-0.2-0.1-1-0.9
			c-0.2-0.1-0.2-0.1-0.2-0.1c-0.2-0.1-0.3-0.3-0.5-0.5c-0.2-0.2-0.2-0.1-0.2-0.1c1.8,2,3.4,4.2,5.3,6.1l0.3,0.4
			c-0.2-0.1-0.4-0.2-0.6-0.1c0.1,0.1,0.1,0.1,1.6,1.8l0,0.1c-0.5-0.5-1-0.9-1.6-1.4c0.2,0.7,0.7,1.3,1,2l-0.2,0.2l0.1,0.3l-0.3,0.1
			c-0.4-0.3-0.4-0.4-1.1-1.2c-0.2-0.2-0.2-0.1-0.3-0.1l0.1,0.3c-0.2,0.2-0.3,0.2-0.3,0.2c0.1,0.4,0.1,0.4,0.8,1.2l-0.2,0.1
			c-0.4-0.2-0.4-0.2-1.1-1l0,0.1l-0.2,0.1c-0.2-0.2-0.3-0.4-0.5-0.6c-0.1-0.1-0.3-0.3-0.4-0.5c0-0.3,0.1-0.3,0.2-0.3
			c0.1,0,0.1,0,0.9,0.5c0-0.6-1.7-2.5-2.4-3.3c-0.2-0.2-0.3-0.1-0.3-0.1c-0.1,0.3-0.1,0.3,0.4,1.1l0,0.1v0c-0.3-0.3-0.3-0.3-1.1-1.3
			c-0.3-0.3-0.4-0.5-0.6-0.7l-0.3,0c-1.5-1.8-1.5-1.8-2.4-2.7c0,0.8,1.1,1.1,0.9,2c0.1,0.2,0.3,0.4,0.5,0.5c0.2,0.3,0.3,0.3,0.3,0.4
			c1.1,1.3,2,2.7,3.2,3.9c0.1,0.2,0.2,0.3,0.3,0.4c0.2,0.3,0.4,0.5,0.6,0.8c0.4,0.4,0.8,0.8,1.2,1.3c0.3,0.3,0.4,0.6,0.6,0.8l-0.2,0
			l-0.2,0.3l-0.2,0.1c-0.2,0-0.4,0-0.6,0c0,0.2,0,0.4,0.1,0.6l-0.1,0.3c0.5,1,0.5,1,0.7,1.3h-0.3l-0.1,0l-0.1,0
			c-0.1,0.3,0.1,0.6,0.3,0.8l0.5,0.3c0.3,0.4,0.6,0.8,0.9,1.2c-0.3,0.4-0.3,0.4,0,1.8c0,0.2-0.1,0.3-0.1,0.3l-0.3,0.1
			c0.3,0.8,0.8,1.5,1.3,2.3c-0.2,0.1-0.4,0.2-0.6,0.3c0.1,0.5,0.4,0.9,0.6,1.3c-0.2,0-0.4,0.1-0.6,0.1l-0.3-0.2c-0.2,0-0.5,0-0.6,0
			c-0.1-0.1-0.2-0.3-0.2-0.4c-0.1-0.1-0.4-0.3-0.6-0.3c0.2,0.4,0.4,0.8,0.6,1.2c0.4,0.2,0.6,0.7,0.8,1l0.3,0.4
			c0.1,0.2,0.2,0.3,0.3,0.5c-0.9,0.4-1.9-0.4-2-0.5c-0.1,0.1-0.4,0.3-0.5,0.3c-0.2,0.5-0.3,0.7,0.3,1.4l0.2,0
			c0.7,0.8,1.1,0.7,1.3,0.7l0.2,0c0.7,0.6,1.4,1.2,2.1,1.7c0.4,0.7,0.7,1.4,1.1,2.1c2.8,3.3,2.8,3.3,3.7,6.9c0,0.2-0.1,0.5-0.2,0.7
			c-0.3,0.2-0.4,0.2-0.4,0.2c-0.7-0.4-1.6-0.5-2.2-1c-0.8,0-1.4,0.1-2,0.2c-1-0.1-1-0.1-1.3-0.4h-0.2l-0.1,0.3
			c0.1,0.2,0.2,0.4,0.2,0.6c-0.4,0.2-0.7,0.2-1.1,0.3l0.1,0.4c1.1,1.3,1.2,3.2,2.4,4.4c0.4,1,0.7,1.8,1,2.6c0.4,1.3,0.2,2.7,0.9,3.8
			c0.1,0.1,0.3,0.4,0.4,0.5c0.1,0.1,0.1,0.3,0.1,0.4l0.1,0.4c-0.1,0.6,0,0.8,0.5,2.1c0.3,0.1,0.5,0.1,0.7,0.1
			c0.2-0.1,0.4-0.2,0.6-0.2c0.2,0.2,0.4,0.5,0.7,0.6c0.2-0.1,0.4-0.2,0.5-0.4c0.4,0.2,0.8,0.5,1.2,0.7c0.4,0.5,0.6,1.1,1.1,1.5
			c0-0.2,0-0.4,0-0.5l-0.2-0.1l0.2-0.3c1.4-0.1,0.4-2.1,1.7-2.3c0.7-0.9,0.6-2.4,1.8-3c-0.2-0.5-0.4-1-0.5-1.4c-1-1.7-1-1.7-1.4-3.7
			c0-0.2-0.1-0.5-0.1-0.7c0.1-0.2,0.3-0.3,0.5-0.4c-0.1-0.8-0.1-0.8,0.5-1.8c0.2,0,0.4-0.1,0.6-0.2c-0.1-0.4-0.3-0.9-0.5-1.3
			c-0.1-0.1-0.1-0.3-0.2-0.4c-1.1-2.2-1.7-3.3-0.3-2.9l0,0l0,0h0h0h0l0,0h0h0c0.3,0.2,0.5,0.4,0.8,0.6c0.3,0,0.4,0,0.5-0.1l0.2-0.3
			c-0.2-0.5-0.2-0.5-0.5-1.5c0.2-0.2,0.2-0.2,0.2-0.2l0.2-0.2c-0.1-0.8-0.1-0.8-0.2-1.2c2,0.5,1.9,2.6,3.2,3.8
			c0.4,0.3,0.4,0.3,0.7,1c1.1,1.1,4.4,4.3,5.7,8.1c-0.1,0.1-0.1,0.1-0.1,1.3c-0.3,0-0.3,0-1,0.2c0.1,0.2,0.2,0.4,0.2,0.5
			c0.6,0.5,0.6,1.4,1.4,1.8c0.4,0,0.5,0,0.7-0.1c-0.2-0.5-0.4-1.1-0.6-1.6c0.1-1.7-1-4.7-1-4.7c-0.1-0.2-0.1-0.3-0.2-0.5l-0.2,0.1
			c-0.2-0.2-0.2-0.3-0.3-0.5c-0.1-0.2-0.2-0.5-0.3-0.6l0.3-0.1c0.4,0.4,0.4,0.4,0.6,0.8c-0.4-1.8-1.9-2.9-2.8-4.5
			c-0.7-0.2-2.9-3.4-3-3.6l-0.1-0.1c-0.3-0.5-0.3-0.5-0.7-1.3l-0.3,0c-0.3-0.3-0.5-0.6-0.7-1l-0.1-0.4l-0.1-0.3l-0.1-0.2
			c-0.3-0.4-0.6-0.8-0.8-1.3l0.3-0.1c2.8,3,4.1,4.5,4.7,5.5c0.9,1.4,1.9,2.6,2.6,4.1c1.9,4,1.9,4,2.3,4.2c0.3,0.7,0.6,1.2,0.8,1.8
			l-0.1,0.1l-0.1-0.3c0,0.3,0,0.6,0.9,2.1c0-0.2-0.1-0.4-0.1-0.6l-0.1-0.3c0.4,1,0.8,1.9,1.2,2.9c0.1,0.1,0.2,0.1,0.2,0.1
			c0-0.4,0-0.5-0.3-1.2c-0.1-0.3-0.2-0.5-0.2-0.6c-0.2-0.5-0.2-0.5-0.3-0.9l0.2,0.2l0.1,0c-0.1-0.5-0.2-0.6-0.6-1.8
			c-0.1-0.4-0.1-0.4-0.5-1.2c0.1,0.3,0.1,0.3,0.4,1c-0.5-0.6-1.8-3.5-1.8-3.5c-0.1-0.1-0.1-0.3-0.2-0.4l-0.1-0.3l0.1,0.1
			c0.1,0.2,0.2,0.4,0.3,0.5l0.1-0.1l0,0c-0.2-0.6-0.7-1.2-0.7-1.8c0.4,0.5,0.5,1.1,0.9,1.5c0.1,0.2,0.2,0.5,0.3,0.7
			c0.4,1.1,1,2.2,1.4,3.3c0.1,0.2,0.2,0.4,0.2,0.6c0.2,0.4,0.2,0.5,0.3,0.6c0.1,0.4,0.3,0.7,0.4,1.1l0.1,0.2l0.1,0.1l0.1,0.2
			l0.1,0.2l0.1,0.1c0.1,0.3,0.2,0.6,0.3,0.9l0.1,0.2l0.1,0.3c0.2,0.4,0.3,0.8,0.4,1.2l0.1,0.2l0.1,0.1c-0.1-0.2-0.2-0.5-0.3-0.7
			c-0.1-0.2-0.1-0.4-0.2-0.6c-0.1-0.3-0.2-0.6-0.3-0.9c-0.1-0.2-0.2-0.5-0.2-0.6l0,0l0,0l0,0.1c-2.2-5.4-5.4-12.5-8-17.7
			C340.8,117.5,339.8,115.7,335.8,110.7 M309.3,100L309.3,100l-0.2,0.2c0,0.2,0.1,0.3,0.1,0.5l-0.1,0.1v0c0,0.1,0.2,0.2,0.2,0.3
			c0.1,0.2,0.1,0.4,0.2,0.6c0.1,0.2,0.2,0.3,0.4,0.5l0.3,0.1l0-0.2l-0.1-0.2c-0.2-0.5-0.2-0.5-0.2-0.5l0.2,0
			c0.1-0.1,0.1-0.1,0.1-0.1c-0.1-0.1-0.2-0.2-0.3-0.3l-0.1-0.2C309.7,100.6,309.7,100.6,309.3,100 M326.9,114
			c-0.2-0.2-0.3-0.5-0.6-0.8c-0.6-0.4-1-1-1.6-1.4l-0.1,0.1c0.1,0.2,0.5,0.7,0.4,1c-0.1,0-0.1,0-1.7-2c-0.1,0-0.3,0-0.4,0.1
			c-0.7-1-1.4-2.1-1.8-1.9c-0.1-0.1-0.2-0.2-0.4-0.3c-0.5-0.2-0.8-0.7-1.2-1c-0.5-0.4-0.8-0.9-1.3-1.3c-0.5-0.3-1.2-0.3-1.6-0.7
			l-0.4-1l0.2-0.1c-0.1-0.1-0.2-0.2-0.3-0.4c-0.3-0.4-0.3-0.8-0.6-1.2c-0.4-0.5-0.8-0.9-1.2-1.4c-0.5,0.1-1,0.1-1.5,0.2
			c-1.2-2.1-1.4-2.4-1.6-2.4l-0.1,0.1l-0.3,0.1c-0.2,0.1-0.3,0.1-0.7,0.1c0.1,0.2,0.1,0.2,1,1.4c0.3,0.4,0.8,0.7,1,1.2
			c-0.4,0.2-0.7-0.3-1.1-0.2c-0.1,0.2,0.5,1.4,1.7,1.6c0.1,0.1,0.1,0.2,0.2,0.4c0.1,0.1,0.2,0.2,0.3,0.3c0.2,0.4,0.6,0.6,0.8,1.1
			c-0.4,0.3-0.4,0.3,0.3,1.1c0.1,0,0.2,0,0.4-0.1l0-0.1c0,0,0.7,0.5,0.9,0.7l0.4,0c-0.3-0.4-0.3-0.4-0.5-0.7c0,0,1.4,1.2,1.6,1.8
			l-0.1,0l-0.1,0.2c0.3,0.3,0.3,0.3,0.7,0.7c0.3,0,0.6-0.1,0.9-0.1l-0.1-0.3c1.1,0.4,1.3,1.7,2.3,2.2c0.4,0.7,1.3,1,1.2,1.9
			c-0.4-0.1-0.7-0.3-1.1-0.2l-0.1,0l-0.1,0c0,0.1,0.1,0.3,0.1,0.4c0.1,0.1,0.1,0.3,0.2,0.4l-0.3,0c0.4,0.6,0.4,0.6,0.6,0.6
			c0.5-0.5,0.7-0.1,1.1,0.6l-0.2,0.1c0,0.2,0.1,0.4,0.2,0.7l-0.2,0.1h0l0,0l0,0h0h0l0,0l0,0h0c0.1,0.3,0.6,1.1,1,1.1
			c0.1-0.1,0.1-0.3,0.2-0.4l1.5,0.3c0,0,1,0.9-0.2,1c-0.2,0.2,0.1,0.4,0,0.7l-0.1,0l-0.3,0.2c0.7,1.2,0.7,1.2,0.5,1.8l0.3,0.2
			c0.1-0.1,0.2-0.1,0.4-0.3c0-0.1,0-0.1-0.1-0.6c0.1,0,0.1,0,0.6,0.2c0.2,0,0.4,0,0.5-0.1c-0.5-0.8-0.5-0.9-0.5-1
			c0.2,0,0.2,0,0.5-0.1c0.1,0,0.2,0.1,0.7,0c0-0.3,0-0.3-0.1-0.6l0.1-0.1c0.4,0.1,0.6,0.4,1,0.6l0.1-0.1c0.2-0.1,0.4-0.1,0.5-0.2
			c0-0.2-0.2-0.4-0.1-0.7l0.2,0l0.1-0.2c-0.3-0.5-0.7-0.8-1.1-1.3l-0.1-0.2c-0.2-0.3-0.2-0.3-0.2-0.4l0.2-0.1c0,0-0.2-0.4-0.4-0.8
			L326.9,114 M314.8,110L314.8,110L314.8,110L314.8,110 M317.5,110l-1.6-1.7c-0.3-0.3-0.5-0.3-0.5-0.2c-0.1-0.1-0.3-0.2-0.4-0.2
			h-0.1c-0.1,0.1-0.1,0.2-0.2,0.3c0,0.2,0.1,0.4,0.1,0.6c-0.3-0.2-0.7-0.5-1-0.7l-0.4,0.1c0.4,0.6,0.8,1.2,1.3,1.8l-0.1,0l0,0.2
			l-0.2,0.1l-0.2,0.3c-0.2-0.1-0.2-0.2-0.4-0.3l-0.2,0.1c0.6,0.9,1.2,1.7,1.7,2.6c0.3,0,0.3,0,0.7-0.1c0.3,0.4,0.5,0.8,0.8,1.2
			c-0.3,0.1-0.3,0.1-0.4,0.1c0,0.2,0.2,0.7,0.2,0.7c0.1,0.3,0.4,0.5,0.5,0.8l-0.1,0.2c0.3,0.9,1.2,1.4,1.3,1.2
			c0.2-0.4,0.3-0.4,0.7-0.1c0.1-0.1,0.1-0.1-0.1-1.4c0.6-0.1,1.1-0.1,1.6-0.2c-0.1-0.2-0.2-0.4-0.4-0.5c-0.1-0.2-0.1-0.2-0.3-0.4
			c-0.4-0.4-0.3-0.4-0.3-0.5l0.1-0.1c-0.2-0.6-1.1-1.9-1.7-2.6c-0.2-0.2-0.3-0.5-0.5-0.7h0.2C317.7,110.5,317.7,110.3,317.5,110
			 M362.2,170.9l-2.2-10.6c-0.6-1-0.9-2.1-1.6-3c-0.3,2.2,1,4.1,1.1,6.3c0,0-0.1,0-0.4-0.2c-0.2-0.5-0.5-1.1-0.8-1.5
			c-0.2,0.1-0.5,0.2-0.8,0.3l-7.1-13.6c-0.5,1-1.6,1.5-2.2,2.4c-0.9-1.3-0.9-1.3-1.8-1.4c-0.2,0.7-0.7,1.3-0.7,2.1
			c-0.6,0.1-1.2,0.2-1.7,0.5c0.2,1.8,0.2,1.8,0,2.4c-0.2,0-0.6,0-0.8,0c-0.1,0.2-0.4,0.4-0.5,0.6l-0.2,0c-0.2,0-0.5-0.1-0.8-0.1
			c0,0,0,0-0.2,0c-1.1,0.2-1.4,0.1-2.1-0.6c-0.2-0.1-0.4-0.2-0.6-0.2c-0.1,1.4,0.4,2.7,0.6,4c-0.5,0.1-1.1,0.2-1.6,0.2
			c0.3,1.2,0.6,2.5,0.9,3.7c-0.6,0.1-1.2,0.1-1.7,0.9c0.3,2,0.5,4,0.8,6c0.1,0.5,0.2,1.1,0.3,1.6c-0.5,0.1-1,0.1-1.5,0.2
			c0.2,1.4-0.6,2.7-0.9,4c-3.8,2.4-0.5,7-3.4,9.7c0,0,0,0-0.3,0.1c-0.2,0.1-0.5,0.1-0.8,0.2c0,0.4,0,0.4-1.3,7.1
			c0,0.6,0.1,1.1,0.1,1.7c0.8,0.1,1.7,0.1,2.6,0.2c0.1,0.2,0.2,0.5,0.3,0.8c-0.5,1.7-0.5,1.7-0.5,7.8c0,0.3,0,0.6,0,1.6
			c-0.3,1-0.3,1-1.2,2c0,1.1,0.3,2.1,0.4,3.2c0,0.3,0,0.6-0.1,0.9c-0.1,2.1,0.3,2.6,1.9,4.5c0.2,0,0.5,0,0.8,0.1
			c0.4,0.7,0.4,1.6,0.6,2.4c0.2,0,0.6,0.1,0.8,0.1c-0.5,3.9-0.5,3.9,2.6,5.7c-0.1,0.8-0.2,1.6-0.3,2.4c1.1,1,1.7,2.6,3.3,3.1
			c0.5-0.7,0.8-1.4,1.2-2.1c0.5-0.1,1.1-0.1,1.6-0.2l0.3,0c0.5-0.1,1.1-0.1,1.6,0.1c0.1,0.2,0.2,0.6,0.3,0.8
			c2.2-0.3,2.3-3.5,4.9-3.2c0.1,0,0.1,0,0.4-0.4c0.2-0.4,0.7-0.9,1.1-1.2c0.2,0.1,0.5,0.3,0.7,0.4c-0.2,3.2-0.2,3.2,0.3,3.8
			c0.8-0.2,1.6-0.4,2.3-0.6c-0.2,0.9-0.4,1.9-0.8,3.3c-5.9,22.1-9.2,32-20.9,49.3c-1,1.2-16.2,23.9-16.6,24.4l-2.1,2.1
			c20.8-19.2,33.2-41.4,38.9-54.8C367.8,219.8,364.9,188.3,362.2,170.9 M295.2,256c0.3-4.5-0.3-4.8-1-5.2c-0.6,0-1.2,0.1-2.2,0
			c-2.1-0.6-2.6-4.3-5.4-3.3c-0.8,0-1.7,0.1-2.8,0.1c-1.8-0.9-3-1.6-3.4,0.1c-0.5,0.3-1,0.6-2.3-0.2c0.1-0.4,0.1-0.4,1.3-1.2
			c-3-2-3-2-4.6-2.2c-0.2,0-0.3,0-0.9-0.2c-1-0.5-1.1-0.6-2.5-0.3c-0.1,0.7-0.2,1.4-0.3,2c-0.6,0-1.2,0-1.8,0c0-0.3,0.1-0.6,0.3-1.4
			c0.3-0.2,0.6-0.6,0.8-0.8c0.2-0.1,0.4-0.3,0.6-0.4c0-0.2-0.1-0.4-0.2-0.6c0,0-1-0.3-2.5-0.8c-0.2,0-0.3,0-0.5,0
			c-0.1,0-0.3,0-0.5,0c-0.2,0.1-0.4,0.2-0.5,0.3c-0.1,1.1-0.2,1.9-2,1.7c0-0.3,0.1-0.6,0.3-1.3c3-3.2,3-3.2,2.3-4.7
			c-0.4,0-0.9,0-1.2,0c0.1-0.8,0.1-1.6,0.2-2.4c-0.9-2.6-0.9-2.6-1.1-2.7c0,0-4.8-2.2-6-2.9c-1.2-0.6-2.3,0.2-3.5,0.2
			c-0.3,0-0.5,0-0.9,0c-4.4-0.7-4.7-1.7-5.6-4.3c-0.3,0-0.3,0-2.7-1.3c0-0.2,0-0.3-0.1-0.5c-1.7-0.2-1.6-1.2-1.5-2.2
			c-0.2,0-0.3,0-1,0.1c-2,0.6-2,0.6-2.5,0.5c-0.2-1.2-0.2-1.2-0.2-1.7c0.4-0.1,0.8-0.3,1.1-0.5c-0.5-0.6-0.5-0.8-2.2-1l-1.1,0.8
			c-0.1,0-0.2,0-0.4,0c-1-0.4-1.1-0.4-1.9-0.3c-1,2.1-1,2.1-1.8,2.2c-1-0.6-1.7-1.7-3-1.9c-0.8,0-1.6,0-3-0.2
			c-0.4-0.1-0.8-0.2-1.2-0.2c0-0.5,0-0.9-0.5-1.4c-1.4-0.1-2.5-1.7-4.1-1.1c0,0.8,0,0.9-0.7,1.7c-1.4-0.1-2.2,0.9-2.2,0.9
			c-0.6,1.4,0.6,2.7,0.1,4.1c-2.4-1.3-0.3-3.7-1.4-5.4c0.2-0.9,2.1-2.3,2.2-2.3l-0.2-0.5h-1.1c-1.4,0.3-1.7,0.4-1.6,2
			c-0.9,0-1.8,0-3.2,0.1c-0.7,0.5-2,1.7-4.7,1.6c0,0.9,0,1.8-0.2,2.9c-0.7,0.5-0.8,0.6-1.8,0.6c-0.7,1.3-0.8,1.6-0.9,2.2
			c-1.8,1.2-2.2,2.2-2.3,2.7c0.3,0.2,0.8,0.4,1.1,0.5c-0.1,1.9,2.1,4.2-0.2,5.6c-0.4,2.8-0.4,2.8-0.9,3.4c-0.4,0-0.9,0-1.3,0.1
			c0.1,0.5,0.2,1.1,0.3,1.6c-0.4,0.2-1,0.5-1.4,0.8c0,0.3-0.1,0.6-0.1,0.9c-1.3,0.3-2,0.4-2,2.6c-0.6,0-1.3,0-1.9,0.3
			c0.2,1.2-0.2,2.4,0.2,3.6c0.2,0.1,0.4,0.2,0.6,0.3c0.8-0.3,0.8-0.3,1.9-0.1c0,0.3,0,0.6-0.2,1.3c-0.6,0.2-1.3,0.3-1.9,0.6
			c0,1,0,1-1.3,1.8c-0.2,1-0.2,1,0.7,2.2c0,0.1,0,0.3,0,0.4c0.2,4.1,5.9,4.3,6.3,8.3c0,0.3,0,0.6,0.1,1c7.1,10.3,7.1,10.3,8,10.4
			c0,0,3.3,0.6,7,4.9c0.4,0,0.9,0,1.3,0c0,1.3-0.1,2.5-0.1,3.7c-0.1,0.4-0.1,0.9-0.1,1.2l-0.1,0.2c0,0.1,0,0.2,0,0.6
			c0,0.2,0.1,0.4,0.1,0.6c0,0.1,0,0.1-0.2,0.7c-0.1,0.3-0.2,0.8-0.1,1.1L221,286c0,0.1,0,0.3,0.1,0.7c0,0.2,0,0.4,0,0.6v0.2
			c0,0.1,0,0.2-0.3,0.8c0,0.4,0.1,0.8,0.3,1.2l0,0.3c0,0.1,0,0.2-0.2,0.5c-0.2,1.2-1.2,2.1-1.3,3.3c-1.2,3.7-1.2,3.7-1.6,4.6
			c0,0.1,0,0.1,0,0.3c0.8,4.4,1,5.4-1.1,7.1c0,0.2,0,0.4,0,0.7c0,0.2,0,0.4,0,0.6l0.1,0.2c-0.4,0.9-1.3,1.5-1.7,2.4
			c1,1.7,0.7,2.3-0.1,3.9c0.1,0.2,0.2,0.4,0.2,0.5c0.2,0.2,0.2,0.6,0.2,0.9c-0.2,0-0.4,0.1-0.6,0.2c-0.4,1.2-0.4,1.2-0.3,1.6
			c0.2,0.1,0.4,0.2,0.5,0.3c0.3,0,0.6,0,0.8,0l0.2-2c0.3,0,0.7,0,1,0c0,0.2,0,0.4-0.2,0.9c-0.1,0.1-0.4,0.2-0.5,0.4
			c0,0.4,0,0.8-0.1,1.2c-0.1,0.1-0.1,0.1-0.4,2.2c-0.3-0.1-0.5-0.4-0.7-0.6c0-0.1,0-0.1-0.1-0.6c0,0,0,0.1-0.4,0.1
			c0,0.2,0,0.4,0.5,0.9c0.2,0.3,0.3,0.7,0.4,1.1c-0.4-0.2-0.8-0.5-1.2-0.7c0,0.2,0,0.4-0.5,0.8c0,0.2,0,0.4,0,0.6
			c0.4,0,0.8,0.2,1.2,0.4c0,0.2-0.1,0.4-0.1,0.6c0.2,0,0.4,0.1,0.6,0.1c0.1,0.2,0.1,0.4,0.2,0.5c-1.2,0.1-1.2,0.1-1.7,0.4
			c0,0,0,0.1,0.2,0.5c0.1,0.1,0.3,0.3,0.4,0.4c0,0,0,0,0,0.6c0.1,0.3,0.4,0.7,0.6,0.9l-0.4,0.1l0.3,0.2c0.1,0,0.3,0,0.3,0.5
			c0.2,0,0.4,0.1,0.6,0.1l0,0.1l-0.1,0.2c0.4,0.7,1.2,1,1.7,1.6c0.2,0,0.4,0,0.6,0.1c0,0,0,0.1,0.3,0.3c0.4,0.1,0.8,0.1,1.2,0.2
			c0.1,0,0.1,0,0.5,0.1c0.4,0,0.9,0,1.6,0c0.2-0.2,0.5-0.3,0.7-0.4c-0.3-0.1-0.8-0.2-1.2-0.2c0-0.1,0.1-0.2-0.5-0.3
			c-0.1-0.3-0.1-0.8-0.2-1.1l0-0.1c0-0.3-0.1-0.8-0.2-1.1c0,0,0-0.1,0-0.3c0-0.2,0-0.3,0.2-0.9c0.3,0,0.7,0,1-0.1
			c0-0.2,0-0.4,0.1-0.6c1-0.7,1.8-1.5,2.9-2c0-0.1,0.1-0.2-0.4-0.4c-0.2,0-0.4-0.1-0.6-0.1c-0.9-0.9-0.9-0.9-1-1.3
			c0-0.1,0-0.1,0.2-0.4c0.3-0.2,0.8-0.5,1.1-0.6c0.5,0,1,0,1.5,0c0.1-0.4,0.2-0.8,0.5-1.4c0.4-0.4,0.4-0.4,1-1.5
			c1.1,0.1,1.1,0.1,1.6-0.5c0-0.1,0-0.1-0.2-0.4h0h0l0,0h0h0h0h0c0,0,0,0-0.1,0c-0.3,0.2-0.8,0.3-1.1,0.2c0-0.4,0-0.8,0-1.2
			c0-0.2,0.1-0.5,0.1-0.7c0.2,0,0.3,0,1,0.2c0.1,0.1,0.4,0.2,0.5,0.3c0.6,0,1.2,0,1.8-0.5c0-0.1,0-0.2,0.2-0.5
			c0.1-0.1,0.3-0.2,0.5-0.3c0.1-0.3,0.1-0.8,0-1.2c0-0.2,0.1-0.4,0.1-0.6c0.5,0,0.9,0,1.7-0.1c0.2,0,0.4,0,0.7,0
			c0.4-0.1,0.8-0.2,1.2-0.3c0.5,0,1,0,1.9,0.2c0,0,2.4-1.6,3.4-2.5l0.5-0.5c0.1-0.3,0.2-0.5,0.3-0.8c-0.1,0-0.2,0-0.6,0
			c0.1-0.2,0.1-0.4,0.3-0.9c-0.4-0.5-0.4-0.5-1.4-1.1c0-0.2-0.1-0.4-0.1-0.6c0.4,0,0.8,0,1.3,0c4.8,0.8,4.8,0.8,6.7-0.9
			c5.4-4.8,5.4-4.8,5.5-4.8c-0.2,0.3-0.5,0.7-0.7,1c0.5,0,6.9-4.6,6.8-6.8c-0.1-1.2-0.1-2.4,5.7-5.6c0.6,0,1.2,0,1.7-0.1
			c0.2-0.1,0.2-0.1,2.1-1.3c1.5,0,2.9-0.1,4.5-0.5c0.2-0.3,0.5-0.7,0.7-0.9c0.6-0.2,0.6-0.2,5.4-5.7c0.3-0.1,0.3-0.1,2.1-3.4
			c0-0.1,0.1-0.2,0.4-0.7c0.9-1.1,1.2-1.7,1.5-2.6c0.1-0.2,0.1-0.4,0.2-0.9c0-0.2,0.1-0.4,0.1-0.6c0.1-0.3,0.2-0.6,0.3-1.2
			c0.2-0.8,0.5-1.6,1.3-2.5c0,0,4-3.3,5.1-4.3l3.6-4.1C294.9,256.9,294.9,256.9,295.2,256 M234.9,201.7l0.1-0.1
			c-0.3-0.3-0.8-0.1-1-0.5c-0.2-0.5,0.1-0.9,0-1.4c-1.8,0.4-1.9,0.4-2.9,0.4c-0.3,0-0.7,0-1,0c-0.5-0.1-0.9-0.4-1.5-0.5
			c-0.2,0-0.3,0-0.5,0c-0.4,0.1-0.6,0.6-1,0.7c0,0-1.5,0-1.7,0c-0.7,0-0.9-0.7-1.6-0.8c-0.8-0.2-1.2-0.9-2.1-0.9l-3.5-0.2
			c-0.5,0-0.5,0-1.9,0.2c0,1,0,1.9,0,2.9c0.4,0.4,1.5,1.6,1.9,1.7c0.3,0,0.6,0,1,0c1.2,0.1,1.9-1.2,3.1-1.2c0.6,0,1.1,0.3,1.6,0.3
			c0.6,0,1.1-0.3,1.6-0.2c1.7,0,3.5-0.3,3.7-0.4c0.4-0.2,0.6-0.2,1,0c0.4,0.1,2.1,0.3,2.4,0.4c0.3,0,0.7,0,1,0
			C234.3,202.1,234.6,201.9,234.9,201.7 M208.9,202.8l0.1-0.1c-0.1-0.3,0.1-0.7-0.2-1c-0.2-0.2-0.6-0.1-0.8-0.2
			c-0.3-0.1-0.5-0.4-0.8-0.5l-0.3-0.1c-0.9,0-1.9,0-2.8,0c0.2,0.3,0.3,0.6,0.5,0.9l0.3,0.3c0.2,0.1,0.2,0.1,0.8,0.1
			c0.4-0.1,1.3,0.5,1.3,0.5c0.2,0.1,0.2,0.3,0.2,0.6c0,0.2,0,0.3,0.1,0.4c0.3-0.1,0.6,0.2,1,0C208.3,203.5,208.3,203.5,208.9,202.8
			 M206,197.2c2.5,0,4.9,0,7.4,0c-0.6-1-2.6-2.8-3.8-3c-0.3,0-0.6,0-1.1,0c-1,0-2.1,0.3-3.1-0.1c-0.7-0.3-1-1-1.5-1.4
			c-0.9-0.6-1.9-0.9-2.8-1.5c-1.1-0.6-1.1-0.6-1.3-1c-0.1-0.3-0.2-0.5-0.9-0.6c-0.8,0-1.5,0-2.3,0.1c-0.1,0-0.1,0-1,0.4
			c-0.4,0.2-0.8-0.1-1.2-0.2c-0.7,0-1.3,0-2.1,0c-1.8-0.1-1.8-0.1-2,0.1c-2.1,1.6,1.2,4.4,3.6,3.2c0.6-0.3,1-0.9,1.6-1.1
			c0.1,0,1.2,0,1.7,0.1c0,0,2,0.6,2.2,1.6c0.1,0.4,0.2,0.4,0.4,0.6c0,0,1.9,0.7,2.3,0.6c0.6-0.1,0.8,0.1,1.1,0.6
			C203.7,195.9,204.5,197.1,206,197.2 M289.8,86.7c-0.4-0.4-0.8-0.8-1.2-1.2c-0.3-0.2-0.5-0.4-0.8-0.5c-0.7-0.3-0.7-0.3-0.8-0.2
			l-0.1,0c-0.4-0.3-0.7-0.8-1-1.1c-0.3-0.3-0.6-0.5-0.9-0.7c-0.3,0-0.5,0.1-0.8,0.1c-0.3,0.1-0.2,0.3-0.2,0.4c0,0,0.2,0.5-0.1,0.6
			l0.1,0.2c-0.5,0.1-0.9-0.2-1.4-0.2c-0.7,0.1-0.7,0.4-0.7,0.6c0,0.2-0.1,0.2-0.2,0.3c-0.2,0-0.5,0-0.7,0.1
			c-0.2-0.2-0.4-0.4-0.6-0.6c-0.2-0.2-0.4-0.4-0.6-0.5c-0.3-0.2-0.6-0.3-0.8-0.5l-0.2,0.2c0.2,0.2,0.4,0.4,0.6,0.6
			c-0.8-0.2-0.8-0.2-0.8-0.2c-0.2,0-0.9,0.1-1,0.4c-0.1,0.6,1.1,1.6,1.5,1.3l0.1-0.3c0.9-0.2,1.8,0.7,2.5,1.3
			c-0.5-0.1-1.4-0.2-2,0.1c0.3,0.3,0.6,0.6,0.9,0.9l0.3-0.2c0.3,0,0.5,0,0.8-0.1l0.2,0.1c0.3,0.4,0.7,0.8,1.1,1.2l0.7,0.6
			c0.1,0,0.3,0,0.4,0c0.6-0.2,0.6-0.2,1.1-0.2c0.1,0,0.3,0,0.4,0c0.7-0.2,1,0.5,1.6,0.7c0.7,0.3,1.2,0.1,1.5,0l-0.1-0.7
			c-0.3-0.6-0.3-0.6-0.4-0.8c-0.1-0.2-0.1-0.2,0-0.3l0.3,0c0.1-0.4-0.4-0.7-0.1-1C288.5,86.8,288.5,86.8,289.8,86.7 M255.6,128.2
			l0.1-0.2c-0.1-0.2-0.3-0.6-0.4-0.8c-1,0-1,0-1.3-0.2c0,0-1.3-0.6-1.7-1.1c-0.2-0.2-0.4-0.4-0.6-0.5c-0.5-0.2-1.1,0-1.6-0.2
			c-0.3-0.1-0.6-0.3-0.9-0.4c0.2-1.3,0.2-1.3,0.3-1.6c0.1-0.2,0.4-0.2,0.6-0.3c0.1-0.1,0.5-0.8-0.1-1.3c-0.2-0.2-0.2-0.2-0.3-0.4
			c-0.2,0-0.4,0-0.6,0c-0.1,0-0.8,0.2-0.9,0.5c-0.2,0.3,0.1,0.5,0.1,0.7c0,0.3,0,0.6,0,1c0,0.2,0,0.3,0,0.3c0,0-0.9,1.7-2.4,3.3
			c-0.4,0.4-0.7,0.8-0.9,1.2c-0.1,0.3-0.2,0.7-0.1,1.2c0,0.3,0.3,0.6,0.3,0.9c2,0,4-0.1,6-0.1c0.5,0,0.7,0.1,1.5,0.8
			c1.2,1.1,1.7,1.3,2.3,1.6c0.1-0.1,0.1-0.2,0.4-0.3c0.2-0.1,0.6-0.3,0-2.1C255.2,129.2,255.2,129.2,255.6,128.2 M238.8,126
			L238.8,126c-0.2-0.2-0.4-0.3-0.7-0.4c-0.2,0-0.4,0-0.4,0c-0.4,0-0.5,0-0.7-0.1c-0.7-0.3-1-0.6-1.1-0.7c-0.3-0.3-0.4-0.4-0.7-0.4
			c-0.2,0-0.4,0.1-0.6,0c-0.2,0.1-0.5,0.3-0.8,0.4c0.3,0.1,0.6,0.2,0.8,0.4c0.3,0.2,0.4,0.5,0.6,0.7l0.2,0.1
			c0.2,0.2,0.5,0.3,0.8,0.5c0.2,0.2,0.4,0.4,0.6,0.5c0.2,0.1,0.3,0.2,0.5,0.2C237.6,127.3,238,127.4,238.8,126 M234.6,56
			c-0.5-0.1-1.1-0.1-1.6-0.2l-0.4,0l0,0h0v0h0l0,0l0,0h0v0c0.5,0.2,1.1,0.2,1.6,0.5c-0.3,0-0.5-0.1-0.8-0.1c0.6,0.2,0.6,0.2,0.9,0.3
			l0,0h0v0h0h0h0h0l0.1,0.1c0.5,0.2,1.1,0.4,1.6,0.7c-0.8-0.2-1.6-0.6-2.4-0.8c-0.3-0.1-0.5-0.1-0.9-0.2c-0.7-0.3-1.6-0.4-2-0.5
			l-0.1,0.1l-0.3,0c1.3,0.3,1.4,0.4,1.7,0.5l-0.3,0l0.2,0.1c-0.4-0.1-0.7-0.2-1.1-0.3l-0.1-0.1c-0.2-0.1-0.5-0.1-0.7,0
			c-0.1,0-0.2,0-0.5,0.1l0.2,0.1h0l0,0h0l0,0h0h0v0l0,0h0h0l0,0h0l0,0h0l0,0l0.1,0.1c-0.9-0.3-1.2-0.4-1.3-0.5c0.3,0,0.5,0,0.6-0.1
			l-0.3-0.1c0.2,0,0.4,0,0.6-0.1c-0.2,0-0.4-0.1-0.5-0.2c0,0,0,0-0.1-0.1c-0.3-0.1-0.5-0.1-0.8-0.2l-0.1,0l0,0c0,0-1-0.1-1.7-0.2
			c0,0,0,0,0.2,0.1c-0.1,0-0.1,0-0.2,0c-0.2,0-0.4-0.1-0.6-0.1l-0.2,0l0,0l-0.1,0l-0.1,0l0.3,0.1l-0.3,0l-0.3-0.1l0.1,0
			c-0.2,0-0.4-0.1-0.5-0.1c0.3,0,0.6,0,0.8-0.1c-0.6-0.1-0.8-0.1-1.1-0.2l-0.1,0c-0.2,0-0.4,0-0.6,0c0,0,0,0-0.1,0
			c-0.2,0-0.4,0-0.6,0c0.1,0,0.3,0.1,0.5,0.1l-0.1,0l0,0.1c0.9,0.2,0.9,0.2,1.1,0.3l-0.3-0.1l-0.2,0c-0.6-0.1-0.6-0.1-0.8-0.2
			L223,55c0,0,0,0-0.2,0l-0.3,0l0,0l0.1,0.1l0.3,0.1l0.1,0l0.1,0c0,0,0,0,0.2,0l0.1,0l0.1,0c0.2,0.1,0.4,0.1,0.6,0.2l-0.1,0l-0.1,0
			l-0.1,0l0,0l-0.1,0l-0.1,0l-0.1,0h0l-0.1,0l0,0l-0.1,0l-0.1,0l0.1,0l0.1,0l0.3,0.1l0.1,0c0.1,0,0.3,0.1,0.4,0.1l0,0l0.1,0l0.1,0
			h0.1l0.1,0l0.1,0l0.3,0.1l0.4,0.1l0.1,0.1l0.1,0l0.1,0l0.3,0.2l-0.2,0l-0.1,0l0,0l-0.3-0.1l-0.1,0l-0.1,0l-0.2-0.1
			c-0.2,0-0.4-0.1-0.5-0.1l-0.1,0l-0.1,0l-0.1,0l-0.1,0l-0.1,0l-0.3-0.1h0l-0.1,0l-0.1,0l-0.1,0l-0.1,0c-0.2,0-0.4,0-0.5,0
			c0.2,0.1,0.4,0.1,0.5,0.2h0l0.1,0l0.3,0.1l0.1,0l0.1,0.1l0.3,0.1l0.1,0l0.4,0.2l0.1,0.1l-0.1,0l-0.1,0l-0.1,0l-0.1,0l-0.1,0
			l-0.1,0l-0.1,0l-0.1,0l-0.1-0.1l-0.4-0.1l-0.1,0l-0.1,0l-0.3-0.1l0,0c0,0,0,0-0.2,0l-0.1,0l-0.1,0l-0.1,0l-0.1,0l-0.1,0l-0.1,0
			c0,0,0.1,0,0.3,0.2c0.2,0.1,0.3,0.2,0.5,0.3l0.1,0.1l0.1,0l0.1,0l0.3,0.3l0.1,0.1l-0.4-0.1c0,0-0.1,0-0.2-0.2l-0.2-0.2l0,0l-0.1,0
			l-0.1,0l-0.1,0L223,56l-0.1,0l-0.1,0l-0.2-0.1l-0.1,0l-0.1,0l-0.1,0l-0.2,0l0,0l0,0.1l0,0l0,0l0,0h0l0,0v0l0,0l0,0l-0.2,0l0,0l0,0
			l0,0c0,0,0,0-0.2,0l0,0l0,0l0,0l0,0.1l0.1,0l0,0l0.1,0l0,0l0,0h0h0l0,0h0h0l0.1,0l0.1,0l0.1,0l0.1,0l0.1,0l0.1,0.1l0.2,0.1h0.1
			l0,0h0l0,0l0,0h0l0,0h0l0,0l0.1,0l0.2,0.1l0.1,0l0.2,0.1l0,0.1h-0.1l-0.1,0l0,0l-0.2-0.1l-0.1,0l-0.1,0l-0.1,0l-0.2-0.1l0,0h0
			l-0.3-0.1l-0.2-0.1l-0.1-0.1l-0.1,0l-0.1,0l-0.1,0l-0.1,0l0,0l0,0v0l0,0l0,0.1l0,0l0.2,0.2l0.1,0.1l0.1,0l0,0
			c0.1,0.1,0.2,0.3,0.4,0.4c-0.1,0-0.2,0-0.4,0l-0.1,0l-0.1-0.1c-0.1,0-0.3,0-0.5,0l0,0.2l-0.2,0.3l0,0.2l0,0l-0.2,0l0,0h-0.1l0,0
			l0,0.1l0,0l0,0l0,0.1l0,0h0l0,0l0,0.2l0,0.1l0,0.2c0,0,0.1,0,0.3,0.1l0.1,0l0.1,0.1h0.2l0.3-0.1l0,0l0.2,0l0.1,0.2l0.1,0.1l0,0.1
			l0.1,0.1c0,0.1,0.1,0.2,0.2,0.4l0,0.3l0,0.1l-0.2,0.1l-0.1,0l-0.3,0.1l-0.1,0.1h-0.3l-0.3-0.1c-0.1,0-0.3,0-0.5,0.1l0,0.1
			c0,0,0,0.1-0.1,0.2l0,0c-0.1,0-0.2,0-0.4,0.1c-0.3,0.1-0.5,0-0.8,0.1l-0.1,0l-0.1,0l-0.1,0l0,0.1l0,0.1l0,0.1l0,0.1l-0.1,0h-0.3
			c-0.2,0.3-0.2,0.3,0.2,0.8c0.4,0,0.5,0,0.7,0.3c0.2,0,0.4,0,0.7,0l0.3,0.2l0.1,0c0.1,0.1,0.3,0.2,0.5,0.2h0.2l0.2-0.1l0.1,0
			c0.1,0,0.2,0,0.4,0l0.3-0.1c0,0,0,0,0.2,0l0,0c0,0.1,0.1,0.2,0.1,0.5l-0.1,0l-0.2,0.2h-0.1h-0.1l-0.1,0h-0.1l-0.1-0.1l-0.1,0h-0.2
			h0h0h0h0l0,0h0h0c0,0,0,0-0.2,0l-0.3,0.1h-0.1c-0.1,0-0.4-0.1-0.5-0.1h-0.1l0,0.2c-0.2,0-0.3,0-0.4,0l-0.1,0.2l0.2,0.2l0.1,0.1
			c0.4,0.2,0.8,0.3,1.2,0.5l-0.1,0.1l-0.1,0.1l0,0.1l0.1,0.1l0.2,0.1l0.1,0.1l0.1,0.1l0,0.1l0.1,0l0.1,0l0.1,0l0.3,0.1l0.1,0
			l0.1,0.1l0.4,0.1h0h0.1l0.1-0.1l-0.1-0.1c-0.1-0.1-0.2-0.2-0.2-0.4c0,0,0.1,0,0.3,0c0.2,0,0.4,0,0.5,0.1l0.1,0l0.1,0l0.1,0.1
			l0.1,0l0-0.2h0.3l0.1,0.1c0.2,0,0.4,0.1,0.5,0.1l0-0.1l0.1,0l0.1,0l0.1,0h0h0h0h0l0,0h0h0l0,0h0l0,0l0,0h0h0l0,0h0l0.1,0l0-0.1
			c0.2-0.2,0.3-0.1,0.6,0.1l0.1,0l0.2,0l0.3,0h0.1c0.1,0,0.3,0.1,0.4,0.2l0.1,0.1l0.1,0l0.1,0c0.2,0,0.4,0,0.5,0l0.1,0
			c0.1,0,0.3,0.1,0.4,0.2l0.4,0.1l0.1,0h0.1l0.4,0.3l0.3,0.1c0,0,0.1,0,0.3,0l0.3,0.2c0.1,0.2,0.2,0.4,0.4,0.7l0.2,0.2l0.1,0.1
			l0.1,0.1l0.1,0h0.1l0.1,0.1l0.1,0l0.2,0.1l0.3,0.3l0.1,0.1c0.1,0.1,0.3,0.2,0.4,0.3l0.2,0.1l0.2,0.1l0.1,0.1c0.1,0,0.1,0,0.5,0.5
			c0.1,0.1,0.3,0.3,0.5,0.4l0.1,0.1l0.4,0.3c0,0,0,0,0.1,0.2c0.1,0.2,0.1,0.2,0.6,0.6c0.1,0.2,0.2,0.4,0.3,0.6c0,0.1,0,0.4,0.1,0.5
			c0.2,0,0.3,0,0.5,0c0.1,0.2,0.2,0.3,0,0.5l-0.2,0.2c0.1,0.3,0.4,0.6,0.5,0.9c-0.1,0-0.3,0-0.4,0c0.1,0.2,0.1,0.3,0.3,0.5
			c0.2,0.2,0.3,0.3,0.8,0.4c0.1,0,0.1,0,0.5,0l0.3,0.1c0.4,0,0.7,0,1-0.1l-0.1-0.3c1.1-0.7,1.6,1.1,2.6,1.1h0h0h0l0,0h0h0h0l0,0
			c0.9,0.4,1.2,0.7,1.4,0.9l0.1,0.3c-0.1,0-0.3,0-0.5,0l-0.3-0.1l-0.5,0h-0.1c-1,0.1-1.9-0.8-3-0.3c0.3,0.4,0.8,0.6,1.1,1l-0.1,0.2
			l-0.3,0c0,0-0.7,0.4,0,1c0.6,0.5,1.4,0.4,2.1,0.8l0.3-0.1c0.1-0.2,0.2-0.4,0.3-0.5c0.3,0,0.3,0,0.8,0c-0.2-0.3-0.3-0.6-0.6-0.9
			c-0.3,0-0.5-0.1-0.8-0.1l-0.2-0.2c-0.2,0-0.4,0-0.5-0.1l0-0.3c0.2,0,0.3,0,0.6,0c0.6,0.3,0.6,0.3,1.3,0.4c0.2,0,0.3,0,0.7,0
			c0.3,0.1,0.4,0.1,0.7,0.4l0.1,0.1l-0.1,0.2l0.1,0.2l-0.1,0.3c0,0,0,0.1,0.1,0.2c0.7,0.4,0.7,0.4,0.9,0.7c0.1,0.3,0.3,0.5,0.4,0.8
			c-0.2,0-0.4,0-0.7,0l-0.3,0c-0.1,0.1-0.2,0.3-0.2,0.5h-0.3h0c-0.1,0-0.2,0-0.3,0l-0.2-0.1L242,80c0.2,0.4,0.4,0.9,0.4,1.3
			c-0.2,0-0.4-0.1-0.6-0.1c-0.1,0.3-0.1,0.3-0.6,0.5l-0.1,0.2l0.1,0.3c0,0.1,0,0.1,0.1,0.3c0.6,0.7,1.8,0.6,2.2,1.6
			c-0.2,0-0.4,0.2-0.5,0.3c0,0,1,2.3,2.3,1.8l0.1-0.3h0.3c0.1,0,0.2,0,0.5,0.1c0.3,0.2,0.3,0.2,0.4,0.7c-0.1,0-0.2,0-0.3,0l-0.2,0.2
			c1.2,2.3,1.2,2.3,1.6,2.3c0.3-0.3,0.3-0.6,0.5-0.9c0.2,0,0.4,0,0.6,0c0.2,0.4,0.4,0.8,0.5,1.3c-0.1,0.3-0.4,0.4-0.6,0.6
			c-1,1.2,7.7,7.8,8.8,7.7c0.1,0,0.2,0,0.5-0.1c0.1-0.1,0.4-0.1,0.5-0.2l0.2,0c1.9,0.4,4.8,3.8,5.7,1.3l-0.1-0.3
			c-0.1-0.1-0.1-0.2-0.3-0.5c-0.4-0.9,0.2-2-0.4-2.9c-0.5-0.8-1.4-1.3-1.7-2.2l-0.1-0.3c0.1-0.1,0.4-0.2,0.5-0.2
			c0.1,0,0.2,0,0.5-0.1c0.2,0,0.4-0.1,0.5-0.2c-0.5-0.8-0.5-0.8-0.2-1.3l0.3,0l0.1-0.2c-0.3-0.5-0.6-1-0.9-1.6
			c0.2-1.1-1.2-1.1-1.4-1.9c0.8-0.1,0.8-0.1,1-0.4c-0.1-0.4-0.4-0.6-0.5-1c0.5,0,1,0,1.5-0.1c-0.5-0.6-0.5-0.7-0.8-1.1
			c0.3,0,0.6,0,0.8,0c0.5,0.8,0.5,0.8,0.9,1.2c0.4-0.1,0.4-0.1,0.9,0c0.2-0.4,0-0.9,0.3-1.3l0.3,0c0.4,0,0.5-0.1,0.7-0.3l-0.2-0.2
			c-0.1-0.5-0.1-0.5,0.1-0.9c-0.1-0.1-0.1-0.4-0.2-0.5l0.2-0.1c-0.1-0.3-0.1-0.3-0.3-0.8l0.2-0.2c-0.1-0.1-0.2-0.2-0.3-0.3l-0.1-0.3
			l0.2-0.2c-0.2-0.3-0.2-0.3-0.8-0.9l0,0c0,0,0,0,0.3,0l0.1,0l0.1,0l0.1,0l0.2,0.1l0.1,0l0.2,0.1c1.9,0.5,1.9,0.5,2.5,0.3
			c0.2-0.4,0-0.8,0-1.2c0.1-0.1,0.4-0.1,0.5-0.1c0.1-0.1,0.3-0.2,0.4-0.3l0.1-0.2c0,0,0,0,0.2-0.1c0-0.6-0.6-0.9-0.5-1.5
			c0.3,0,0.6,0,1-0.2c-0.2-0.6-0.3-0.8-0.6-0.9l-0.3,0l0.1,0.2l0.1,0.3c0,0-0.1,0-0.2,0c-0.5-0.1-0.9-0.6-1.4-0.6l-0.2,0
			c-0.9,0-1.6-0.2-2.3-0.8c-0.2-0.2-0.4-0.3-0.4-0.6l0,0c0.4,0,0.5,0,0.8-0.2c0-0.2-0.1-0.4-0.2-0.5c1,0.2,1.6,1.1,2.5,1.5l0.3-0.2
			c-0.1-0.1-0.3-0.3-0.4-0.5c0.2-0.1,0.5-0.2,0.7-0.3c0,0-3-2.1-6-3.2l-0.1-0.3c0.9,0.5,0.9,0.5,1.2,0.5c0,0,0.1,0,0.4-0.1
			c-0.4-0.3-0.8-0.6-1.2-0.9c-0.1-0.1-0.2-0.1-0.4-0.2c-0.8-0.6-1.2-0.9-1.7-0.7l0.1,0.2c-0.2,0-0.3,0-0.6-0.1
			c-0.1-0.1-0.2-0.3-0.3-0.5c-0.1-0.1-0.1-0.1-1-0.4l-0.1-0.2c0.2,0,0.4,0,0.6,0c0.3,0.2,0.6,0.4,0.9,0.6c0.2,0,0.4,0,0.6-0.1l0-0.3
			c0.1,0,0.1,0,0.3,0c0.2,0.1,0.4,0.1,0.6,0c-0.4-0.4-0.9-0.9-2.1-1.1l-0.1,0.2c-0.7-0.2-0.8-0.3-1-0.6c0.5,0.1,0.5,0.1,0.8-0.1
			l-0.3-0.3l0.3,0.1c0.1,0,0.1,0,0.3-0.2c-1.2-0.6-2.5-0.9-3.6-1.6L256,65l0.3,0c-0.3-0.2-0.7-0.4-1.2-0.6c-1.3-0.6-2.8-0.8-4-1.4
			c-0.1,0-0.1-0.1-0.3-0.2l-0.2-0.2l0.2-0.1c0.1,0,0.1,0,0.4,0c0.6,0.2,0.6,0.2,0.9,0.3l0.2,0.1c1,0.5,1,0.5,2.2,1.1l0-0.1
			c-0.9-0.5-1.9-0.9-2.9-1.4c-0.2-0.1-0.3-0.2-0.5-0.3c-0.1,0-0.1-0.1-0.3-0.1c-0.3-0.1-0.5-0.2-0.8-0.3l-0.2,0.1c0,0-0.1,0-0.4,0
			c-0.4-0.2-0.7-0.3-1.1-0.5l0.3,0.1l0.1-0.1c0,0-1.3-0.5-1.8-0.3c0.2,0.1,0.3,0.2,0.5,0.3c-0.5-0.2-1.3-0.5-1.5-0.7
			c-0.1-0.1-0.1-0.1-2.2-1l0.2,0c-0.8-0.3-0.8-0.3-1.1-0.5l-0.1-0.1c-1.3-0.5-2.6-1.2-3.9-1.6l-0.5-0.1c-0.2,0-0.3,0-0.5,0
			c-0.2-0.1-0.6-0.2-0.8-0.3c0.2,0,0.4,0.1,0.5,0.1l-0.1-0.1c-1.1-0.3-1.1-0.3-1.4-0.4l0-0.1C235.6,56.3,235.2,56.2,234.6,56
			 M220.7,55.8l-0.3-0.2l-0.1,0.1l-0.2,0l-0.2-0.2l-0.4-0.2l-0.1,0.1h-0.2l-0.2,0.1l-0.1-0.2l-0.3,0c-0.1,0-0.1,0-0.2-0.2
			c-0.1,0-0.2-0.1-0.4-0.1c0,0.1,0,0.2,0,0.3l-0.1,0l-0.2-0.2l-0.1,0c0,0.2,0,0.2-0.1,0.2c-0.2,0-0.2-0.2-0.3-0.3l-0.3-0.1
			c0,0-0.1,0.1-0.2,0.4h-0.1l-0.1-0.2h-0.2l-0.1,0.2l-0.2,0c0,0,0,0-0.6,0.1l-0.3,0.3l0.3,0.1c0.1,0.1,0.1,0.1,0.3,0.2l-0.1,0.3
			c-0.1,0-0.1,0-0.2,0l-0.1-0.3c-0.1,0-0.2,0-0.3,0l-0.1,0c0-0.1,0.1-0.2,0.1-0.3l-0.3,0l0-0.2l-0.1,0l-0.2,0
			c-0.2,0.1-0.4,0.3-0.6,0.4l-0.2,0l-0.1-0.1h-0.1c-0.5,0.2-0.5,0.2-0.6,0.3h-0.1l-0.2,0l-0.3,0.2l-0.3,0l-0.3,0.2l0.1,0.1l0,0.1
			l-0.4,0.3l0.2,0.1c-0.2,0.2-0.2,0.2-0.1,0.3c0.3,0,0.4,0.2,0.7,0.2l0.5-0.3l0.3-0.2l0.4,0l-0.5,0.2l-0.5,0.3l-0.3,0.4
			c1,0,1,0,1.6-0.4l0.3,0.1c0.2,0,0.3,0,0.5,0l0.4-0.3l0.3-0.2l0.2-0.2c0.2,0,0.2,0,0.6-0.2l0.3,0.1l-0.2,0
			c-0.3,0.2-0.5,0.3-0.8,0.5l0.4,0l0.2,0.1l0.2,0l-0.2,0.2c-0.1,0-0.3,0-0.4,0l-0.4,0l-0.3,0.1c-0.3,0-0.5,0.1-0.8,0.2h-0.3
			l-0.3,0.1l-0.2,0.3l0.3,0.1l0.1,0.2l0,0.3l0.6,0.1l-0.3,0.1c-0.1,0-0.3,0-0.4,0c-0.4-0.8-0.4-0.8-1-0.9l-0.6-0.1l-0.3,0.3l0,0.3
			l0.1,0.4l0.3,0.6l0.3,0.3c0.2,0,0.5,0.1,0.7,0.1c-0.2,0.2-0.5,0.2-0.7,0.4c-0.1,0.1-0.1,0.3-0.2,0.4l-0.4-0.6l-0.4-0.1l-0.6,0.1
			l-0.5,0.1l-0.6,0.2c-0.1,0.1-0.2,0.3-0.3,0.4l-0.2,0.3l0.4,0.1l0.7,0l0.6-0.1l-0.7,0.3l-0.1,0.4c0.6,0.1,0.7,0.1,1.8-0.6l-0.4,0.5
			l-0.7,0.4l-0.6,0c-0.2-0.1-0.6-0.2-0.7-0.4c0,0-0.1-0.3-0.3-0.3c0,0-0.1,0-0.8,0c-0.4,1-0.4,1-1.2,1.2l-0.6,0.5l0.1,0.7l0.5,0.3
			c0.3-0.1,0.7-0.3,1-0.3c0.4-0.1,0.7,0.3,1.1,0.3c0.3,0,0.5-0.3,0.8-0.4c0.2,0.2,0.2,0.2,1.2,0.1c0.2,0,0.4,0,0.6,0
			c0,0.1,0,0.1-0.2,0.5l0,0.1c0.2,0.1,0.5,0.1,0.8,0c0.2,0,0.3,0,0.5,0c1.3-0.6,1.3-0.6,1.6-1l0-0.5l-0.7,0.3l0-0.6l0.6-0.1l0.3-0.6
			l-0.1-0.5c0.1,0,0.2,0,0.4,0c0.9,0.1,0.9,0.1,1,0c0.3-0.3-0.1-0.6-0.1-0.9l0.1,0c0.2,0,0.3,0,0.6,0c0.2,0,0.2,0,0.2,0
			c0-0.1,0.1-0.2-0.2-0.5c-0.3,0-0.5-0.3-0.8-0.3l-0.4,0.2l-0.4,0.2v-0.4c0.1-0.1,0.3-0.1,0.5-0.2c0-0.1,0-0.1,0.5-0.4
			c0.1,0,0.3,0,0.4,0l0.1,0.3c0.7,0.1,0.7,0.1,1.3-0.3l-0.4-0.4l0.5,0l0.2,0.3l0.4,0l0.5-0.2l-0.2-0.5l-0.3-0.2h0.5h0.3L219,58
			l0.3-0.1c0.3-0.3,0.7-0.5,0.8-0.9l0.3,0l0.1-0.2l-0.3-0.2c0,0-0.2,0.2-0.4,0.3c-0.2-0.1-0.2-0.1-0.7-0.1l0-0.2l0.3-0.1
			c0.1,0,0.2,0,0.4,0c0.1,0,0.2,0,0.4,0c0.1-0.1,0.3-0.1,0.4-0.3l0.3-0.1C220.8,55.9,220.8,55.8,220.7,55.8 M211.2,59.7
			c0.1-0.2,0.2-0.3,0.4-0.5c-0.5-0.3-0.5-0.3-0.6-0.3l0.1-0.3l0.2-0.3l-0.1-0.2c-0.3,0.2-0.3,0.2-0.4,0.2c-0.2-0.2,0.2-0.3,0.2-0.5
			c0-0.2-0.3-0.1-0.3-0.3c0-0.1,0-0.1,0.1-0.2c0.3-0.4,0.3-0.5,0.3-0.5l0,0l-0.1,0c-0.4,0.1-0.6,0.2-0.7,0.2l0.3,0l0,0
			c-0.3,0.3-0.5,0.3-0.6,0.2l-0.3,0c-0.3,0.1-0.4,0.1-0.4,0.3c0,0,0,0.1-0.3,0.3l-0.3,0l-0.3,0.1l-0.5,0.4l-0.5,0.2
			c-0.2,0.1-0.3,0.2-0.5,0.4l0.3,0c-0.2,0.1-0.4,0.3-0.5,0.4l0.1,0.3l0.4-0.1l0.5-0.1l0.5,0l-0.2,0.4c-0.4,0.1-0.5,0.1-0.6,0.2
			l-0.4,0l-0.5,0.2l0.1,0.3l-0.3,0.5L207,61l0.7-0.1l0.4,0.2l0.4-0.3l0.3,0c0.1,0,0.1,0,0.3-0.4l0.4-0.4l0.2,0.2
			c0.1-0.1,0.2-0.2,0.4-0.3c0,0,0.1,0,0.2,0c0.1,0,0.2,0.1,0.3,0.1C210.7,60,210.9,59.9,211.2,59.7 M206,62.8c0.2,0,0.5-0.2,0.7-0.3
			c0.1-0.5,0.1-0.5,0-0.6L206,62l-0.8,0.6L206,62.8 M212,66.6L212,66.6l0.1-0.8l-0.9-0.3l-1-0.3l-1,0.3l-1.4,0.3l-0.8,0.1l-1-0.3
			l-0.9,0l-0.3-0.7l0.4-0.7l0.2-0.6c-0.3,0-0.6,0-0.9,0c-0.2,0-0.5,0.1-0.7,0.1c-0.5,0.9-0.5,0.9-0.7,1.8l-0.9,0.8l0,0.6l0.4,0.6
			l1.2-0.1c0.2-0.1,0.6-0.3,0.8-0.4c0.5,0.8,0.5,0.8,1.6,0.7c0.5,0,1,0,1.4,0l0.7-0.2l0.4-0.3l0.3,0.4c2.2-0.1,2.2-0.1,2.3-0.6
			C211.4,66.9,211.5,66.8,212,66.6 M196.7,67.6c0.2,0,0.4,0,0.6,0l0.1-0.5L196.7,67.6 M200.6,67.1l0.7-0.7l-0.3-0.4l0.1-0.5
			l-0.6,0.1l-1.1,0.4l-0.5,0.5l0,0.7c0.2,0,0.4,0,0.6,0l0.4,0.3L200.6,67.1 M202.5,64.4l0.8-0.5l0.3-0.4l-0.1-0.5
			c-0.2,0-0.4,0-0.6,0l-0.2-0.2l-0.7,0.1l-0.6,0.6l0.2,0.5l0.2,0.4L202.5,64.4 M204.9,62.1c0.1-0.1,0.2-0.3,0.4-0.4
			c-0.2,0-0.4,0-0.7,0c-0.2,0-0.4,0-0.6,0l-0.7,0.3l-0.3,0.3l0.8,0l0.5-0.1L204.9,62.1 M204.7,61.2l0.4-0.3l0-0.5l-0.6-0.1l0-0.4
			l-0.6,0.2l-0.3,0.4l-0.6,0.7l0.4,0.1l0.6-0.1L204.7,61.2L204.7,61.2z M205.5,58.8l0.5-0.2l0.5-0.4l-0.1-0.1l-0.3,0
			c-0.2,0.1-0.4,0.2-0.6,0.4l0.3,0L205.5,58.8 M201.6,61.7l0.6-0.3l0.5-0.5l0.1-0.3l0.5-0.4l-0.1-0.2l0.1-0.2l-0.4,0.1l0.2-0.3
			l0.1-0.3l-0.4,0.1l-1,0.2l-0.4,0.3l0.3,0l0,0.2l-0.6,0.4c-0.1,0-0.3,0-0.4,0l-0.5,0.4l0.3,0l-0.2,0.3l0.6-0.2l0.2,0l0.6,0.1
			l-0.2,0.6L201.6,61.7 M199.8,61.9l0.6-0.1l0.1-0.4l-0.6,0l-0.5,0.4L199.8,61.9L199.8,61.9z M199.9,64.5c0.2-0.1,0.3-0.4,0.3-0.5
			c0,0-0.1-0.4-0.2-0.4c-0.1,0-0.3,0.1-0.7,0.3l-0.1-0.5c-0.2,0-0.4,0-0.5,0c-0.1,0.5-0.3,1.7-0.9,1.3l0.2-0.9c-0.2,0-0.3,0-0.5,0
			l-0.6,0.5l-0.5,0.6l-0.1-0.5l0.7-0.9l-0.4-0.4l-1,0.7c-0.1,0.1-0.3,0.3-0.3,0.5c0,0.6-0.1,0.7-0.1,0.8l0.4,0.4l0.6-0.2l0.5-0.1
			l-0.1,0.4l-0.6,0.9l0.6-0.2l0.7,0l0.5-0.1l0.5-0.5c0.2-0.3,0.5-0.5,0.7-0.8C199.4,64.8,199.7,64.7,199.9,64.5 M193.9,65.9
			c0.2-0.2,0-0.4-0.1-0.4l-0.2,0.1c-0.1,0.2-0.3,0.2-0.5,0.2l-0.4,0.5c0.2,0,0.4,0,0.5,0C193.3,66.3,193.7,66.1,193.9,65.9
			 M196.9,62.7l0.6-0.2l0.6-0.7l0.1-0.4C197.6,61.7,197.2,62,196.9,62.7 M214.2,83l0.6-1l-0.5-1c-1.9,0.1-1.9,0.1-2,0.1
			c-0.1,0-0.4,0.3-1,1.1l0.5,0.9l1.1,0.1L214.2,83 M200.9,69.7c0.3-0.2,0.7-0.5,1-0.8c-0.3-0.4-0.4-0.4-0.5-0.4c-0.3,0-0.5,0-0.8,0
			l-0.6-0.3c-1.3,0-1.3,0-1.4,0.2c-0.4,0.7-0.5,0.8-1.2,1c-0.3,0.4-0.6,0.9-0.9,1.3c-0.6,1.3-0.6,1.3-0.7,1.5l1-0.1l0.9-0.5l0.6-0.8
			l0.8,0.2l0.9-0.5L200.9,69.7 M193.6,73l1.1-0.9l0.1-0.7l-0.1-0.7l-0.3-0.5c1.6-0.6,1.6-0.6,1.4-1.6l0-0.4l-0.7,0l-0.6,0.6l-0.3,0
			l-0.4-0.3l-0.8,0.2l-0.4,0.6l0,0.7c-1.5,1.3-1.6,1.2-1.6,0.3l-0.6,0l-0.6,0.6l0.2,0.5l0.2,0.4c0.2,0.1,0.4,0.2,0.6,0.3
			c-0.1,0.5-0.2,0.8-0.3,0.8l-0.1,0.2c0,0.2,0.6,0.6,0.7,0.6c0.2,0,0.9-0.5,1.2-0.7L193.6,73 M189,70l0.9-0.8l0-0.4l-1-0.3
			c-0.3,0.1-0.6,0.3-0.8,0.5c0,0.5,0.1,0.6,0.1,0.6c0,0,0.1,0.1-0.2,0.8L189,70 M187.3,69.1l0.8-0.5l-0.5,0l-0.7,0.3L187.3,69.1
			L187.3,69.1z M197.8,60.5c0.5-0.3,0.6-0.4,0.6-0.4c0,0-0.1-0.1,0-0.2l-0.5,0l-0.6,0.1l-1.2,0.4c0.2,0,0.3,0,0.5,0
			c0.2,0,0.4,0,0.6,0C197.2,60.5,197.5,60.5,197.8,60.5L197.8,60.5 M196,61.3l0.8-0.3l-0.3,0c-0.2,0-0.4,0-0.6,0l-0.6,0.1l-0.9,0.3
			l-0.9,0.7l0.1,0.1l0.6-0.1l0.7,0l0.6-0.3l0.3-0.4L196,61.3 M193.4,61.3l0.3,0.1l0.9-0.5l0-0.2l-0.3,0l-0.6,0.4L193.4,61.3
			L193.4,61.3z M192.4,65.8l1.4-1l0.2-0.4c-0.1,0-0.3,0-0.4,0l-0.6,0.4l-0.2-0.2L193,64c0.2-0.1,0.4-0.3,0.6-0.4l0.5-0.5
			c-0.1,0-0.3,0-0.4,0l-0.6,0.3l-0.5,0.1l-0.5,0.3c-0.1,0.4-0.1,0.4-1.2,1l0.4,0.1c-0.4,0.4-0.5,0.4-1,0.4c-0.2,0-0.5,0-0.7,0
			l0.1-0.4l0.6-0.7l-0.1-0.3c-0.1,0-0.3,0-0.4,0l0-0.3l-0.1-0.1l-1,0.2l-1.3,0.6l-1,0.4l-1.1,0.5l-0.8,0.6l0.7,0.1l0.4,0.2l0.7-0.1
			l0.8-0.2l0.6,0.2c0.2,0,0.4,0,0.6,0c-0.2,0.1-0.6,0.3-1.1,0.3c-0.2,0-0.5,0-0.7,0l-0.8,0.3l-0.5,0.4l0.1,0.3c0.3,0,0.6,0,0.9,0.1
			l1.5-0.4l1.3-0.6l0.8-0.1c0.3,0,0.6,0,0.9,0c0.3,0,0.6,0,0.9,0L192.4,65.8 M190.7,62.9l0.5,0.1l0.7-0.4c-0.4,0.1-0.6,0-0.6,0
			l0-0.1L190.7,62.9 M184.9,65l1.8-0.9l-1,0.2l-1.2,0.5L184.9,65L184.9,65z M191,62.3l1.1-0.5l-0.2-0.2l-1,0.4c-0.2,0-0.4,0-0.6,0
			l-0.3-0.1c-1.2,0.4-2.4,1-3.6,1.4c-0.2,0-0.3,0-0.5,0l-1,0.3l-0.8,0.5l0,0.4l1-0.4l-0.3,0.4l0.8-0.2l0.7-0.3l0.5,0l1-0.5l0.9-0.3
			l-0.7,0.6l0.6-0.2l0.9-0.2L191,62.3 M186.4,77l0.6-0.6l-0.4-0.7l-1.1-0.7V74l1-1l-0.1-0.7l1.1-1.3l0.3-0.8l-0.4-0.5
			c-0.3,0-0.5,0-0.8,0c-0.3,0.3-0.6,0.6-1,0.9l-0.5,0.7l-0.5,0.9l-0.7,0.4l-0.3-0.1l0-0.4l0.6-0.7l0.4-0.6l0.3-0.9l-0.5-0.1
			l-0.5,0.6l-0.3,0.5c-0.2,0-0.5,0-0.7,0l-0.5,0.4l-0.7,0.1l0.7-0.5l0.8-0.6l-0.4-0.1l-0.3-0.3l-0.7,0l-0.8,0.6l-0.4-0.1l0.6-0.4
			l0.8-0.8l-0.1-0.2c-0.2,0-0.5,0-0.7,0l-1.1,0.5l-0.8,0.2l-0.9,0.2l-1.2,0.5l-0.9,0.8l-1.4,0.5l-0.5,0.5c0.2,0,0.3,0,0.5,0
			l-0.2,0.5l0.9-0.2l0.9-0.1l-0.1,0.5l-1.1,0.2l-1,0.2l-0.9,0.5l0.3,0.6c0.3,0,0.7,0,1,0.1l1.2-0.1c0.3,0,0.6,0,1,0.1
			c0.1,0.2,0.3,0.3,0.4,0.5c-0.1,0.1-0.2,0.2-0.7,0.6l-1.6-0.2c-0.5,0-1-0.1-1.5-0.1l-1.7,0.5l-0.7,1.3l1.1,0.1c0.3,0,0.7,0,1,0.1
			l-0.6,1.2l0.2,0.6c0.4,0,0.9,0,1.4,0.1h1.4l1.4-0.5l1.2-0.3l1.5-0.6l0.8-0.3l0.1,0.5l0.7-0.1l0.8,1l1,0.1l1-0.1l1-0.8l-0.2-0.7
			l0.6,0L186.4,77 M179.6,79.4l0.7-0.9l-1.8,0.4l-2.1,0.8l0.9,0.3l1.3-0.5L179.6,79.4L179.6,79.4z M180,69.2l1.3-0.3l0.8-0.7
			l0.1-0.9l-0.4-0.1l-1.2,0.4l-0.2-0.4l-0.1-0.4l-0.7-0.2l-1.4,0.1c-0.3,0.2-0.5,0.3-0.8,0.5l-1.3,0.9l-2.3,1.4l-3.7,1.8l0.5,0.7
			l-1.2,1.6l1.7-0.8c0.3,0,0.6,0,0.8,0.1l1.2-0.5c1-0.7,1.7-1.1,4.6-2.3L180,69.2 M248.5,119.7l0.6-0.8l-1-0.7l0.4-0.8l-0.2-1.6
			l-2.1-0.2l-0.6-0.9c-0.7,0-1.5,0-2.2,0l-1.6,1l-1,0.8l-1-0.4l0.2-1.1l1.9-0.7l2.3-0.6l0.9-0.9l-1.5-0.1l-1.6-0.7l-2-0.5l-1.4-1.1
			l-1.5-1.1l-0.7-1l0.8-0.2l0.2-0.7l-1.5-1.7l-1.8-1.8l-2.5-3.1l-0.9-1.4l-1.3,1.9c0.1,0.5,0.1,1.1,0.2,1.6l-1.6,0.6l-1,1.1
			l-1.6-0.1l-0.4-1l-1.1-0.8l-1.5,0.4l0.4-1.8c0-0.8-0.1-1.6-0.1-2.3l-0.1-1.2l-1.8-0.1l-1.4-0.9l-1.3-1.3l-2.2-1.4l-0.8,0.6
			l-1.9-0.1l-0.7-0.5c-0.7,0-1.4,0-2.1,0l-0.9,0.9l0.7,1.3l-0.5,1.7l0.1,1.2l0.6,1.6c-0.4,0-0.8,0-1.2,0l0,1.5l-0.8,0.8l1,0.7
			l1.5,1.1l0.3,2c-0.1,0.8-0.1,1.6-0.1,2.3l-1.3,1.6l-1.7,1.3l-2.3,0.3l1.1,2c-0.1,0.9-0.1,1.7-0.2,2.6l0.6,1.5l-0.5,1.2l-1.2,1.5
			l-2.4,0.3l-1.1-2.2l-1.4-1.9c0.1-0.5,0.1-1.1,0.2-1.6l-0.2-2.2l0.5-1.8l-2.7-0.4l-2.1-0.1l-1-0.7l-2.4-0.7l-0.7-1.1l-1.9-1.2
			l-1.9-1.3l-3,0.6l-0.3-1.2l-0.4-2.6l-1.1-0.7l-0.5-1l1.4-3.1l2.1-2.3l2-2l1.8-0.7l1.6-1l-0.2-1.1l-1.7-0.5l-1.9-0.8l2.3,0.4
			l1.9,0.6l1-0.2l0.6-1.1l1.5,0.6l1.1-0.2l0.3-0.9l0.7-0.4l0.7-1.2l-1.1-0.2l-1.5-0.2l-0.3-0.7l-1.4-0.8l1.1,0.1l1.6,0.5l1.1,0.5
			l1.4-0.4l1.1-1.1l-0.6-0.9c0.4,0,0.8,0,1.2,0l0.5,0.8l-0.8,0.8l-1,1.6c-0.2,0.7-0.4,1.3-0.5,2l-1.4,0.4l0.1,0.9l1.4,0.1
			c-0.1,0.3-0.1,0.6,0,0.9c0.5,0.1,1.2,0,1.7-0.2l0.8-1.1l1.8,0.1l0.9,0.2l0.9,0.5c0.5,0,0.9,0,1.4,0l0.3-1.2l-1.3-0.3l-0.4-1.4
			l-1.6-0.2l-1-1.1l-1.1-0.3c0.1-0.3,0.1-0.5,0.2-0.8l1,0.2l0.6-0.6l0-0.6c0.4,0,0.9,0,1.3,0l0.7-0.9l1.4-0.9l0.5-0.8l-0.5-0.8
			l-0.3-1.4l1.1-0.2l0.5-1l-0.6-1l-1-0.5l-1.1-0.8c0.5,0,1,0,1.5,0l0.3-0.5l1.1,0.1l0.8,0.6l1.2,0l1.2-0.2l-0.8-0.9l0.7-0.2l0.8,1.1
			l1.1,0.1l0.4,1l0.8,0.2l0.4,0.8l0.9,0.4l0.5,1L217,81l0.9,1l0.2,1.2l-1.4,1.3l-1.2,1.4l0.6,1.3l-2.2,0.3l-1.1-0.3
			c-0.4,0-0.8,0-1.2,0l-1.6,1.1c-0.1,0.4-0.1,0.8-0.1,1.2l1.8,0.3l1.5-0.1l0.4-0.7l0.7-0.4l0.9,0.2l1.8,0.5l1.7,1.7l0.4,0.9l1.1,1.2
			c0.5,0,1,0,1.6,0l1.7,1.6l2.5,0.1l1.7,0.7l0.1-1l-2.8-2l-1.1-0.9l-0.6-0.9l1.7,0.8l3,1.5l1.6,0.9c0-0.5-0.1-1-0.2-1.4l0.6-1.2
			l-1.5-0.8l-0.6-1.9l-1.9-0.7l-2.4-2.3l0.6-0.6l0.6-0.6l3.1,2.2l1.2,1.4l1.3,0.2l0.1-1.6l1.4-0.6l0.1-0.6c0.3,0,0.7,0,1,0l0.2-0.7
			l-0.3-1.1c-0.6,0-1.3,0-1.9,0c0-0.2-0.1-0.4-0.1-0.6l-1.3-0.9l-0.8-0.1l-1.3-0.5c-0.3,0-0.6,0-0.9,0l-0.4-0.8l-0.4-0.7l-1.5,0
			l-0.6-0.1c0-0.4-0.1-0.8-0.1-1.1c0.4,0,0.7,0,1.1,0l0.5-0.5l-1.5-0.4l0.1-0.5l0.7-0.1l-0.9-0.8l-1.1-0.3l0.3-0.7l-1.1-0.5
			l-1.2,0.1l-0.2-0.5l-1-0.1l-0.4-0.1l0.8-0.5l-1.1-0.4l-1.3,0.3l-0.8-0.9l-0.1-0.5l-0.8-0.1l0-0.6l-1.2-0.5c-0.5,0-1,0-1.6,0
			l-0.3,0.5l-0.8,0.1l-0.7-0.2l-0.4,0.6l-0.8,0l0.1-0.8l0.6-0.7l-0.5-1l-0.1-0.9c-0.4,0-0.9,0-1.3,0l-0.8,0.6l-0.9,0l-0.8,0.4
			l-0.5,0.9l0.2,1l-0.6,0.6l0.4,1.2l-0.7,0.1l-0.6-1.1l0.2-1.4l0.3-0.9l1-0.9l1.2-0.7c-0.4,0-0.8,0-1.2,0l-1.3,0.1l-1.7,1l-1.5,1.5
			l-1,2l1.1,0.3l0.8,0.1l0.1,0.8l-0.9-0.2l-1.2,0.3l0.4,1c0.4,0,0.8,0,1.2,0l0.7-0.2l0.6,0.6l1.4,0.6l-1.1,0.3l-0.3,0.9l0.5,0.7
			l-1.7,1.8l-1,1.3l-1.2,1l-0.7-0.4l-0.1-1.6l1-0.9l-0.9-1.5l-1.6,1.1l-0.7-2l-0.4-0.3l0.6-1l0.3-1.1l-0.6-0.1l0.4-0.9l-0.5-1
			L195,73l-0.6,0.6l-0.6,0.1l-1.2,0.9l-0.2,0.8L192,76l0.5,1.1l0.7,0.7l-0.9,1l-1.1-0.3l-0.3,1.1l1.1,0l1.6-0.8
			c-0.2,0.4-0.4,0.8-0.6,1.2l-2.7,1.1l-0.7,1.8l-0.8-1l1-1.2c-0.3,0-0.6,0-0.8,0l0.6-1.1c0.3,0,0.5,0,0.7,0l0.7-1.6l-1.2-1l-1.1,1.1
			l-1.3,0.5l0.9,1.3l-1.2,0.7l-0.8,0.9l-3.2,0l-1.1-0.8l-1-0.3l-0.7-1l-1.5,0.7l-2.1,0.7L176,82l-1.5,1.8l0.6-2.2l-0.8-0.9l-1.9,0.3
			l-3.1-0.6l0.5-0.6l1.6-0.5l-0.6-1.2l-1.1,0l-1.6-1.3l0.2-0.9l-0.9-0.3l-0.8,0l-1.1,0.7l-0.9,0.1L166,75l-2.1,1.3l-0.5-0.2l1.6-1.8
			l-0.4-0.4l-1.7,1.1l-1.4,0.7l-1,0.1l-1.7,0.5l-2,0.7l2.4-1.2l1.3-0.3l1.1-0.3l1-0.6l-0.2-0.1l-1.7,0.4l-2.2,0.7h-0.7
			c-0.2,0-0.4,0-0.5-0.1l-2.7,1l-0.8-0.3l0.9-1.3l-1.2-0.3l0.5-0.7l-0.3-0.3l-1.3,0.2l0.5-0.7c-0.2,0-0.5-0.1-0.7-0.1l0.1-0.6
			c-0.2,0-0.4-0.1-0.6-0.1l-0.3-0.1c-9.8,5.6-18.9,12.4-27,20.1l1.1-0.3l-0.2,0.7l-1.9,0.8l-1.3,1c-0.2,0.2-0.4,0.4-0.6,0.6l-0.9,1
			l2.7-1.3l1.3-0.2c0.5-0.6,1.2-1.5,1.9-1.9l0.7,0.2l-0.4,1.3l-0.1,1.1l0.5,0.6l1.2-0.3l0.2,0.7c0.2,0,0.4,0.1,0.7,0.1l-0.3,1.2
			l0.3,1.1c0,0.5,0.1,1.2,0.1,1.7c0.3-0.1,0.6-0.2,0.8-0.3l0.1,0.8l-0.4,1.2l0.8,0.6l-1.1,1.1l0.6,0.9l-1,1l0.4,0.5l0.7,0.3
			l-0.8,1.3l-0.3,1.4l-0.8,1.6l-0.6,1.5l1,0.3l-0.7,1.8l0.2,1.8l-0.4,1.3l0.7,1l0.9,0.8l0.8,0.6l-0.3,1l0.8,1.4l0.5,1.2l-0.5,2.4
			c-0.3,0.6-0.6,1.3-0.8,1.9l-0.3-1.3l-0.2-1.6l0.2-1l-0.7-1.1l-0.6-0.4l0.6-1.6c-0.3,0-0.6-0.1-0.9-0.1l-0.3-0.8l-0.5-0.4l-0.5-0.3
			l-0.9,0.1l0,1.3l0.5,0.8l0.3,1.1l1,1.9l-0.2,1.9l-0.4,2.5l-0.9,1.9l-1.2,2.6c-0.4,1-0.8,2-1.2,3l-0.9,0.7c-0.2,0.7-0.5,1.3-0.7,2
			l0.1,2.2l-1,2l-0.3,1.6l0.2,1.4l-0.7,2.1l0.4,1.8l0.8,1.5l0,3l0.8,1.3l-0.1,1.6l0.6,1.9c0.5,0,1,0.1,1.5,0.1l0.9,1.3l1.5,1.1
			l0.9,1.7l0,1.9l0.3,2l0.3,3.3l0.9,1.5l1.2,1.7l0.2,1.2l-1.2,1l0.6,1.3l1.3,1.4l1.7,1.5l0.9,1.6l-0.3,1.3l0.3,1.1l1.4,0.8l1.3,1.5
			l0.9,1.2l0,1.4l0.8-0.4l0.3-1.5l-0.5-1.8l-1.2-0.8l-0.1-1.6l-1.4-1.4l-0.4-2l-0.4-1.9l-1.1-1.5l-0.2-1.9l-1.2-0.6l-0.4-2.4l-1.1-2
			l0.2-2.5l1.1,0l1.4,0.9l0.7,1.4l-0.2,2.2l1.3,3l1.5,2.4l1.5,1.7l1,1.7l0.1,1.9l1.7,1.3l1.2,1.8l0.9,1.9l2,2.7l0.7,2.3l1.1,1.1
			l-1.2,0.8l-0.4,1.4l2.3,2.3l1.9,1.9l2.4,0.9l2.5,1.8l3,1.6l3.4,1.9l2.8,0.9l1.8-0.1l0.6-1l2-0.2l2.2,1.3l2.5,2.1l1.4,1.7
			c0.7,0,1.3,0,2,0l0.8,0l1.2,0.5l1.3,1.8l2.5,0.9l0.1-1.2l1.4,0.8c4.2,5.7,4.2,5.7,3.8,6.9l0.8,1l1-0.5l1.4,0.7
			c2.8,2.6,2.8,2.6,4.1,2.5l3.5,1.8l1.9,0.8l-0.1-1.8l0.9-1.1l3.3,0.3l0.4,1.1l1.1-0.1l0.6-1.5l-1.2-1.4c-1.2,0-2.3,0-3.4,0
			l-2.2-0.1l-3.3-0.3l-1.5-1.1l-2.1-2.2l0.1-1.8c0-0.8,0-1.6,0-2.4l0.7-3c0-0.7,0-1.4,0-2l-1.1-1.6l-2.1-1.1l-3.1,0.2l-2.2-0.5
			l-2.4,0.9l-1.6-1.1l1.5-1.2c0-0.3,0-0.6,0-1c0-0.4,0-0.8,0-1.2l0.6-1.3l0.8-2.1c0-0.8,0-1.6,0-2.4l1.4-0.9l0.3-1.8l-1-0.7
			l-3.5,0.2l-2.2,0.3l-1,1.7l-1,2.5l-1,2.3l-1.8,0.2l-2.6,0.7l-2.7,0.3l-1.2-1.7l-2.2-1.3l-0.7-2l-1.5-2.6l-0.7-4.3l-0.2-3.1
			l1.2-2.3l0.7-2.7l-0.9-2.8l2.1-2.6l1.6-0.1l1.7-1.3l1.8-1.6l2.3,0.4l1.6,0.6l1.4-0.5l1,1.5c0.7,0,1.3,0,2,0l1.6-0.1l-0.3-1.2
			l0.7-1.8l2.5-0.1l1.7-0.2l3.1,0.4l1.2,1.6c0.3,0,0.7,0,1,0l0.7-0.9l0.9-0.2l1.4,1.4l1.3,1.8c0,0.7,0,1.3-0.1,2l0.8,1.2l0.3,1.3
			l1,1l0.5,1.4l1.3,0.7l0.1,1.5l1.2,0.4l0.7-1.1l0.6-1.6l-0.6-2l-0.6-3l-1.4-2.7c0-1.2,0.1-2.3,0.3-4c0.2-0.5,0.5-1.3,0.7-1.8
			l1.4-2.5l2-0.8l2.4-1.9l2.2-1.4l2.1-0.8l0.4-1.4l1.6-0.9l-1.3-2.5l-1-1.1l0.5-1.3l-0.9-1.2l1.6-0.8l1.3,1.8l0.8-1.8l0.9-1.5l1-1
			l1-3.2c1,0,2,0,3,0l1.9-1.1l2.2-0.2l-0.6-1.3l-0.1-2.7l1.5-2c0.6,0,1.2,0,1.7,0l0.5-1.2l2.2,0.1l2-1.1l1.2-1.6
			c3.6-0.1,3.6-0.1,5.2,0.4c-0.2,0.2-0.5,0.5-0.7,0.7c-0.9,0-1.9,0-2.8,0.1c-0.5,0.3-1.1,0.8-1.5,1.1c0,0.5,0.1,1.2,0.2,1.6l1.2,0.5
			l1.3-1.1l0.9-0.6l1.8-0.5l1.9-1l1.9-0.4l1.3-1.8l1.3-1.2l0.1-1.4l-1.9,0.5l-1.2,2.2l-2.3,0.1l-2-0.9l-2.1-1.5l-1.2-2.6l1.7-1.3
			l-0.3-2.1l-2.6-0.2l-2.7,0.8l-3,1.7l-2.9,2.8l-2.4,1.6l0.9-1.5l1.4-1.6l0.9-0.8l-2.4-0.6c1,0,2,0,3,0l0.7-1.4l1.6-1.3l1.9-0.1
			l0.7-1.6l1.6-0.6c0.8,0,1.7,0,2.5,0l4.5-0.1l2.4,0.4l1.8-0.1l1.6-1.3l1.3-1.8l2.8-0.3L248.5,119.7"/>
	</g>
	<circle fill="none" stroke="#FFFFFF" stroke-width="2" stroke-miterlimit="10" cx="221.7" cy="196.5" r="143.4"/>
	<path fill="#FFFFFF" d="M141.7,363.2l5.7,2.6c2.2,1,3.2,1.3,4.2,0.7c0.7-0.4,1.1-0.7,1.3-1c0.2-0.3,0.4-0.4,0.6-0.2
		c0.3,0.1,0.2,0.4,0,0.8c-0.3,0.6-2.7,3.7-2.9,3.9c-0.4,0.4-0.6,0.6-0.8,0.5c-0.3-0.1-0.5-0.7-1.4-1.3c-1-0.7-2.4-1.4-3.7-2.1
		l-14.9-7.4c-1.2-0.6-2.1-0.9-2.7-1.1c-0.6-0.2-1-0.2-1.1-0.3c-0.3-0.1-0.2-0.4,0.1-0.9c0.4-0.8,1.8-3.3,2.3-4.3
		c0.2-0.4,0.4-0.5,0.6-0.4c0.3,0.1,0.3,0.4,0,1l-0.2,0.4c-0.4,1,0.1,2.6,3.4,4.3l4.7,2.5l7.7-15.4c1.7-3.4,3.2-6.4,3.8-8.1
		c0.4-1.1,0.6-2-0.5-2.8c-0.5-0.3-1.3-0.8-1.8-1.1c-0.4-0.2-0.5-0.4-0.5-0.6c0.1-0.3,0.5-0.2,0.9,0c2.5,1.2,4.8,2.5,5.8,3.1
		c0.9,0.4,3.3,1.5,4.8,2.3c0.5,0.2,0.7,0.5,0.6,0.8c-0.1,0.2-0.3,0.2-0.8,0c-0.6-0.3-1.1-0.4-1.4-0.5c-0.8-0.2-1.5,0.5-2.1,1.5
		c-1,1.5-2.5,4.4-4.2,7.9L141.7,363.2L141.7,363.2z"/>
	<path fill="#FFFFFF" d="M96,317.1c-0.1-0.1-0.2-0.1-0.4,0l-0.6,0.6c-4.4,4.6-5.2,5.5-6,6.5c-0.9,1.1-1.1,1.8-0.3,3
		c0.2,0.3,0.7,0.8,1.1,1.2c0.3,0.3,0.5,0.5,0.3,0.8c-0.2,0.2-0.5,0.1-0.9-0.3c-1.7-1.5-3.5-3.4-4.3-4.2c-0.7-0.7-2.7-2.4-3.9-3.5
		c-0.4-0.4-0.6-0.7-0.4-0.9c0.2-0.2,0.4-0.1,0.8,0.2c0.2,0.2,0.5,0.5,1,0.7c1,0.6,1.7,0.3,2.8-0.7c1-0.9,1.8-1.8,6.1-6.4l5-5.4
		c2.6-2.8,4.9-5.2,6-6.7c0.7-0.9,1.2-1.8,0.4-2.8c-0.4-0.5-1-1.2-1.4-1.6c-0.3-0.3-0.4-0.6-0.3-0.7c0.2-0.2,0.5-0.1,0.9,0.3
		c2,1.9,3.8,3.8,4.7,4.6c0.7,0.7,2.7,2.4,3.9,3.5c0.4,0.4,0.6,0.7,0.4,0.9c-0.1,0.2-0.4,0.1-0.7-0.2c-0.5-0.4-0.9-0.7-1.2-0.9
		c-0.7-0.5-1.5,0.1-2.5,0.9c-1.4,1.1-3.6,3.6-6.3,6.4l-2.5,2.7c-0.1,0.1-0.1,0.3,0,0.4l11.7,11c0.1,0.1,0.2,0.1,0.4,0l2.5-2.7
		c2.6-2.8,4.9-5.2,6-6.7c0.7-0.9,1.2-1.8,0.4-2.8c-0.4-0.5-1-1.2-1.4-1.6c-0.3-0.3-0.4-0.6-0.3-0.7c0.2-0.2,0.5-0.1,0.9,0.3
		c2,1.9,3.8,3.8,4.7,4.6c0.7,0.7,2.7,2.4,3.9,3.5c0.4,0.4,0.5,0.7,0.3,0.9c-0.1,0.2-0.4,0.1-0.7-0.2c-0.5-0.4-0.9-0.7-1.2-0.9
		c-0.7-0.5-1.5,0.1-2.5,0.8c-1.4,1.1-3.6,3.6-6.3,6.4l-5.1,5.4c-4.4,4.6-5.2,5.5-6,6.5c-0.9,1.1-1.1,1.8-0.3,3
		c0.2,0.3,0.7,0.8,1.1,1.2c0.3,0.3,0.5,0.5,0.3,0.8c-0.2,0.2-0.5,0.1-0.9-0.3c-1.7-1.6-3.5-3.4-4.3-4.2c-0.7-0.7-2.7-2.4-3.9-3.5
		c-0.4-0.4-0.6-0.7-0.4-0.9c0.2-0.2,0.4-0.1,0.8,0.2c0.2,0.2,0.5,0.5,1,0.7c1,0.6,1.7,0.3,2.8-0.7c1-0.9,1.8-1.8,6.1-6.4l0.6-0.6
		c0.1-0.2,0.1-0.3,0-0.4L96,317.1L96,317.1z"/>
	<path fill="#FFFFFF" d="M72.7,289.5c-5.5,3.2-6.5,3.8-7.6,4.6c-1.2,0.8-1.6,1.4-1.1,2.8c0.1,0.3,0.4,1,0.7,1.5
		c0.2,0.4,0.3,0.7,0,0.8c-0.3,0.1-0.5-0.1-0.8-0.6c-0.6-1-1.2-2-1.7-2.9c-0.5-1-1-1.8-1.3-2.3c-0.7-1.2-4.9-8.3-5.4-9
		c-0.5-0.6-0.9-1.2-1.1-1.4c-0.1-0.2-0.4-0.3-0.5-0.5c-0.1-0.2,0-0.3,0.2-0.4c0.3-0.1,0.8-0.2,2.5-1.1c0.4-0.2,2-1,2.5-1.2
		c0.2-0.1,0.5-0.1,0.6,0.1c0.2,0.3,0,0.4-0.3,0.6c-0.3,0.1-0.8,0.5-1.2,1c-0.5,0.6-0.7,1.3,0.1,3.2c0.3,0.7,2.5,4.5,2.9,5.2
		c0.1,0.2,0.3,0.2,0.5,0l9.1-5.4c0.3-0.1,0.4-0.3,0.2-0.5c-0.5-0.8-2.9-5-3.5-5.7c-0.6-0.8-1-1.3-1.6-1.4c-0.4-0.1-0.7-0.1-0.8-0.3
		c-0.1-0.1-0.1-0.3,0.1-0.4c0.2-0.1,0.9-0.3,2.8-1.3c0.7-0.4,2.3-1.1,2.5-1.3c0.3-0.2,0.7-0.4,0.9-0.1c0.1,0.3,0,0.4-0.1,0.5
		c-0.3,0.2-0.8,0.5-1.2,0.9c-0.6,0.6-0.9,1.4-0.2,2.9c0.3,0.7,2.4,4.3,2.9,5.2c0.1,0.2,0.3,0.1,0.5,0l2.9-1.7
		c1.2-0.7,4.6-2.7,5.6-3.3c2.4-1.5,2.7-2.4,0.5-6.1c-0.6-0.9-1.5-2.5-2.4-3.1c-1-0.7-2-0.7-3.6,0c-0.4,0.2-0.6,0.2-0.8-0.1
		c-0.2-0.3,0.1-0.5,0.5-0.7c0.8-0.5,3.5-1.7,4.3-1.9c1.1-0.3,1.3,0,2.1,1.4c1.6,2.7,2.7,4.7,3.6,6.3c0.8,1.6,1.5,2.7,2.1,3.8
		c0.2,0.4,0.7,1.2,1.3,2c0.5,0.8,1.1,1.7,1.5,2.4c0.3,0.5,0.3,0.8,0.1,0.9c-0.2,0.1-0.4,0-0.6-0.4c-0.3-0.5-0.6-0.9-0.9-1.2
		c-0.6-0.6-1.5-0.3-2.6,0.1c-1.6,0.7-4.5,2.4-7.8,4.4L72.7,289.5L72.7,289.5z"/>
	<path fill="#FFFFFF" d="M36.7,220.7l1,6.2c0.4,2.4,0.8,3.4,1.8,3.9c0.7,0.3,1.2,0.5,1.5,0.5c0.3,0,0.5,0.1,0.6,0.4
		c0,0.3-0.2,0.4-0.6,0.5c-0.7,0.1-4.6-0.2-4.9-0.2c-0.6,0-0.8-0.1-0.9-0.4c0-0.3,0.3-0.8,0.3-1.9c0-1.2-0.2-2.8-0.4-4.2l-2.3-16.5
		c-0.2-1.3-0.4-2.2-0.6-2.8c-0.2-0.6-0.3-0.9-0.4-1.1c0-0.3,0.2-0.4,0.8-0.5c0.9-0.1,3.8-0.4,4.8-0.5c0.4,0,0.7,0,0.7,0.3
		c0,0.3-0.1,0.4-0.8,0.6l-0.5,0.1c-1.1,0.2-2.1,1.5-1.7,5.2l0.6,5.3l17-2.3c3.8-0.5,7.1-1,8.9-1.4c1.1-0.3,2-0.7,2-1.9
		c0-0.6,0-1.5-0.1-2.1c-0.1-0.5,0-0.7,0.2-0.7c0.3,0,0.5,0.3,0.5,0.7c0.4,2.7,0.6,5.4,0.8,6.5c0.1,1,0.6,3.6,0.8,5.2
		c0.1,0.5,0,0.8-0.3,0.9c-0.2,0-0.4-0.1-0.4-0.6c-0.1-0.6-0.2-1.1-0.4-1.5c-0.3-0.8-1.2-0.9-2.5-0.9c-1.8,0-5.1,0.5-8.9,1
		L36.7,220.7L36.7,220.7z"/>
	<path fill="#FFFFFF" d="M44.7,178.6c-6.3-0.8-7.5-1-8.8-1c-1.4-0.1-2.1,0.2-2.6,1.5c-0.1,0.3-0.3,1-0.3,1.6
		c-0.1,0.5-0.2,0.7-0.5,0.7c-0.3,0-0.3-0.3-0.3-1c0.3-2.2,0.7-4.8,0.8-5.7c0.2-1.4,0.5-4.6,0.6-5.9c0.3-2.6,0.9-5.4,2.8-7.4
		c0.9-1.1,3.3-2.5,6.1-2.1c3.1,0.4,5.7,2,8.6,6.7c5.1-3.1,9.2-5.5,12.1-7.6c2.7-2,3.2-3.7,3.4-4.3c0.1-0.4,0.2-0.8,0.3-1.1
		c0-0.3,0.2-0.5,0.4-0.5c0.3,0,0.4,0.3,0.3,0.8l-0.5,4c-0.3,2.3-0.6,3.3-1.4,4.3c-1.2,1.7-3.3,3-6.8,4.9c-2.5,1.4-5.6,2.9-6.3,3.4
		c-0.3,0.2-0.3,0.4-0.4,0.7l-0.5,3.6c0,0.2,0,0.3,0.3,0.4l0.6,0.1c3.9,0.5,7.2,0.9,8.9,0.9c1.2,0,2.2-0.1,2.5-1.3
		c0.2-0.6,0.4-1.5,0.4-2c0-0.3,0.2-0.5,0.4-0.5c0.3,0,0.4,0.3,0.3,0.9c-0.3,2.4-0.8,5.5-0.9,6.1c-0.1,0.8-0.3,3.4-0.5,5.1
		c-0.1,0.5-0.2,0.8-0.5,0.8c-0.2,0-0.3-0.2-0.2-0.7c0.1-0.6,0.1-1.1,0-1.5c-0.1-0.9-0.9-1.2-2.1-1.5c-1.7-0.4-5-0.8-8.8-1.3
		L44.7,178.6L44.7,178.6z M48.6,174.1c0.5,0.1,0.6,0,0.8-0.3c0.4-0.8,0.7-2.1,0.8-3.1c0.2-1.7,0.1-2.2-0.3-3
		c-0.8-1.4-2.5-2.8-5.9-3.2c-5.9-0.8-8.1,2.9-8.4,5.4c-0.1,1-0.2,1.8-0.1,2.2c0,0.3,0.2,0.4,0.5,0.4L48.6,174.1L48.6,174.1z"/>
	<path fill="#FFFFFF" d="M63.5,133.2c-0.1,0.2,0,0.3,0.2,0.5l4.7,4.4c0.8,0.8,1.7,1.4,2.1,1.6c0.7,0.3,1.3,0.1,1.8-1.1l0.2-0.6
		c0.2-0.5,0.3-0.5,0.6-0.5c0.3,0.1,0.3,0.4,0.1,0.8c-0.5,1.2-1.3,2.9-1.8,4.1c-0.2,0.4-0.9,2.6-1.8,4.6c-0.2,0.5-0.4,0.7-0.7,0.6
		c-0.2-0.1-0.2-0.3-0.1-0.6c0.1-0.3,0.3-0.9,0.4-1.2c0.5-1.9-0.5-3.2-2.1-4.7l-20.4-19.8c-0.9-0.9-1.3-1.3-1.1-1.7
		c0.1-0.3,0.6-0.4,1.6-0.5c2.5-0.1,20.9,0.3,27.8,0.2c4.1,0,5.1-0.9,5.6-1.7c0.4-0.5,0.6-1.1,0.8-1.6c0.1-0.3,0.2-0.5,0.5-0.4
		c0.3,0.1,0.2,0.5-0.3,1.9c-0.6,1.4-1.7,4.2-3.1,7.3c-0.3,0.7-0.5,1.1-0.8,1c-0.2-0.1-0.2-0.3-0.1-0.7c0-0.3-0.2-0.7-0.7-0.7
		l-9.5-0.3c-0.2,0-0.4,0.1-0.4,0.3L63.5,133.2L63.5,133.2z M64.8,124.4c0.1-0.2,0-0.3-0.2-0.3l-11-0.5c-0.2,0-0.4-0.1-0.4,0
		c0,0.1,0.1,0.3,0.3,0.4l8.1,7.5c0.1,0.1,0.3,0.1,0.3,0L64.8,124.4L64.8,124.4z"/>
	<path fill="#FFFFFF" d="M67.1,88.9c-2.4-0.6-3.2-0.3-4.5,0.6c-0.5,0.4-0.9,0.9-1.1,1.2c-0.2,0.3-0.4,0.3-0.6,0.2
		c-0.3-0.2,0-0.6,0.4-1.1c1.3-1.8,2.9-3.6,3.8-4.8c0.6-0.8,1.7-2.5,3-4.2c0.3-0.4,0.6-0.7,0.9-0.5c0.2,0.2,0.2,0.4-0.1,0.7
		c-0.4,0.5-0.8,1.1-0.8,1.5c0,0.4,0.1,0.6,0.4,0.9c0.4,0.3,1.6,0.7,3.2,1.2l19.6,5.7l0.1-0.1C88.7,85.9,81.3,73.4,79.7,71
		c-0.3-0.5-0.7-1-1-1.2c-0.3-0.2-0.6-0.3-1,0c-0.4,0.3-0.9,0.8-1.2,1.2c-0.2,0.3-0.5,0.5-0.7,0.4c-0.3-0.2-0.1-0.6,0.4-1.2
		c1.3-1.7,2.4-3,2.8-3.4c0.4-0.6,1.5-2.2,2.3-3.2c0.3-0.4,0.6-0.7,0.8-0.5c0.2,0.2,0.1,0.4-0.1,0.8c-0.3,0.3-0.8,1-0.8,1.9
		c0,0.7,0.2,1.6,1.6,4.1c2.2,3.7,3.3,6,6,10.9c3.3,5.8,5.7,10.2,6.8,12.2c1.3,2.3,1.7,2.9,1.3,3.4c-0.3,0.4-0.9,0.3-3-0.3L67.1,88.9
		L67.1,88.9z"/>
	<path fill="#FFFFFF" d="M107.1,56c-4-5-4.7-5.9-5.6-6.9c-1-1.1-1.6-1.4-2.9-0.7c-0.3,0.1-0.9,0.6-1.4,0.9c-0.4,0.3-0.6,0.4-0.8,0.1
		c-0.2-0.2,0-0.5,0.5-0.9c0.9-0.7,1.9-1.4,2.7-2.1c0.9-0.6,1.7-1.2,2.1-1.6c1-0.8,7.6-6,8.2-6.6c0.6-0.6,1-1,1.3-1.3
		c0.1-0.2,0.3-0.4,0.4-0.5c0.2-0.1,0.3,0,0.4,0.1c0.2,0.2,0.3,0.8,1.4,2.3c0.2,0.4,1.3,1.8,1.6,2.3c0.1,0.2,0.2,0.4,0,0.6
		c-0.2,0.2-0.4,0.1-0.7-0.2c-0.2-0.2-0.7-0.8-1.1-1c-0.7-0.4-1.3-0.5-3.1,0.6c-0.6,0.4-4.1,3.1-4.8,3.6c-0.2,0.1-0.1,0.3,0,0.5
		l6.6,8.3c0.2,0.2,0.3,0.3,0.5,0.2c0.7-0.6,4.5-3.6,5.2-4.3c0.7-0.7,1.1-1.2,1.2-1.7c0-0.4,0-0.7,0.2-0.8c0.1-0.1,0.3-0.1,0.4,0.1
		c0.2,0.2,0.4,0.8,1.6,2.6c0.5,0.7,1.4,2.1,1.6,2.3c0.2,0.3,0.5,0.6,0.2,0.9c-0.2,0.2-0.4,0.1-0.5-0.1c-0.3-0.3-0.6-0.7-1.1-1.1
		c-0.7-0.5-1.5-0.6-2.9,0.2c-0.7,0.4-3.9,3-4.7,3.6c-0.2,0.1-0.1,0.3,0.1,0.5l2.1,2.6c0.9,1.1,3.3,4.2,4.1,5.1
		c1.9,2.2,2.8,2.3,6.1-0.4c0.9-0.7,2.2-1.8,2.8-2.9c0.5-1.1,0.4-2.1-0.5-3.6c-0.2-0.4-0.3-0.6,0-0.8c0.3-0.2,0.5,0.1,0.7,0.4
		c0.6,0.8,2.1,3.2,2.5,4c0.5,1,0.2,1.3-1.1,2.3c-2.5,2-4.3,3.3-5.7,4.4c-1.5,1.1-2.5,1.8-3.5,2.6c-0.4,0.3-1.1,0.9-1.8,1.5
		c-0.8,0.6-1.6,1.3-2.2,1.9c-0.4,0.3-0.7,0.4-0.9,0.2c-0.1-0.2-0.1-0.4,0.3-0.7c0.5-0.4,0.8-0.8,1.1-1.1c0.6-0.7,0.1-1.5-0.5-2.6
		c-0.9-1.5-3-4.1-5.4-7.1L107.1,56L107.1,56z"/>
	<path fill="#FFFFFF" d="M150.3,36.8c2.3,4.9,3.5,7.5,4.6,7.8c0.9,0.3,2,0.1,5-1.3c2-0.9,3.5-1.7,3.9-3.1c0.2-0.7,0.2-2-0.1-2.7
		c-0.1-0.4-0.2-0.6,0.1-0.8c0.3-0.1,0.4,0,0.6,0.5c0.2,0.4,1.3,3.4,1.5,4.6c0.2,0.9,0.1,1.2-1.9,2.1c-2.7,1.3-4.7,2.1-6.5,2.9
		c-1.7,0.7-3.1,1.3-4.7,2.1c-0.4,0.2-1.3,0.6-2.1,1.1c-0.9,0.4-1.8,0.9-2.6,1.3c-0.5,0.2-0.8,0.2-0.9,0c-0.1-0.2,0-0.4,0.5-0.6
		c0.6-0.3,1-0.6,1.3-0.8c0.7-0.5,0.5-1.4,0.1-2.6c-0.6-1.7-2-4.7-3.6-8.2l-3.1-6.7c-2.7-5.8-3.2-6.8-3.9-8c-0.7-1.3-1.3-1.7-2.6-1.4
		c-0.3,0.1-0.8,0.2-1.3,0.5c-0.4,0.2-0.7,0.2-0.8,0c-0.1-0.3,0.1-0.5,0.7-0.7c1.8-0.8,4.2-1.8,5.3-2.3c0.9-0.4,3.6-1.8,5.1-2.5
		c0.5-0.2,0.8-0.3,1,0c0.1,0.3-0.1,0.4-0.5,0.7c-0.4,0.2-1,0.5-1.4,0.8c-0.9,0.7-0.9,1.5-0.4,2.8c0.5,1.3,1,2.3,3.7,8.1L150.3,36.8
		L150.3,36.8z"/>
	<path fill="#FFFFFF" d="M209.4,28.8c-4.2-3.5-5.5-8.1-5.6-12.2c-0.1-2.9,0.6-7.8,4.5-11.7c2.9-2.9,6.8-4.7,13.1-4.9
		c2.6-0.1,4.2,0,6.1,0.2c1.6,0.2,3,0.5,4.2,0.6c0.5,0,0.6,0.2,0.6,0.5c0,0.3-0.1,0.8-0.1,2.3c0,1.4,0.1,3.7,0,4.5c0,0.6-0.1,1-0.5,1
		c-0.3,0-0.4-0.3-0.4-0.9c-0.1-1.3-0.7-2.7-1.8-3.8c-1.4-1.4-4.7-2.4-8.6-2.3c-3.6,0.1-6,1.1-7.8,2.9c-3,2.9-3.6,6.9-3.5,11
		c0.3,10,8.1,14.7,13.7,14.5c3.7-0.1,6-0.6,7.6-2.6c0.7-0.8,1.2-2.1,1.3-2.8c0.1-0.7,0.2-0.8,0.5-0.9c0.3,0,0.4,0.3,0.4,0.6
		c0,0.5-0.4,4.2-0.7,5.6c-0.2,0.7-0.3,0.9-1,1.3c-1.7,0.7-4.8,1.1-7.5,1.2C218.1,33,213.3,31.9,209.4,28.8L209.4,28.8z"/>
	<path fill="#FFFFFF" d="M253.6,18.1c1.9-6.9,8.9-14.6,21-11.3c10.1,2.7,14.8,10.3,12.3,19.6c-2.5,9.3-11,14.8-21.3,12.1
		C254,35.2,251.7,25.3,253.6,18.1L253.6,18.1z M280.8,26.3c2.5-9.1-1.2-16.1-7.9-17.9c-4.7-1.3-10.7-0.1-13.4,10
		c-2.3,8.4,0.6,16.4,8.3,18.5C270.7,37.6,277.7,38,280.8,26.3L280.8,26.3z"/>
	<path fill="#FFFFFF" d="M311.5,35.2c3.4-5.4,4-6.4,4.6-7.6c0.7-1.3,0.8-2-0.3-3c-0.2-0.2-0.8-0.7-1.3-1c-0.4-0.2-0.6-0.4-0.4-0.7
		c0.2-0.2,0.4-0.2,1,0.2c1.9,1.2,4.1,2.7,4.8,3.1c1.2,0.8,4,2.3,5.1,3c2.2,1.4,4.5,3.1,5.6,5.6c0.6,1.3,0.9,4-0.6,6.4
		c-1.6,2.6-4.3,4.4-9.7,5.1c0.7,6,1.2,10.7,1.9,14.2c0.7,3.3,2,4.5,2.5,4.9c0.3,0.3,0.6,0.6,0.9,0.7c0.3,0.2,0.4,0.4,0.2,0.6
		c-0.2,0.3-0.5,0.2-0.9-0.1l-3.4-2.1c-2-1.2-2.8-2-3.4-3c-1-1.8-1.3-4.3-1.6-8.3c-0.2-2.8-0.3-6.3-0.5-7.1c0-0.3-0.2-0.5-0.5-0.6
		l-3.1-2c-0.2-0.1-0.3-0.1-0.5,0.1l-0.3,0.5c-2.1,3.3-3.8,6.1-4.6,7.7c-0.5,1.1-0.8,2,0.2,2.8c0.5,0.4,1.2,1,1.7,1.2
		c0.3,0.2,0.4,0.4,0.2,0.6c-0.2,0.2-0.5,0.2-0.9-0.1c-2.1-1.3-4.6-3-5.2-3.4c-0.7-0.4-3-1.7-4.4-2.6c-0.5-0.3-0.6-0.6-0.5-0.8
		c0.1-0.2,0.3-0.2,0.7,0.1c0.5,0.3,1,0.5,1.4,0.7c0.8,0.3,1.5-0.4,2.3-1.3c1.1-1.4,2.9-4.2,4.9-7.5L311.5,35.2L311.5,35.2z
		 M313.9,40.6c-0.2,0.4-0.3,0.6-0.1,0.8c0.6,0.7,1.6,1.5,2.5,2c1.4,0.9,2,1,2.9,1c1.6-0.1,3.6-1.1,5.4-4c3.1-5.1,0.7-8.6-1.4-9.9
		c-0.9-0.6-1.6-0.9-2-1c-0.3-0.1-0.5,0-0.6,0.3L313.9,40.6L313.9,40.6z"/>
	<path fill="#FFFFFF" d="M350,64c4.6-4.4,5.5-5.2,6.4-6.2c1-1,1.2-1.7,0.5-3c-0.2-0.3-0.6-0.8-1-1.3c-0.3-0.3-0.4-0.6-0.2-0.8
		c0.2-0.2,0.5,0,0.9,0.4c1.5,1.6,3.3,3.6,4.1,4.5c1.2,1.2,3,2.9,4.3,4.3c3.6,3.8,3.6,6.4,3.6,7.3c0,1.3-0.6,3.4-2.2,5
		c-4.3,4.1-10.4,3.8-14.5-0.5c-0.1-0.2-0.5-0.5-0.6-0.7c-0.1-0.2-0.3-0.4-0.1-0.6c0.2-0.2,0.5-0.1,1.1,0.5c1.6,1.7,5.8,2.3,8.9-0.7
		c1-1,3-3,2.9-6.1c0-2-1-3.5-1.7-4.2c-0.4-0.5-0.9-0.9-1.2-1.1c-0.2-0.1-0.5,0-0.8,0.3l-12.2,11.5c-2.8,2.7-5.2,4.9-6.4,6.3
		c-0.8,0.9-1.3,1.7-0.5,2.7c0.3,0.5,0.9,1.2,1.4,1.7c0.3,0.3,0.4,0.6,0.2,0.7c-0.2,0.2-0.5,0-0.9-0.3c-1.9-2-3.6-4-4.4-4.8
		c-0.7-0.7-2.6-2.5-3.7-3.7c-0.4-0.4-0.5-0.7-0.3-0.9c0.2-0.1,0.4-0.1,0.7,0.3c0.4,0.5,0.8,0.8,1.2,1c0.7,0.5,1.5,0,2.5-0.7
		c1.4-1.1,3.8-3.3,6.6-6L350,64L350,64z"/>
	<path fill="#FFFFFF" d="M372.5,96.1c6.4-3.3,16.8-3.4,22.6,7.8c4.8,9.3,2.4,17.8-6.1,22.3c-8.5,4.4-18.4,2-23.3-7.5
		C360.1,108,365.9,99.6,372.5,96.1L372.5,96.1z M384.9,121.7c8.3-4.3,11-11.8,7.9-17.9c-2.2-4.3-7.1-7.9-16.4-3.1
		c-7.7,4-11.7,11.5-8,18.6C369.7,121.9,374.1,127.3,384.9,121.7L384.9,121.7z"/>
	<path fill="#FFFFFF" d="M399,150.3c6.3-1.2,7.4-1.4,8.7-1.7c1.4-0.3,2-0.8,2-2.2c0-0.3-0.1-1.1-0.2-1.6c-0.1-0.5-0.1-0.7,0.2-0.8
		c0.3-0.1,0.4,0.2,0.5,0.8c0.4,2.2,0.8,4.8,0.9,5.7c0.3,1.4,1,4.5,1.2,5.8c0.5,2.6,0.8,5.4-0.3,7.9c-0.6,1.3-2.4,3.3-5.1,3.9
		c-3.1,0.6-6.1-0.2-10.3-3.7c-3.9,4.5-7,8.1-9.1,11c-2,2.8-1.9,4.5-1.9,5.1c0,0.5,0,0.8,0.1,1.2c0.1,0.3,0,0.5-0.2,0.6
		c-0.3,0.1-0.5-0.2-0.6-0.7l-0.7-3.9c-0.4-2.3-0.4-3.4-0.1-4.6c0.6-2,2.3-3.9,5-6.8c2-2.1,4.4-4.5,4.9-5.2c0.2-0.3,0.2-0.5,0.1-0.8
		l-0.6-3.6c0-0.2-0.1-0.3-0.4-0.3l-0.6,0.1c-3.8,0.7-7.1,1.3-8.8,1.9c-1.2,0.3-2,0.8-2,2c0,0.6,0.1,1.6,0.2,2.1
		c0.1,0.3,0,0.5-0.2,0.6c-0.3,0.1-0.5-0.2-0.6-0.7c-0.5-2.4-0.9-5.5-1-6.1c-0.2-0.8-0.8-3.4-1.1-5c-0.1-0.5,0-0.8,0.3-0.9
		c0.2,0,0.4,0.1,0.5,0.6c0.1,0.6,0.3,1.1,0.4,1.5c0.3,0.8,1.3,0.8,2.5,0.8c1.8-0.1,5-0.7,8.8-1.5L399,150.3L399,150.3z M396.7,155.7
		c-0.5,0.1-0.6,0.2-0.7,0.5c-0.1,0.9,0,2.2,0.2,3.2c0.3,1.6,0.6,2.2,1.3,2.8c1.1,1.1,3.3,1.9,6.6,1.3c5.9-1.1,6.8-5.3,6.3-7.7
		c-0.2-1-0.4-1.8-0.6-2.2c-0.1-0.3-0.3-0.3-0.6-0.3L396.7,155.7L396.7,155.7z"/>
	<path fill="#FFFFFF" d="M395.3,199.2c0-0.2-0.1-0.3-0.3-0.4l-5.8-2.7c-1-0.5-2-0.8-2.5-0.8c-0.8-0.1-1.3,0.3-1.4,1.6l0,0.6
		c0,0.5-0.1,0.6-0.4,0.6c-0.3,0-0.4-0.3-0.4-0.7c0.1-1.3,0.4-3.1,0.5-4.4c0-0.5,0.1-2.8,0.2-4.9c0-0.5,0.1-0.8,0.5-0.8
		c0.2,0,0.3,0.2,0.3,0.5c0,0.4,0,1,0,1.3c0.1,1.9,1.5,2.8,3.5,3.8l25.5,12.5c1.2,0.6,1.6,0.9,1.6,1.3c0,0.4-0.4,0.6-1.4,0.9
		c-2.4,0.8-19.9,6.3-26.5,8.5c-3.9,1.3-4.6,2.5-4.8,3.3c-0.2,0.6-0.3,1.2-0.3,1.7c0,0.3-0.1,0.5-0.4,0.5c-0.3,0-0.4-0.4-0.3-2
		c0.1-1.5,0.3-4.6,0.7-7.9c0.1-0.8,0.1-1.3,0.4-1.2c0.2,0,0.3,0.2,0.3,0.6c0.1,0.3,0.4,0.6,0.9,0.4l9.1-2.7c0.2-0.1,0.3-0.2,0.3-0.4
		L395.3,199.2L395.3,199.2z M396.7,207.9c0,0.2,0.1,0.3,0.2,0.2l10.6-3c0.2,0,0.4-0.1,0.4-0.2c0-0.1-0.2-0.2-0.4-0.3l-10-4.6
		c-0.2-0.1-0.3,0-0.3,0.1L396.7,207.9L396.7,207.9z"/>
	<path fill="#FFFFFF" d="M404.2,252l1.9-6c0.7-2.3,0.8-3.3,0.2-4.2c-0.5-0.6-0.9-1-1.2-1.2c-0.3-0.2-0.4-0.4-0.3-0.6
		c0.1-0.3,0.3-0.3,0.8-0.1c0.6,0.2,4,2.2,4.3,2.4c0.5,0.3,0.7,0.5,0.6,0.7c-0.1,0.3-0.6,0.6-1.1,1.5c-0.5,1.1-1.1,2.6-1.6,3.9
		l-5.4,15.7c-0.4,1.3-0.6,2.2-0.8,2.8c-0.1,0.6-0.1,1-0.2,1.1c-0.1,0.3-0.3,0.2-0.9,0c-0.8-0.3-3.5-1.4-4.6-1.7
		c-0.4-0.2-0.6-0.3-0.5-0.6c0.1-0.3,0.3-0.3,0.9-0.2l0.5,0.1c1.1,0.3,2.5-0.4,3.8-3.9l1.8-5l-16.3-5.6c-3.6-1.3-6.8-2.3-8.6-2.7
		c-1.1-0.3-2.1-0.3-2.7,0.8c-0.3,0.5-0.7,1.4-0.9,2c-0.2,0.4-0.3,0.6-0.5,0.5c-0.3-0.1-0.3-0.5-0.1-0.9c0.9-2.6,1.9-5.1,2.3-6.2
		c0.3-0.9,1.1-3.5,1.6-5c0.2-0.5,0.4-0.8,0.7-0.7c0.2,0.1,0.3,0.3,0.1,0.7c-0.2,0.6-0.3,1.1-0.3,1.5c-0.1,0.8,0.7,1.4,1.8,1.9
		c1.6,0.8,4.7,1.9,8.4,3.1L404.2,252L404.2,252z"/>
	<path fill="#FFFFFF" d="M378.2,285.1c5.4,3.4,6.4,4,7.6,4.6c1.3,0.7,2.1,0.7,2.8,0c0.3-0.3,0.7-0.8,0.9-1.2
		c0.2-0.4,0.4-0.5,0.7-0.4c0.2,0.1,0.1,0.5-0.2,1c-0.8,1.4-2.3,3.5-3,4.6c-0.5,0.9-1.7,3.1-2.6,4.4c-0.3,0.5-0.5,0.7-0.8,0.6
		c-0.3-0.2-0.2-0.4,0-0.8c0.2-0.4,0.4-0.7,0.6-1.1c0.4-1.1,0-1.7-1.2-2.6c-1.1-0.8-2.1-1.4-7.5-4.8l-6.3-3.9
		c-3.5-2.1-6.3-3.9-7.9-4.7c-1-0.5-1.8-0.6-2.6,0.3c-0.4,0.5-0.9,1.2-1.3,1.7c-0.2,0.4-0.5,0.5-0.6,0.4c-0.2-0.2-0.2-0.5,0.1-0.9
		c1.5-2.4,3-4.5,3.6-5.5c0.5-0.8,1.8-3.1,2.7-4.6c0.3-0.5,0.6-0.6,0.8-0.5c0.2,0.1,0.2,0.3-0.1,0.8c-0.3,0.5-0.5,1-0.7,1.4
		c-0.3,0.8,0.2,1.4,1.1,2.1c1.4,1.1,4.2,2.9,7.7,5L378.2,285.1L378.2,285.1z"/>
	<path fill="#FFFFFF" d="M358.2,307.9c5,5.2,7.9,15.2-1.2,23.9c-7.5,7.2-16.4,7.3-23.1,0.4c-6.6-6.9-7-17.1,0.7-24.4
		C343.3,299.4,353,302.6,358.2,307.9L358.2,307.9z M337.1,327c6.5,6.8,14.4,7.3,19.4,2.5c3.5-3.3,5.6-9.1-1.6-16.6
		c-6-6.3-14.3-8-20.1-2.4C332.6,312.5,328.7,318.2,337.1,327L337.1,327z"/>
	<path fill="#FFFFFF" d="M305.2,337.6c-1.5-2.9-2.4-3.7-3.3-3.6c-0.8,0.1-1.5,0.4-2.1,0.7c-0.4,0.2-0.7,0.2-0.8,0
		c-0.1-0.3,0.2-0.5,0.7-0.8c2.5-1.2,4-1.8,4.8-2.1c0.3-0.2,2.1-1.1,4-2.1c0.5-0.2,0.9-0.4,1,0c0.1,0.2-0.1,0.4-0.5,0.6
		c-0.5,0.2-1.2,0.6-1.6,1c-0.8,0.8-0.5,1.9,1.1,5.3l10.3,22.6c0.4,0.8,0.5,1.3,0.1,1.5c-0.4,0.2-1-0.1-2-0.5
		c-0.7-0.3-9.4-3.7-17.5-6.6c-3.8-1.3-11.5-4.4-12.4-4.7l-0.2,0.1l8.5,16.8c1.1,2.3,1.8,2.8,2.9,2.8c0.7,0,1.6-0.5,2.1-0.7
		c0.5-0.2,0.7-0.2,0.8,0.1c0.1,0.3-0.3,0.5-0.8,0.8c-2,0.9-3.8,1.7-4.6,2.1c-0.4,0.2-1.8,1-3.7,1.9c-0.5,0.2-0.9,0.4-1,0.1
		c-0.1-0.2,0.1-0.4,0.5-0.7c0.4-0.2,0.7-0.3,1.1-0.7c0.9-0.8,0.8-1.7-0.1-3.9l-11-24.1c-0.4-0.8-0.4-1.2-0.1-1.4
		c0.4-0.2,1.1,0,1.7,0.2c3.5,1.1,10.7,3.8,16.5,5.8c6.1,2.1,12.5,4.9,13.6,5.3l0.1-0.1L305.2,337.6L305.2,337.6z"/>
	<path fill="#FFFFFF" d="M230.1,369.3c0,2.3-1.6,5.6-5.5,5.6c-3.1,0-5.6-2.1-5.6-5.3c0-3.2,2.2-5.8,5.6-5.9
		C228.4,363.7,230.1,366.7,230.1,369.3L230.1,369.3z"/>
	<g>
		<path fill="#FFFFFF" d="M303.6,273.6c6.2,0,13.6-0.7,17.5-2.2c1.7-0.7,2-1.2,2.5-2.8c1-3.3,2.1-11.8,2.1-12.9
			c0-0.8-0.2-1.5-0.9-1.5c-0.8,0-1,0.4-1.3,1.9c-0.4,1.7-1.7,4.6-3.3,6.4c-3.9,4.5-9.1,5.4-17.8,5.4c-13,0-30.6-11.5-30.6-34.6
			c0-9.4,1.8-18.6,8.9-25.2c4.3-3.9,9.8-6,18.3-6c8.9,0,16.5,2.6,19.7,6c2.4,2.5,3.7,5.9,3.8,8.9c0,1.4,0.2,2.1,1,2.1
			c0.9,0,1.1-0.8,1.2-2.2c0.2-1.9,0.1-7.3,0.3-10.5c0.2-3.4,0.5-4.6,0.5-5.3c0-0.6-0.4-1.1-1.5-1.2c-2.9-0.3-6-1.2-9.7-1.7
			c-4.5-0.6-8.1-1-14.1-1c-14.5,0-23.7,3.9-30.7,10.3c-9.3,8.5-11.4,20-11.4,26.6c0,9.4,2.5,20.3,12,28.7
			C279.2,270.7,290.3,273.6,303.6,273.6L303.6,273.6z"/>
		<path fill="#FFFFFF" d="M141.9,169.3c0,8.9,0,16.6-0.5,20.7c-0.3,2.8-0.9,5-2.8,5.3c-0.9,0.2-2,0.4-3.5,0.4
			c-1.2,0-1.6,0.3-1.6,0.8c0,0.7,0.7,1,1.9,1c3.9,0,10-0.3,12.2-0.3c2.7,0,8.8,0.3,15.2,0.3c1.1,0,1.8-0.3,1.8-1
			c0-0.5-0.5-0.8-1.6-0.8c-1.5,0-3.6-0.2-5-0.4c-2.9-0.4-3.5-2.5-3.8-5.2c-0.5-4.2-0.5-11.8-0.5-20.8v-39.8l12.2,0.3
			c8.6,0.2,11.3,2.9,11.5,5.4l0.1,1.1c0.1,1.5,0.3,1.9,1.1,1.9c0.6,0,0.8-0.6,0.9-1.6c0-2.5,0.3-9.2,0.3-11.3c0-1.5-0.1-2-0.8-2
			c-0.4,0-1.2,0.2-2.6,0.5c-1.5,0.2-3.6,0.5-6.7,0.5h-38.5c-3.2,0-6.9-0.2-9.7-0.5c-2.4-0.2-3.4-1.2-4.2-1.2c-0.6,0-0.9,0.6-1.2,1.8
			c-0.2,0.8-2,9.6-2,11.2c0,1.1,0.2,1.6,0.9,1.6c0.6,0,0.9-0.4,1.1-1.2c0.2-0.8,0.7-1.9,1.7-3.4c1.5-2.1,3.8-2.6,9.4-2.8l14.5-0.4
			V169.3L141.9,169.3z"/>
		<path fill="#FFFFFF" d="M214.8,206.7c0,8.9,0,16.6-0.5,20.7c-0.3,2.8-0.9,5-2.8,5.3c-0.9,0.2-2,0.4-3.5,0.4
			c-1.2,0-1.6,0.3-1.6,0.8c0,0.7,0.7,1,1.9,1c3.9,0,10-0.3,12.2-0.3c2.7,0,8.8,0.3,15.2,0.3c1.1,0,1.8-0.3,1.8-1
			c0-0.5-0.5-0.8-1.6-0.8c-1.5,0-3.6-0.2-5-0.4c-2.9-0.4-3.5-2.5-3.8-5.2c-0.5-4.2-0.5-11.8-0.5-20.8v-39.8l12.2,0.3
			c8.6,0.2,11.3,2.9,11.5,5.4l0.1,1.1c0.1,1.5,0.3,1.9,1.1,1.9c0.6,0,0.8-0.6,0.9-1.6c0-2.5,0.3-9.2,0.3-11.3c0-1.5-0.1-2-0.8-2
			c-0.4,0-1.2,0.2-2.6,0.5c-1.5,0.2-3.6,0.5-6.7,0.5h-38.5c-3.2,0-6.9-0.2-9.7-0.5c-2.4-0.2-3.4-1.2-4.2-1.2c-0.6,0-0.9,0.6-1.2,1.8
			c-0.2,0.8-2,9.6-2,11.2c0,1.1,0.2,1.6,0.9,1.6c0.6,0,0.9-0.4,1.1-1.2c0.2-0.8,0.7-1.9,1.7-3.4c1.5-2.1,3.8-2.6,9.4-2.8l14.5-0.4
			V206.7L214.8,206.7z"/>
	</g>
</g>
</svg>
